CommissionerFlair-Bold.ufo
<glyph name="numbersign" format="2">
  <advance width="699.2894736842105"/>
  <unicode hex="0023"/>
  <outline>
    <contour>
      <point x="13.421052631578947" y="123.60526315789474" type="line"/>
      <point x="82.60526315789474" y="128.89473684210526"/>
      <point x="148.1315789473684" y="129.55263157894737"/>
      <point x="205.0" y="129.55263157894737" type="curve"/>
      <point x="444.4736842105263" y="129.55263157894737" type="line"/>
      <point x="501.3421052631579" y="129.55263157894737"/>
      <point x="566.8684210526316" y="128.89473684210526"/>
      <point x="636.0526315789474" y="123.60526315789474" type="curve"/>
      <point x="636.0526315789474" y="250.3421052631579" type="line"/>
      <point x="566.8684210526316" y="245.05263157894737"/>
      <point x="501.3421052631579" y="244.39473684210526"/>
      <point x="444.4736842105263" y="244.39473684210526" type="curve"/>
      <point x="205.0" y="244.39473684210526" type="line"/>
      <point x="148.1315789473684" y="244.39473684210526"/>
      <point x="82.60526315789474" y="245.05263157894737"/>
      <point x="13.421052631578947" y="250.3421052631579" type="curve"/>
    </contour>
    <contour>
      <point x="93.78947368421052" y="0.0" type="curve"/>
      <point x="233.39473684210526" y="0.0" type="line"/>
      <point x="235.21052631578948" y="68.65789473684211"/>
      <point x="245.89473684210526" y="130.92105263157896"/>
      <point x="261.2631578947369" y="215.57894736842104" type="curve"/>
      <point x="302.36842105263156" y="445.1842105263158" type="line"/>
      <point x="318.07894736842104" y="536.1578947368421"/>
      <point x="329.10526315789474" y="593.1842105263157"/>
      <point x="351.36842105263156" y="666.1578947368421" type="curve"/>
      <point x="213.07894736842104" y="666.1578947368421" type="line"/>
      <point x="209.6052631578947" y="590.5526315789474"/>
      <point x="200.89473684210526" y="534.1842105263158"/>
      <point x="185.18421052631578" y="445.86842105263156" type="curve"/>
      <point x="144.07894736842104" y="215.57894736842104" type="line"/>
      <point x="128.71052631578948" y="129.60526315789474"/>
      <point x="114.71052631578947" y="66.02631578947368"/>
    </contour>
    <contour>
      <point x="63.23684210526316" y="412.81578947368416" type="line"/>
      <point x="132.42105263157896" y="418.10526315789474"/>
      <point x="197.94736842105263" y="418.7631578947368"/>
      <point x="254.81578947368422" y="418.7631578947368" type="curve"/>
      <point x="494.2894736842105" y="418.7631578947368" type="line"/>
      <point x="551.1578947368421" y="418.7631578947368"/>
      <point x="616.6842105263158" y="418.10526315789474"/>
      <point x="685.8684210526316" y="412.81578947368416" type="curve"/>
      <point x="685.8684210526316" y="539.5526315789474" type="line"/>
      <point x="616.6842105263158" y="534.2631578947369"/>
      <point x="551.1578947368421" y="533.6052631578948"/>
      <point x="494.2894736842105" y="533.6052631578948" type="curve"/>
      <point x="254.81578947368422" y="533.6052631578948" type="line"/>
      <point x="197.94736842105263" y="533.6052631578948"/>
      <point x="132.42105263157896" y="534.2631578947369"/>
      <point x="63.23684210526316" y="539.5526315789474" type="curve"/>
    </contour>
    <contour>
      <point x="343.5263157894737" y="0.0" type="curve"/>
      <point x="483.13157894736844" y="0.0" type="line"/>
      <point x="484.9473684210526" y="68.65789473684211"/>
      <point x="495.63157894736844" y="130.92105263157896"/>
      <point x="511.0" y="215.57894736842104" type="curve"/>
      <point x="552.1052631578948" y="445.1842105263158" type="line"/>
      <point x="567.8157894736842" y="536.1578947368421"/>
      <point x="578.8421052631579" y="593.1842105263157"/>
      <point x="601.1052631578948" y="666.1578947368421" type="curve"/>
      <point x="462.8157894736842" y="666.1578947368421" type="line"/>
      <point x="459.3421052631579" y="590.5526315789474"/>
      <point x="450.63157894736844" y="534.1842105263158"/>
      <point x="434.92105263157896" y="445.86842105263156" type="curve"/>
      <point x="393.8157894736842" y="215.57894736842104" type="line"/>
      <point x="378.4473684210526" y="129.60526315789474"/>
      <point x="364.44736842105266" y="66.02631578947368"/>
    </contour>
  </outline>
</glyph>
<glyph name="dollar" format="2">
  <advance width="575.6842105263158"/>
  <unicode hex="0024"/>
  <outline>
    <contour>
      <point x="284.07894736842104" y="-12.947368421052632" type="curve" smooth="yes"/>
      <point x="466.94736842105266" y="-12.947368421052632"/>
      <point x="546.7631578947369" y="69.10526315789474"/>
      <point x="546.7631578947369" y="196.73684210526315" type="curve" smooth="yes"/>
      <point x="546.7631578947369" y="304.4736842105263"/>
      <point x="494.44736842105266" y="354.44736842105266"/>
      <point x="332.42105263157896" y="402.2105263157895" type="curve" smooth="yes"/>
      <point x="248.42105263157896" y="428.13157894736844"/>
      <point x="212.47368421052633" y="445.63157894736844"/>
      <point x="212.47368421052633" y="492.07894736842104" type="curve" smooth="yes"/>
      <point x="212.47368421052633" y="544.0526315789474"/>
      <point x="256.0" y="565.2894736842105"/>
      <point x="311.13157894736844" y="565.9736842105264" type="curve"/>
      <point x="343.5" y="565.9736842105264"/>
      <point x="415.1315789473684" y="547.6578947368421"/>
      <point x="495.7894736842105" y="510.2894736842105" type="curve"/>
      <point x="508.0526315789474" y="655.5" type="line"/>
      <point x="456.7368421052632" y="669.921052631579"/>
      <point x="356.07894736842104" y="698.6315789473684"/>
      <point x="279.2631578947368" y="698.6315789473684" type="curve" smooth="yes"/>
      <point x="116.3157894736842" y="698.6315789473684"/>
      <point x="39.026315789473685" y="614.3947368421053"/>
      <point x="39.026315789473685" y="493.39473684210526" type="curve" smooth="yes"/>
      <point x="39.026315789473685" y="376.9736842105263"/>
      <point x="110.42105263157895" y="329.39473684210526"/>
      <point x="233.89473684210526" y="293.9473684210526" type="curve" smooth="yes"/>
      <point x="318.39473684210526" y="269.07894736842104"/>
      <point x="373.9736842105263" y="248.89473684210526"/>
      <point x="373.9736842105263" y="197.07894736842104" type="curve" smooth="yes"/>
      <point x="373.9736842105263" y="140.31578947368422"/>
      <point x="333.42105263157896" y="117.76315789473685"/>
      <point x="270.92105263157896" y="117.07894736842105" type="curve"/>
      <point x="213.5" y="117.07894736842105"/>
      <point x="130.3157894736842" y="142.05263157894737"/>
      <point x="61.89473684210526" y="174.42105263157896" type="curve"/>
      <point x="49.6578947368421" y="26.23684210526316" type="line"/>
      <point x="100.6578947368421" y="13.473684210526315"/>
      <point x="180.63157894736844" y="-12.947368421052632"/>
    </contour>
    <contour>
      <point x="229.1315789473684" y="-137.0" type="curve"/>
      <point x="360.5" y="-137.0" type="line"/>
      <point x="354.89473684210526" y="-65.60526315789474"/>
      <point x="352.57894736842104" y="-0.5"/>
      <point x="352.57894736842104" y="64.26315789473685" type="curve"/>
      <point x="237.05263157894737" y="64.26315789473685" type="line"/>
      <point x="237.05263157894737" y="-0.5"/>
      <point x="234.73684210526315" y="-65.60526315789474"/>
    </contour>
    <contour>
      <point x="237.05263157894737" y="628.2894736842105" type="curve"/>
      <point x="352.57894736842104" y="628.2894736842105" type="line"/>
      <point x="352.57894736842104" y="684.421052631579"/>
      <point x="355.55263157894734" y="741.8947368421052"/>
      <point x="360.5" y="803.0" type="curve"/>
      <point x="229.1315789473684" y="803.0" type="line"/>
      <point x="234.07894736842104" y="741.8947368421052"/>
      <point x="237.05263157894737" y="684.421052631579"/>
    </contour>
  </outline>
</glyph>
<glyph name="percent" format="2">
  <advance width="945.8421052631579"/>
  <unicode hex="0025"/>
  <outline>
    <contour>
      <point x="176.26315789473682" y="0.0" type="curve"/>
      <point x="338.63157894736844" y="0.0" type="line"/>
      <point x="371.7105263157895" y="73.0"/>
      <point x="409.0263157894737" y="138.6578947368421"/>
      <point x="463.3157894736842" y="229.6578947368421" type="curve"/>
      <point x="610.2105263157895" y="477.0" type="line"/>
      <point x="665.1842105263158" y="570.6842105263158"/>
      <point x="706.4473684210526" y="637.3157894736842"/>
      <point x="761.6578947368421" y="713.0" type="curve"/>
      <point x="600.6052631578947" y="713.0" type="line"/>
      <point x="566.5263157894738" y="637.3157894736842"/>
      <point x="527.2368421052631" y="570.6842105263158"/>
      <point x="472.2631578947368" y="477.0" type="curve"/>
      <point x="325.36842105263156" y="229.6578947368421" type="line"/>
      <point x="271.07894736842104" y="138.6578947368421"/>
      <point x="230.4736842105263" y="73.0"/>
    </contour>
    <contour>
      <point x="226.52631578947367" y="362.2105263157895" type="curve" smooth="yes"/>
      <point x="349.5789473684211" y="362.2105263157895"/>
      <point x="427.5263157894737" y="431.2105263157895"/>
      <point x="427.5263157894737" y="546.0526315789474" type="curve" smooth="yes"/>
      <point x="427.5263157894737" y="649.3421052631579"/>
      <point x="349.5789473684211" y="727.6315789473684"/>
      <point x="227.5263157894737" y="727.6315789473684" type="curve" smooth="yes"/>
      <point x="105.13157894736841" y="727.6315789473684"/>
      <point x="26.842105263157894" y="649.3421052631579"/>
      <point x="26.842105263157894" y="546.0526315789474" type="curve" smooth="yes"/>
      <point x="26.842105263157894" y="431.2105263157895"/>
      <point x="105.13157894736841" y="362.2105263157895"/>
    </contour>
    <contour>
      <point x="227.18421052631578" y="459.0" type="curve"/>
      <point x="177.0" y="462.9736842105263"/>
      <point x="142.05263157894737" y="492.57894736842104"/>
      <point x="142.05263157894737" y="544.078947368421" type="curve" smooth="yes"/>
      <point x="142.05263157894737" y="591.9210526315788"/>
      <point x="175.6842105263158" y="625.5526315789474"/>
      <point x="227.5263157894737" y="630.1842105263158" type="curve"/>
      <point x="279.36842105263156" y="625.5526315789474"/>
      <point x="312.3157894736842" y="590.6052631578947"/>
      <point x="312.3157894736842" y="544.078947368421" type="curve" smooth="yes"/>
      <point x="312.3157894736842" y="492.57894736842104"/>
      <point x="278.7105263157895" y="462.9736842105263"/>
    </contour>
    <contour>
      <point x="711.421052631579" y="-13.605263157894736" type="curve" smooth="yes"/>
      <point x="834.4736842105264" y="-13.605263157894736"/>
      <point x="912.421052631579" y="55.39473684210526"/>
      <point x="912.421052631579" y="170.23684210526315" type="curve" smooth="yes"/>
      <point x="912.421052631579" y="273.5263157894737"/>
      <point x="834.4736842105264" y="351.8157894736842"/>
      <point x="712.421052631579" y="351.8157894736842" type="curve" smooth="yes"/>
      <point x="590.0263157894736" y="351.8157894736842"/>
      <point x="511.7368421052632" y="273.5263157894737"/>
      <point x="511.7368421052632" y="170.23684210526315" type="curve" smooth="yes"/>
      <point x="511.7368421052632" y="55.39473684210526"/>
      <point x="590.0263157894736" y="-13.605263157894736"/>
    </contour>
    <contour>
      <point x="711.421052631579" y="83.1842105263158" type="curve"/>
      <point x="661.2368421052632" y="87.15789473684211"/>
      <point x="626.2894736842105" y="116.76315789473684"/>
      <point x="626.2894736842105" y="168.26315789473685" type="curve" smooth="yes"/>
      <point x="626.2894736842105" y="216.1052631578947"/>
      <point x="659.921052631579" y="249.73684210526315"/>
      <point x="711.7631578947369" y="254.36842105263156" type="curve"/>
      <point x="763.6052631578947" y="249.73684210526315"/>
      <point x="796.5526315789474" y="214.78947368421052"/>
      <point x="796.5526315789474" y="168.26315789473685" type="curve" smooth="yes"/>
      <point x="796.5526315789474" y="116.76315789473684"/>
      <point x="762.9473684210526" y="87.15789473684211"/>
    </contour>
  </outline>
</glyph>
<glyph name="ampersand" format="2">
  <advance width="773.5533980582525"/>
  <unicode hex="0026"/>
  <outline>
    <contour>
      <point x="556.5436893203885" y="0.0" type="curve"/>
      <point x="774.3495145631067" y="0.0" type="line"/>
      <point x="695.7087378640776" y="71.90291262135922"/>
      <point x="628.0194174757281" y="143.80582524271844"/>
      <point x="561.3300970873787" y="215.70873786407768" type="curve"/>
      <point x="352.5533980582524" y="438.75728155339806" type="line" smooth="yes"/>
      <point x="307.93203883495147" y="485.4854368932039"/>
      <point x="288.77669902912623" y="516.9514563106796"/>
      <point x="288.77669902912623" y="554.5242718446602" type="curve" smooth="yes"/>
      <point x="288.77669902912623" y="594.6699029126214"/>
      <point x="315.71844660194176" y="620.5048543689321"/>
      <point x="354.75728155339806" y="623.873786407767" type="curve"/>
      <point x="392.6407766990291" y="620.5048543689321"/>
      <point x="420.8932038834951" y="594.3009708737865"/>
      <point x="420.8932038834951" y="556.9417475728155" type="curve" smooth="yes"/>
      <point x="420.8932038834951" y="513.116504854369"/>
      <point x="374.2233009708738" y="480.1650485436893"/>
      <point x="330.29126213592235" y="449.8543689320388" type="curve"/>
      <point x="400.252427184466" y="369.0" type="line"/>
      <point x="455.61165048543694" y="409.631067961165"/>
      <point x="553.5048543689321" y="475.63106796116506"/>
      <point x="553.5048543689321" y="562.8932038834952" type="curve" smooth="yes"/>
      <point x="553.5048543689321" y="668.0"/>
      <point x="465.7669902912621" y="727.7378640776699"/>
      <point x="346.9126213592233" y="727.7378640776699" type="curve" smooth="yes"/>
      <point x="230.3203883495146" y="727.7378640776699"/>
      <point x="136.20388349514565" y="666.4757281553399"/>
      <point x="136.20388349514565" y="550.9417475728155" type="curve" smooth="yes"/>
      <point x="136.20388349514565" y="483.15533980582524"/>
      <point x="170.62135922330097" y="428.15533980582524"/>
      <point x="224.93203883495144" y="369.36893203883494" type="curve" smooth="yes"/>
      <point x="441.92233009708735" y="136.0" type="line"/>
      <point x="484.4466019417476" y="91.0"/>
      <point x="527.9708737864078" y="44.36893203883495"/>
    </contour>
    <contour>
      <point x="258.83495145631065" y="-12.106796116504855" type="curve" smooth="yes"/>
      <point x="337.5145631067961" y="-12.106796116504855"/>
      <point x="407.03883495145635" y="23.203883495145636"/>
      <point x="476.56310679611653" y="86.66990291262135" type="curve"/>
      <point x="490.6699029126213" y="86.66990291262135" type="line"/>
      <point x="488.1456310679612" y="108.51456310679612" type="line"/>
      <point x="414.2912621359223" y="185.36893203883494" type="line"/>
      <point x="374.7281553398059" y="138.70873786407768"/>
      <point x="319.6893203883496" y="112.0873786407767"/>
      <point x="290.22330097087377" y="112.0873786407767" type="curve"/>
      <point x="224.92233009708738" y="115.0873786407767"/>
      <point x="185.77669902912623" y="153.18446601941747"/>
      <point x="185.77669902912623" y="208.48543689320388" type="curve" smooth="yes"/>
      <point x="185.77669902912623" y="259.7281553398058"/>
      <point x="218.60194174757282" y="300.71844660194176"/>
      <point x="273.5825242718447" y="328.7669902912621" type="curve"/>
      <point x="207.8252427184466" y="415.7864077669903" type="line"/>
      <point x="116.45631067961163" y="375.41747572815535"/>
      <point x="33.88349514563106" y="306.41747572815535"/>
      <point x="33.88349514563106" y="186.63106796116506" type="curve" smooth="yes"/>
      <point x="33.88349514563106" y="73.52427184466019"/>
      <point x="108.99029126213591" y="-12.106796116504855"/>
    </contour>
    <contour>
      <point x="582.3398058252427" y="171.94174757281553" type="line"/>
      <point x="632.9223300970874" y="231.46601941747574"/>
      <point x="683.2427184466019" y="289.7281553398058"/>
      <point x="740.0388349514564" y="343.1456310679612" type="curve"/>
      <point x="599.8349514563106" y="434.28155339805824" type="line"/>
      <point x="571.0485436893205" y="370.65048543689323"/>
      <point x="535.4174757281554" y="314.0194174757282"/>
      <point x="497.5242718446602" y="255.86407766990294" type="curve"/>
    </contour>
  </outline>
</glyph>
<glyph name="parenleft" format="2">
  <advance width="414.6578947368421"/>
  <unicode hex="0028"/>
  <outline>
    <contour>
      <point x="269.8157894736842" y="-133.71052631578948" type="curve"/>
      <point x="394.60526315789474" y="-87.78947368421052" type="line"/>
      <point x="287.7894736842106" y="24.184210526315788"/>
      <point x="202.0" y="142.97368421052633"/>
      <point x="202.0" y="323.3421052631579" type="curve" smooth="yes"/>
      <point x="202.0" y="504.0526315789474"/>
      <point x="287.7894736842106" y="622.5"/>
      <point x="394.60526315789474" y="734.4736842105264" type="curve"/>
      <point x="269.8157894736842" y="780.3947368421053" type="line"/>
      <point x="167.9736842105263" y="686.421052631579"/>
      <point x="43.68421052631579" y="532.7368421052631"/>
      <point x="43.68421052631579" y="323.3421052631579" type="curve" smooth="yes"/>
      <point x="43.68421052631579" y="114.28947368421052"/>
      <point x="167.9736842105263" y="-39.736842105263165"/>
    </contour>
  </outline>
</glyph>
<glyph name="asterisk" format="2">
  <advance width="494.1842105263158"/>
  <unicode hex="002A"/>
  <outline>
    <contour>
      <point x="418.5526315789474" y="351.4473684210526" type="curve"/>
      <point x="473.07894736842104" y="445.2631578947369" type="line"/>
      <point x="401.5" y="475.6842105263158"/>
      <point x="331.89473684210526" y="508.42105263157896"/>
      <point x="262.9736842105263" y="542.1578947368421" type="curve"/>
      <point x="198.97368421052633" y="587.1052631578948"/>
      <point x="136.97368421052633" y="632.7105263157895"/>
      <point x="75.63157894736842" y="680.6315789473684" type="curve"/>
      <point x="21.105263157894733" y="586.8157894736842" type="line"/>
      <point x="92.6842105263158" y="556.3947368421053"/>
      <point x="162.94736842105263" y="523.6578947368421"/>
      <point x="232.21052631578948" y="488.92105263157896" type="curve"/>
      <point x="295.2105263157895" y="444.97368421052636"/>
      <point x="357.2105263157895" y="398.7105263157895"/>
    </contour>
    <contour>
      <point x="76.28947368421052" y="351.4473684210526" type="line"/>
      <point x="136.97368421052633" y="399.3684210526316"/>
      <point x="199.63157894736844" y="444.97368421052636"/>
      <point x="262.9736842105263" y="489.92105263157896" type="curve"/>
      <point x="331.89473684210526" y="523.6578947368421"/>
      <point x="402.1578947368421" y="556.3947368421053"/>
      <point x="473.07894736842104" y="587.4736842105264" type="curve"/>
      <point x="418.5526315789474" y="680.6315789473684" type="line"/>
      <point x="357.2105263157895" y="632.7105263157895"/>
      <point x="295.2105263157895" y="587.1052631578948"/>
      <point x="232.21052631578948" y="542.5" type="curve"/>
      <point x="162.28947368421052" y="508.42105263157896"/>
      <point x="92.6842105263158" y="475.6842105263158"/>
      <point x="21.105263157894733" y="445.2631578947369" type="curve"/>
    </contour>
    <contour>
      <point x="192.57894736842104" y="285.4473684210526" type="curve"/>
      <point x="301.60526315789474" y="285.4473684210526" type="line"/>
      <point x="291.36842105263156" y="362.42105263157896"/>
      <point x="284.10526315789474" y="439.39473684210526"/>
      <point x="277.1842105263158" y="516.7105263157895" type="curve"/>
      <point x="284.10526315789474" y="593.3421052631579"/>
      <point x="291.36842105263156" y="670.3157894736842"/>
      <point x="300.94736842105266" y="747.2894736842105" type="curve"/>
      <point x="192.57894736842104" y="747.2894736842105" type="line"/>
      <point x="202.8157894736842" y="670.3157894736842"/>
      <point x="210.07894736842104" y="593.3421052631579"/>
      <point x="217.0" y="516.7105263157895" type="curve"/>
      <point x="210.07894736842104" y="439.39473684210526"/>
      <point x="202.8157894736842" y="362.42105263157896"/>
    </contour>
  </outline>
</glyph>
<glyph name="plus" format="2">
  <advance width="599.7368421052631"/>
  <unicode hex="002B"/>
  <outline>
    <contour>
      <point x="224.3157894736842" y="51.18421052631579" type="curve"/>
      <point x="375.42105263157896" y="51.18421052631579" type="line"/>
      <point x="370.1315789473684" y="120.36842105263158"/>
      <point x="369.4736842105263" y="185.89473684210526"/>
      <point x="369.4736842105263" y="242.76315789473685" type="curve"/>
      <point x="369.4736842105263" y="365.6578947368421" type="line"/>
      <point x="369.4736842105263" y="422.5263157894737"/>
      <point x="370.1315789473684" y="488.0526315789474"/>
      <point x="375.42105263157896" y="557.2368421052631" type="curve"/>
      <point x="224.3157894736842" y="557.2368421052631" type="line"/>
      <point x="229.6052631578947" y="488.0526315789474"/>
      <point x="230.26315789473682" y="422.5263157894737"/>
      <point x="230.26315789473682" y="365.6578947368421" type="curve"/>
      <point x="230.26315789473682" y="242.76315789473685" type="line"/>
      <point x="230.26315789473682" y="185.89473684210526"/>
      <point x="229.6052631578947" y="120.36842105263158"/>
    </contour>
    <contour>
      <point x="50.26315789473684" y="230.6315789473684" type="line"/>
      <point x="119.44736842105263" y="235.92105263157893"/>
      <point x="184.97368421052633" y="236.57894736842104"/>
      <point x="241.8421052631579" y="236.57894736842104" type="curve"/>
      <point x="357.89473684210526" y="236.57894736842104" type="line"/>
      <point x="414.7631578947368" y="236.57894736842104"/>
      <point x="480.2894736842105" y="235.92105263157893"/>
      <point x="549.4736842105264" y="230.6315789473684" type="curve"/>
      <point x="549.4736842105264" y="377.7894736842106" type="line"/>
      <point x="480.2894736842105" y="372.5"/>
      <point x="414.7631578947368" y="371.8421052631579"/>
      <point x="357.89473684210526" y="371.8421052631579" type="curve"/>
      <point x="241.8421052631579" y="371.8421052631579" type="line"/>
      <point x="184.97368421052633" y="371.8421052631579"/>
      <point x="119.44736842105263" y="372.5"/>
      <point x="50.26315789473684" y="377.7894736842106" type="curve"/>
    </contour>
  </outline>
</glyph>
<glyph name="comma" format="2">
  <advance width="252.1578947368421"/>
  <unicode hex="002C"/>
  <outline>
    <contour>
      <point x="11.44736842105263" y="-157.0" type="curve"/>
      <point x="90.76315789473684" y="-155.3421052631579" type="line"/>
      <point x="133.0" y="-110.28947368421052"/>
      <point x="214.1578947368421" y="-8.13157894736842"/>
      <point x="214.1578947368421" y="72.28947368421052" type="curve" smooth="yes"/>
      <point x="214.1578947368421" y="125.89473684210526"/>
      <point x="190.3421052631579" y="167.23684210526318"/>
      <point x="133.47368421052633" y="174.1578947368421" type="curve"/>
      <point x="48.921052631578945" y="167.89473684210526" type="line"/>
      <point x="59.1578947368421" y="123.5"/>
      <point x="63.44736842105263" y="79.10526315789474"/>
      <point x="63.44736842105263" y="38.65789473684211" type="curve"/>
      <point x="63.44736842105263" y="-22.28947368421052"/>
      <point x="40.57894736842105" y="-98.65789473684211"/>
    </contour>
  </outline>
</glyph>
<glyph name="hyphen" format="2">
  <advance width="426.57894736842104"/>
  <unicode hex="002D"/>
  <outline>
    <contour>
      <point x="50.26315789473684" y="227.3421052631579" type="line"/>
      <point x="109.15789473684211" y="232.6315789473684"/>
      <point x="165.05263157894737" y="233.28947368421052"/>
      <point x="213.28947368421052" y="233.28947368421052" type="curve"/>
      <point x="261.5263157894737" y="233.28947368421052"/>
      <point x="317.42105263157896" y="232.6315789473684"/>
      <point x="376.3157894736842" y="227.3421052631579" type="curve"/>
      <point x="376.3157894736842" y="374.50000000000006" type="line"/>
      <point x="317.42105263157896" y="369.2105263157895"/>
      <point x="261.5263157894737" y="368.5526315789474"/>
      <point x="213.28947368421052" y="368.5526315789474" type="curve"/>
      <point x="165.05263157894737" y="368.5526315789474"/>
      <point x="109.15789473684211" y="369.2105263157895"/>
      <point x="50.26315789473684" y="374.50000000000006" type="curve"/>
    </contour>
  </outline>
</glyph>
<glyph name="period" format="2">
  <advance width="266.9473684210526"/>
  <unicode hex="002E"/>
  <outline>
    <contour>
      <point x="133.31578947368422" y="-13.605263157894736" type="curve" smooth="yes"/>
      <point x="193.55263157894737" y="-13.605263157894736"/>
      <point x="229.63157894736844" y="19.47368421052632"/>
      <point x="229.63157894736844" y="87.6842105263158" type="curve" smooth="yes"/>
      <point x="229.63157894736844" y="141.0263157894737"/>
      <point x="193.55263157894737" y="171.78947368421052"/>
      <point x="133.97368421052633" y="171.78947368421052" type="curve" smooth="yes"/>
      <point x="74.07894736842105" y="171.78947368421052"/>
      <point x="37.6578947368421" y="141.0263157894737"/>
      <point x="37.6578947368421" y="87.6842105263158" type="curve" smooth="yes"/>
      <point x="37.6578947368421" y="19.47368421052632"/>
      <point x="74.07894736842105" y="-13.605263157894736"/>
    </contour>
  </outline>
</glyph>
<glyph name="slash" format="2">
  <advance width="468.92105263157896"/>
  <unicode hex="002F"/>
  <outline>
    <contour>
      <point x="10.368421052631579" y="0.0" type="curve"/>
      <point x="183.55263157894737" y="0.0" type="line"/>
      <point x="202.3947368421053" y="74.0"/>
      <point x="225.1315789473684" y="137.0"/>
      <point x="260.5526315789474" y="228.0" type="curve"/>
      <point x="355.44736842105266" y="474.0" type="line"/>
      <point x="392.8684210526316" y="571.0"/>
      <point x="418.92105263157896" y="636.0"/>
      <point x="458.55263157894734" y="713.0" type="curve"/>
      <point x="286.0263157894737" y="713.0" type="line"/>
      <point x="265.84210526315786" y="636.0"/>
      <point x="242.1052631578947" y="570.3421052631579"/>
      <point x="205.68421052631578" y="476.0" type="curve"/>
      <point x="109.78947368421053" y="228.0" type="line"/>
      <point x="74.36842105263158" y="137.0"/>
      <point x="48.31578947368421" y="74.0"/>
    </contour>
  </outline>
</glyph>
<glyph name="zero" format="2">
  <advance width="666.0263157894736"/>
  <unicode hex="0030"/>
  <outline>
    <contour>
      <point x="335.8421052631579" y="-12.947368421052632" type="curve" smooth="yes"/>
      <point x="530.0526315789474" y="-12.947368421052632"/>
      <point x="624.0526315789474" y="129.28947368421052"/>
      <point x="624.0526315789474" y="344.6578947368421" type="curve" smooth="yes"/>
      <point x="624.0526315789474" y="554.0263157894736"/>
      <point x="534.7105263157895" y="702.578947368421"/>
      <point x="331.86842105263156" y="702.578947368421" type="curve" smooth="yes"/>
      <point x="130.71052631578948" y="702.578947368421"/>
      <point x="41.973684210526315" y="554.7105263157895"/>
      <point x="41.973684210526315" y="344.0" type="curve" smooth="yes"/>
      <point x="41.973684210526315" y="144.23684210526315"/>
      <point x="124.34210526315789" y="-12.947368421052632"/>
    </contour>
    <contour>
      <point x="333.8421052631579" y="121.02631578947368" type="curve"/>
      <point x="243.57894736842107" y="126.65789473684211"/>
      <point x="208.84210526315792" y="215.23684210526318"/>
      <point x="208.84210526315792" y="344.6578947368421" type="curve" smooth="yes"/>
      <point x="208.84210526315792" y="476.0263157894737"/>
      <point x="246.57894736842107" y="562.3157894736842"/>
      <point x="333.8421052631579" y="567.9473684210526" type="curve"/>
      <point x="418.4210526315789" y="562.3157894736842"/>
      <point x="457.8421052631579" y="479.1315789473684"/>
      <point x="457.8421052631579" y="344.6578947368421" type="curve" smooth="yes"/>
      <point x="457.8421052631579" y="216.26315789473685"/>
      <point x="422.7894736842105" y="126.65789473684211"/>
    </contour>
  </outline>
</glyph>
<glyph name="one" format="2">
  <advance width="461.9473684210526"/>
  <unicode hex="0031"/>
  <outline>
    <contour>
      <point x="61.184210526315795" y="425.63157894736844" type="line"/>
      <point x="135.1578947368421" y="472.92105263157896"/>
      <point x="211.76315789473685" y="511.3157894736842"/>
      <point x="289.36842105263156" y="548.7105263157895" type="curve"/>
      <point x="295.2894736842105" y="692.578947368421" type="line"/>
      <point x="203.5" y="648.578947368421"/>
      <point x="111.39473684210526" y="604.921052631579"/>
      <point x="17.289473684210527" y="570.5" type="curve"/>
    </contour>
    <contour>
      <point x="199.0263157894737" y="0.0" type="curve"/>
      <point x="386.0" y="0.0" type="line"/>
      <point x="377.0789473684211" y="71.05263157894737"/>
      <point x="373.13157894736844" y="132.76315789473685"/>
      <point x="373.13157894736844" y="215.73684210526315" type="curve"/>
      <point x="373.13157894736844" y="448.3157894736842" type="line"/>
      <point x="373.13157894736844" y="529.3684210526316"/>
      <point x="376.10526315789474" y="608.7105263157895"/>
      <point x="386.0" y="687.9473684210526" type="curve"/>
      <point x="295.2894736842105" y="692.578947368421" type="line"/>
      <point x="204.6315789473684" y="621.2894736842105" type="line"/>
      <point x="209.89473684210526" y="552.5526315789474"/>
      <point x="211.55263157894737" y="484.4736842105263"/>
      <point x="211.55263157894737" y="416.07894736842104" type="curve"/>
      <point x="211.55263157894737" y="215.73684210526315" type="line"/>
      <point x="211.55263157894737" y="132.76315789473685"/>
      <point x="206.94736842105263" y="71.05263157894737"/>
    </contour>
  </outline>
</glyph>
<glyph name="two" format="2">
  <advance width="570.6315789473684"/>
  <unicode hex="0032"/>
  <outline>
    <contour>
      <point x="42.473684210526315" y="0.0" type="line"/>
      <point x="527.078947368421" y="0.0" type="line"/>
      <point x="527.078947368421" y="153.39473684210526" type="line"/>
      <point x="460.2105263157895" y="139.55263157894737"/>
      <point x="393.0" y="137.89473684210526"/>
      <point x="326.13157894736844" y="137.89473684210526" type="curve"/>
      <point x="203.42105263157896" y="137.89473684210526" type="line"/>
      <point x="223.26315789473685" y="106.86842105263159" type="line"/>
      <point x="320.57894736842104" y="182.63157894736844" type="line"/>
      <point x="455.60526315789474" y="287.5"/>
      <point x="519.2894736842105" y="389.0"/>
      <point x="519.2894736842105" y="494.8421052631579" type="curve" smooth="yes"/>
      <point x="519.2894736842105" y="624.3157894736842"/>
      <point x="435.10526315789474" y="702.578947368421"/>
      <point x="281.13157894736844" y="702.578947368421" type="curve" smooth="yes"/>
      <point x="207.23684210526315" y="702.578947368421"/>
      <point x="98.39473684210526" y="670.1578947368421"/>
      <point x="38.815789473684205" y="650.7894736842105" type="curve"/>
      <point x="52.71052631578947" y="494.7105263157895" type="line"/>
      <point x="129.23684210526315" y="537.7631578947368"/>
      <point x="214.23684210526315" y="566.6315789473684"/>
      <point x="248.23684210526315" y="566.6315789473684" type="curve"/>
      <point x="317.8157894736842" y="564.3157894736843"/>
      <point x="352.7631578947368" y="535.3421052631579"/>
      <point x="352.7631578947368" y="473.4473684210526" type="curve" smooth="yes"/>
      <point x="352.7631578947368" y="387.07894736842104"/>
      <point x="274.5789473684211" y="306.0526315789474"/>
      <point x="150.4736842105263" y="199.60526315789474" type="curve"/>
      <point x="114.36842105263158" y="169.1578947368421"/>
      <point x="78.57894736842105" y="143.31578947368422"/>
      <point x="42.473684210526315" y="119.47368421052632" type="curve"/>
    </contour>
  </outline>
</glyph>
<glyph name="three" format="2">
  <advance width="584.0097087378641"/>
  <unicode hex="0033"/>
  <outline>
    <contour>
      <point x="279.84466019417476" y="-13.475728155339805" type="curve" smooth="yes"/>
      <point x="462.06796116504853" y="-13.475728155339805"/>
      <point x="545.2815533980582" y="71.89320388349513"/>
      <point x="545.2815533980582" y="189.3203883495146" type="curve" smooth="yes"/>
      <point x="545.2815533980582" y="296.1067961165048"/>
      <point x="472.4466019417476" y="347.63106796116506"/>
      <point x="400.81553398058253" y="360.63106796116506" type="curve"/>
      <point x="400.81553398058253" y="372.84466019417476" type="line"/>
      <point x="471.07766990291265" y="387.73786407766994"/>
      <point x="526.8640776699029" y="438.6796116504854"/>
      <point x="526.8640776699029" y="524.6796116504855" type="curve" smooth="yes"/>
      <point x="526.8640776699029" y="633.2621359223301"/>
      <point x="439.126213592233" y="702.8446601941748"/>
      <point x="284.84466019417476" y="702.8446601941748" type="curve" smooth="yes"/>
      <point x="212.63106796116506" y="702.8446601941748"/>
      <point x="106.3106796116505" y="668.7961165048545"/>
      <point x="48.46601941747572" y="649.2718446601942" type="curve"/>
      <point x="62.679611650485434" y="500.33009708737865" type="line"/>
      <point x="138.62135922330094" y="540.6407766990291"/>
      <point x="223.62135922330097" y="566.4854368932039"/>
      <point x="256.99029126213594" y="566.4854368932039" type="curve"/>
      <point x="318.7669902912621" y="564.1165048543689"/>
      <point x="360.54368932038835" y="541.5436893203884"/>
      <point x="360.54368932038835" y="489.50485436893206" type="curve" smooth="yes"/>
      <point x="360.54368932038835" y="439.46601941747576"/>
      <point x="323.02912621359224" y="409.53398058252435"/>
      <point x="236.68932038834953" y="407.16504854368935" type="curve"/>
      <point x="210.73786407766988" y="407.16504854368935"/>
      <point x="185.15533980582524" y="408.16504854368935"/>
      <point x="159.83495145631068" y="413.6407766990291" type="curve"/>
      <point x="159.83495145631068" y="284.87378640776706" type="line"/>
      <point x="188.89320388349515" y="289.3495145631068"/>
      <point x="216.95145631067962" y="290.3495145631068"/>
      <point x="246.64077669902912" y="290.3495145631068" type="curve"/>
      <point x="331.9805825242719" y="287.9805825242718"/>
      <point x="379.33009708737865" y="261.20388349514565"/>
      <point x="379.33009708737865" y="204.59223300970874" type="curve" smooth="yes"/>
      <point x="379.33009708737865" y="156.02912621359224"/>
      <point x="346.07766990291265" y="124.62135922330098"/>
      <point x="262.6796116504854" y="122.25242718446604" type="curve"/>
      <point x="203.52427184466018" y="122.25242718446604"/>
      <point x="118.94174757281553" y="148.99029126213594"/>
      <point x="49.15533980582524" y="182.8834951456311" type="curve"/>
      <point x="35.94174757281554" y="31.83495145631068" type="line"/>
      <point x="88.94174757281554" y="16.679611650485434"/>
      <point x="171.67961165048544" y="-13.475728155339805"/>
    </contour>
  </outline>
</glyph>
<glyph name="four" format="2">
  <advance width="615.1165048543689"/>
  <unicode hex="0034"/>
  <outline>
    <contour>
      <point x="318.55339805825236" y="0.0" type="curve"/>
      <point x="505.6699029126214" y="0.0" type="line"/>
      <point x="493.71844660194176" y="66.47572815533981"/>
      <point x="492.71844660194176" y="122.05825242718447"/>
      <point x="492.71844660194176" y="202.27184466019418" type="curve"/>
      <point x="492.71844660194176" y="447.1067961165048" type="line"/>
      <point x="492.71844660194176" y="526.1067961165049"/>
      <point x="494.0873786407767" y="605.1067961165049"/>
      <point x="505.6699029126214" y="688.1067961165049" type="curve"/>
      <point x="323.02912621359224" y="688.1067961165049" type="line"/>
      <point x="303.34951456310677" y="646.5825242718446"/>
      <point x="273.45631067961165" y="603.4271844660194"/>
      <point x="243.56310679611653" y="561.9029126213593" type="curve"/>
      <point x="161.51456310679612" y="445.33009708737865" type="line"/>
      <point x="119.35922330097088" y="386.54368932038835"/>
      <point x="63.20388349514563" y="307.86407766990294"/>
      <point x="23.679611650485434" y="263.2912621359223" type="curve"/>
      <point x="23.679611650485434" y="143.252427184466" type="line"/>
      <point x="388.20388349514565" y="143.252427184466" type="line"/>
      <point x="447.8932038834951" y="143.252427184466"/>
      <point x="534.4271844660194" y="141.88349514563103"/>
      <point x="588.7475728155339" y="135.03883495145627" type="curve"/>
      <point x="588.7475728155339" y="289.93203883495147" type="line"/>
      <point x="534.4271844660194" y="282.0873786407767"/>
      <point x="447.8932038834951" y="281.0873786407767"/>
      <point x="388.20388349514565" y="281.0873786407767" type="curve"/>
      <point x="372.09708737864077" y="273.70873786407765" type="line"/>
      <point x="150.56310679611653" y="273.70873786407765" type="line"/>
      <point x="162.7766990291262" y="242.4077669902913" type="line"/>
      <point x="186.19417475728156" y="283.56310679611653"/>
      <point x="212.71844660194176" y="324.7184466019417"/>
      <point x="242.24271844660194" y="365.873786407767" type="curve"/>
      <point x="351.7087378640777" y="521.495145631068" type="line"/>
      <point x="385.2330097087379" y="569.2815533980583"/>
      <point x="418.3883495145631" y="612.9611650485438"/>
      <point x="452.9126213592233" y="651.1650485436894" type="curve"/>
      <point x="330.8252427184466" y="619.0873786407767" type="line"/>
      <point x="340.0388349514563" y="550.5631067961165"/>
      <point x="341.40776699029124" y="483.0388349514563"/>
      <point x="341.40776699029124" y="414.5145631067961" type="curve"/>
      <point x="341.40776699029124" y="224.59223300970874" type="line"/>
      <point x="331.504854368932" y="202.27184466019418" type="line"/>
      <point x="331.504854368932" y="122.05825242718447"/>
      <point x="330.504854368932" y="66.47572815533981"/>
    </contour>
  </outline>
</glyph>
<glyph name="five" format="2">
  <advance width="584.1650485436893"/>
  <unicode hex="0035"/>
  <outline>
    <contour>
      <point x="276.47572815533977" y="-13.475728155339805" type="curve" smooth="yes"/>
      <point x="459.06796116504853" y="-13.475728155339805"/>
      <point x="545.4368932038835" y="84.26213592233009"/>
      <point x="545.4368932038835" y="226.52427184466018" type="curve" smooth="yes"/>
      <point x="545.4368932038835" y="370.7281553398058"/>
      <point x="454.75728155339806" y="441.7281553398058"/>
      <point x="341.3398058252427" y="441.7281553398058" type="curve" smooth="yes"/>
      <point x="303.07766990291265" y="441.7281553398058"/>
      <point x="264.242718446602" y="431.20388349514565"/>
      <point x="232.0873786407767" y="416.5728155339806" type="curve"/>
      <point x="219.873786407767" y="416.5728155339806" type="line"/>
      <point x="220.24271844660194" y="451.1456310679612" type="line"/>
      <point x="221.24271844660197" y="500.4563106796117"/>
      <point x="224.98058252427185" y="550.7669902912621"/>
      <point x="232.19417475728156" y="600.7087378640776" type="curve"/>
      <point x="175.81553398058253" y="550.2718446601941" type="line"/>
      <point x="274.70873786407765" y="550.2718446601941" type="line"/>
      <point x="352.6019417475728" y="550.2718446601941"/>
      <point x="432.495145631068" y="549.6407766990291"/>
      <point x="510.75728155339806" y="534.9514563106795" type="curve"/>
      <point x="510.75728155339806" y="688.1067961165049" type="line"/>
      <point x="63.14563106796115" y="688.1067961165049" type="line"/>
      <point x="73.35922330097085" y="605.1553398058252"/>
      <point x="74.72815533980581" y="513.4660194174758"/>
      <point x="74.72815533980581" y="415.77669902912623" type="curve"/>
      <point x="74.72815533980581" y="299.9805825242719" type="line"/>
      <point x="143.96116504854368" y="294.873786407767" type="line"/>
      <point x="181.58252427184465" y="317.97087378640776"/>
      <point x="226.3106796116505" y="326.126213592233"/>
      <point x="260.252427184466" y="326.126213592233" type="curve"/>
      <point x="331.29126213592235" y="323.75728155339806"/>
      <point x="379.11650485436894" y="295.6601941747573"/>
      <point x="379.11650485436894" y="225.58252427184468" type="curve" smooth="yes"/>
      <point x="379.11650485436894" y="159.55339805825244"/>
      <point x="342.0776699029126" y="124.62135922330098"/>
      <point x="260.6796116504854" y="122.25242718446604" type="curve"/>
      <point x="202.52427184466018" y="122.25242718446604"/>
      <point x="118.57281553398057" y="148.99029126213594"/>
      <point x="49.15533980582524" y="182.8834951456311" type="curve"/>
      <point x="35.94174757281554" y="31.83495145631068" type="line"/>
      <point x="88.57281553398059" y="16.679611650485434"/>
      <point x="170.3106796116505" y="-13.475728155339805"/>
    </contour>
  </outline>
</glyph>
<glyph name="seven" format="2">
  <advance width="551.7894736842105"/>
  <unicode hex="0037"/>
  <outline>
    <contour>
      <point x="83.52631578947368" y="0.0" type="curve"/>
      <point x="282.7368421052632" y="0.0" type="line"/>
      <point x="303.2894736842105" y="76.13157894736842"/>
      <point x="331.44736842105266" y="150.6315789473684"/>
      <point x="364.5263157894737" y="226.07894736842104" type="curve"/>
      <point x="421.3421052631579" y="355.63157894736844" type="line"/>
      <point x="455.10526315789474" y="432.7894736842105"/>
      <point x="486.5263157894737" y="501.6315789473684"/>
      <point x="519.9473684210526" y="565.8947368421052" type="curve"/>
      <point x="519.9473684210526" y="687.9473684210526" type="line"/>
      <point x="25.0" y="687.9473684210526" type="line"/>
      <point x="25.0" y="532.578947368421" type="line"/>
      <point x="101.5" y="546.1052631578948"/>
      <point x="177.3421052631579" y="550.0526315789474"/>
      <point x="252.8421052631579" y="550.0526315789474" type="curve"/>
      <point x="380.7894736842105" y="550.0526315789474" type="line"/>
      <point x="338.57894736842104" y="581.7631578947369" type="line"/>
      <point x="325.7631578947368" y="535.0"/>
      <point x="307.0263157894737" y="487.92105263157896"/>
      <point x="285.9736842105263" y="441.1578947368421" type="curve"/>
      <point x="199.76315789473682" y="249.1315789473684" type="line"/>
      <point x="163.3421052631579" y="167.31578947368422"/>
      <point x="124.26315789473684" y="82.5"/>
    </contour>
  </outline>
</glyph>
<glyph name="eight" format="2">
  <advance width="619.6407766990292"/>
  <unicode hex="0038"/>
  <outline>
    <contour>
      <point x="310.3203883495146" y="-13.475728155339805" type="curve" smooth="yes"/>
      <point x="496.0679611650486" y="-13.475728155339805"/>
      <point x="580.9126213592233" y="74.15533980582525"/>
      <point x="580.9126213592233" y="193.73786407766988" type="curve" smooth="yes"/>
      <point x="580.9126213592233" y="301.8932038834952"/>
      <point x="508.70873786407765" y="352.15533980582524"/>
      <point x="443.126213592233" y="366.52427184466023" type="curve"/>
      <point x="443.126213592233" y="378.73786407766994" type="line"/>
      <point x="508.3398058252427" y="394.0"/>
      <point x="562.1262135922331" y="443.52427184466023"/>
      <point x="562.1262135922331" y="524.1553398058252" type="curve" smooth="yes"/>
      <point x="562.1262135922331" y="631.3689320388349"/>
      <point x="468.9126213592233" y="702.8446601941748"/>
      <point x="310.3203883495146" y="702.8446601941748" type="curve" smooth="yes"/>
      <point x="150.72815533980582" y="702.8446601941748"/>
      <point x="57.51456310679611" y="631.3689320388349"/>
      <point x="57.51456310679611" y="524.1553398058252" type="curve" smooth="yes"/>
      <point x="57.51456310679611" y="443.52427184466023"/>
      <point x="111.30097087378638" y="394.0"/>
      <point x="176.51456310679612" y="378.73786407766994" type="curve"/>
      <point x="176.51456310679612" y="366.52427184466023" type="line"/>
      <point x="111.30097087378641" y="352.15533980582524"/>
      <point x="38.728155339805824" y="302.8932038834951"/>
      <point x="38.728155339805824" y="193.73786407766988" type="curve" smooth="yes"/>
      <point x="38.728155339805824" y="74.15533980582525"/>
      <point x="123.57281553398059" y="-13.475728155339805"/>
    </contour>
    <contour>
      <point x="310.3203883495146" y="120.66990291262138" type="curve"/>
      <point x="233.45631067961168" y="124.4077669902913"/>
      <point x="198.8349514563107" y="159.4466019417476"/>
      <point x="198.8349514563107" y="210.90291262135923" type="curve" smooth="yes"/>
      <point x="198.8349514563107" y="269.4077669902913"/>
      <point x="245.55339805825244" y="296.3980582524272"/>
      <point x="309.3203883495146" y="301.13592233009706" type="curve"/>
      <point x="374.0873786407767" y="296.3980582524272"/>
      <point x="420.8058252427184" y="269.4077669902913"/>
      <point x="420.8058252427184" y="210.90291262135923" type="curve" smooth="yes"/>
      <point x="420.8058252427184" y="159.4466019417476"/>
      <point x="386.5533980582524" y="124.4077669902913"/>
    </contour>
    <contour>
      <point x="310.3203883495146" y="415.79611650485435" type="curve"/>
      <point x="250.3980582524272" y="420.9029126213592"/>
      <point x="214.51456310679612" y="449.15533980582524"/>
      <point x="214.51456310679612" y="496.9320388349514" type="curve" smooth="yes"/>
      <point x="214.51456310679612" y="547.4466019417475"/>
      <point x="253.6601941747573" y="570.5436893203884"/>
      <point x="310.3203883495146" y="574.6504854368932" type="curve"/>
      <point x="366.34951456310677" y="570.5436893203884"/>
      <point x="406.49514563106794" y="547.4466019417475"/>
      <point x="406.49514563106794" y="496.9320388349514" type="curve" smooth="yes"/>
      <point x="406.49514563106794" y="449.15533980582524"/>
      <point x="369.6116504854368" y="420.9029126213592"/>
    </contour>
  </outline>
</glyph>
<glyph name="less" format="2">
  <advance width="579.7368421052631"/>
  <unicode hex="003C"/>
  <outline>
    <contour>
      <point x="529.4736842105264" y="44.55263157894736" type="curve"/>
      <point x="529.4736842105264" y="201.9736842105263" type="line"/>
      <point x="471.1842105263158" y="216.8684210526316"/>
      <point x="411.1842105263158" y="239.73684210526318"/>
      <point x="352.2105263157895" y="262.2631578947368" type="curve"/>
      <point x="258.7105263157895" y="297.57894736842104" type="line"/>
      <point x="258.7105263157895" y="310.1578947368421" type="line"/>
      <point x="352.2105263157895" y="345.4736842105263" type="line"/>
      <point x="411.1842105263158" y="368.0"/>
      <point x="471.1842105263158" y="390.86842105263156"/>
      <point x="529.4736842105264" y="405.7631578947368" type="curve"/>
      <point x="529.4736842105264" y="563.1842105263158" type="line"/>
      <point x="460.63157894736844" y="530.2631578947369"/>
      <point x="394.7631578947368" y="504.2631578947369"/>
      <point x="337.5526315789474" y="482.2631578947369" type="curve"/>
      <point x="241.5" y="445.1578947368421" type="line"/>
      <point x="184.97368421052633" y="423.5"/>
      <point x="119.10526315789474" y="398.5"/>
      <point x="50.26315789473684" y="379.10526315789474" type="curve"/>
      <point x="50.26315789473684" y="228.6315789473684" type="line"/>
      <point x="119.10526315789474" y="209.23684210526315"/>
      <point x="184.97368421052633" y="184.23684210526315"/>
      <point x="241.5" y="162.57894736842104" type="curve"/>
      <point x="337.5526315789474" y="125.47368421052632" type="line"/>
      <point x="394.7631578947368" y="103.47368421052632"/>
      <point x="460.63157894736844" y="77.47368421052632"/>
    </contour>
  </outline>
</glyph>
<glyph name="equal" format="2">
  <advance width="579.7368421052631"/>
  <unicode hex="003D"/>
  <outline>
    <contour>
      <point x="56.84210526315789" y="109.18421052631578" type="line"/>
      <point x="126.02631578947368" y="114.4736842105263"/>
      <point x="191.55263157894737" y="115.13157894736841"/>
      <point x="248.42105263157896" y="115.13157894736841" type="curve"/>
      <point x="331.3157894736842" y="115.13157894736841" type="line"/>
      <point x="388.1842105263158" y="115.13157894736841"/>
      <point x="453.7105263157895" y="114.4736842105263"/>
      <point x="522.8947368421053" y="109.18421052631578" type="curve"/>
      <point x="522.8947368421053" y="256.3421052631579" type="line"/>
      <point x="453.7105263157895" y="251.05263157894737"/>
      <point x="388.1842105263158" y="250.39473684210526"/>
      <point x="331.3157894736842" y="250.39473684210526" type="curve"/>
      <point x="248.42105263157896" y="250.39473684210526" type="line"/>
      <point x="191.55263157894737" y="250.39473684210526"/>
      <point x="126.02631578947368" y="251.05263157894737"/>
      <point x="56.84210526315789" y="256.3421052631579" type="curve"/>
    </contour>
    <contour>
      <point x="56.84210526315789" y="352.07894736842104" type="line"/>
      <point x="126.02631578947368" y="357.3684210526316"/>
      <point x="191.55263157894737" y="358.0263157894737"/>
      <point x="248.42105263157896" y="358.0263157894737" type="curve"/>
      <point x="331.3157894736842" y="358.0263157894737" type="line"/>
      <point x="388.1842105263158" y="358.0263157894737"/>
      <point x="453.7105263157895" y="357.3684210526316"/>
      <point x="522.8947368421053" y="352.07894736842104" type="curve"/>
      <point x="522.8947368421053" y="499.2368421052632" type="line"/>
      <point x="453.7105263157895" y="493.9473684210526"/>
      <point x="388.1842105263158" y="493.2894736842105"/>
      <point x="331.3157894736842" y="493.2894736842105" type="curve"/>
      <point x="248.42105263157896" y="493.2894736842105" type="line"/>
      <point x="191.55263157894737" y="493.2894736842105"/>
      <point x="126.02631578947368" y="493.9473684210526"/>
      <point x="56.84210526315789" y="499.2368421052632" type="curve"/>
    </contour>
  </outline>
</glyph>
<glyph name="greater" format="2">
  <advance width="579.7368421052631"/>
  <unicode hex="003E"/>
  <outline>
    <contour>
      <point x="50.26315789473684" y="44.55263157894736" type="line"/>
      <point x="119.10526315789474" y="77.47368421052632"/>
      <point x="184.97368421052633" y="103.47368421052632"/>
      <point x="242.18421052631578" y="125.47368421052632" type="curve"/>
      <point x="338.2368421052632" y="162.57894736842104" type="line"/>
      <point x="394.7631578947368" y="184.23684210526315"/>
      <point x="460.63157894736844" y="209.23684210526315"/>
      <point x="529.4736842105264" y="228.6315789473684" type="curve"/>
      <point x="529.4736842105264" y="379.10526315789474" type="line"/>
      <point x="460.63157894736844" y="398.5"/>
      <point x="394.7631578947368" y="423.5"/>
      <point x="338.2368421052632" y="445.1578947368421" type="curve"/>
      <point x="242.18421052631578" y="482.2631578947369" type="line"/>
      <point x="184.97368421052633" y="504.2631578947369"/>
      <point x="119.10526315789474" y="530.2631578947369"/>
      <point x="50.26315789473684" y="563.1842105263158" type="curve"/>
      <point x="50.26315789473684" y="405.7631578947368" type="line"/>
      <point x="108.55263157894737" y="390.86842105263156"/>
      <point x="168.55263157894737" y="368.0"/>
      <point x="227.52631578947367" y="345.4736842105263" type="curve"/>
      <point x="321.02631578947364" y="310.1578947368421" type="line"/>
      <point x="321.02631578947364" y="297.57894736842104" type="line"/>
      <point x="227.52631578947367" y="262.2631578947368" type="line"/>
      <point x="168.55263157894737" y="239.73684210526318"/>
      <point x="108.55263157894737" y="216.8684210526316"/>
      <point x="50.26315789473684" y="201.9736842105263" type="curve"/>
    </contour>
  </outline>
</glyph>
<glyph name="at" format="2">
  <advance width="892.7631578947369"/>
  <unicode hex="0040"/>
  <outline>
    <contour>
      <point x="476.57894736842104" y="-145.0263157894737" type="curve" smooth="yes"/>
      <point x="561.8947368421052" y="-145.0263157894737"/>
      <point x="676.2631578947369" y="-112.26315789473685"/>
      <point x="759.8947368421053" y="-78.23684210526316" type="curve"/>
      <point x="759.8947368421053" y="26.868421052631582" type="line"/>
      <point x="650.3421052631578" y="-27.39473684210526"/>
      <point x="537.0526315789473" y="-51.1578947368421"/>
      <point x="476.57894736842104" y="-55.473684210526315" type="curve"/>
      <point x="213.26315789473685" y="-51.1578947368421"/>
      <point x="94.47368421052632" y="118.3157894736842"/>
      <point x="142.10526315789474" y="336.2894736842105" type="curve" smooth="yes"/>
      <point x="178.21052631578948" y="502.86842105263156"/>
      <point x="291.0" y="603.6315789473684"/>
      <point x="471.57894736842104" y="607.9473684210526" type="curve"/>
      <point x="674.2105263157895" y="603.6315789473684"/>
      <point x="791.6842105263158" y="473.42105263157896"/>
      <point x="752.0" y="273.6578947368421" type="curve" smooth="yes"/>
      <point x="739.2894736842105" y="209.44736842105263"/>
      <point x="687.9736842105264" y="161.42105263157896"/>
      <point x="651.1315789473684" y="158.78947368421052" type="curve"/>
      <point x="609.921052631579" y="162.10526315789474"/>
      <point x="596.7894736842105" y="194.73684210526315"/>
      <point x="607.8157894736842" y="247.23684210526318" type="curve"/>
      <point x="623.2368421052631" y="321.0" type="line"/>
      <point x="636.8947368421053" y="376.07894736842104"/>
      <point x="652.8684210526316" y="431.7894736842105"/>
      <point x="674.5000000000001" y="485.89473684210526" type="curve"/>
      <point x="552.0526315789474" y="479.60526315789474" type="line"/>
      <point x="535.3947368421052" y="427.89473684210526" type="line"/>
      <point x="525.1315789473684" y="427.89473684210526" type="line"/>
      <point x="500.0526315789474" y="467.4736842105263"/>
      <point x="452.2368421052632" y="491.2368421052632"/>
      <point x="412.07894736842104" y="491.2368421052632" type="curve" smooth="yes"/>
      <point x="319.39473684210526" y="491.2368421052632"/>
      <point x="253.94736842105263" y="411.05263157894734"/>
      <point x="233.23684210526315" y="309.2105263157895" type="curve" smooth="yes"/>
      <point x="207.57894736842104" y="182.6578947368421"/>
      <point x="261.4736842105263" y="69.05263157894737"/>
      <point x="373.2631578947368" y="69.05263157894737" type="curve" smooth="yes"/>
      <point x="407.39473684210526" y="69.05263157894737"/>
      <point x="454.7368421052632" y="92.36842105263159"/>
      <point x="492.1842105263158" y="135.07894736842107" type="curve"/>
      <point x="501.7894736842105" y="135.07894736842107" type="line"/>
      <point x="520.2894736842105" y="94.13157894736841"/>
      <point x="571.2894736842105" y="60.368421052631575"/>
      <point x="649.578947368421" y="60.368421052631575" type="curve" smooth="yes"/>
      <point x="703.1578947368421" y="60.368421052631575"/>
      <point x="820.5526315789474" y="123.84210526315788"/>
      <point x="846.4736842105264" y="254.5" type="curve" smooth="yes"/>
      <point x="894.7368421052631" y="499.2631578947368"/>
      <point x="732.9473684210526" y="697.5"/>
      <point x="473.2368421052632" y="697.5" type="curve" smooth="yes"/>
      <point x="277.9736842105263" y="697.5"/>
      <point x="97.55263157894737" y="592.5526315789474"/>
      <point x="47.94736842105263" y="356.7368421052632" type="curve" smooth="yes"/>
      <point x="-8.263157894736842" y="91.21052631578948"/>
      <point x="151.18421052631578" y="-145.0263157894737"/>
    </contour>
    <contour>
      <point x="410.8157894736842" y="178.6578947368421" type="curve"/>
      <point x="362.44736842105266" y="180.6578947368421"/>
      <point x="342.5526315789474" y="230.10526315789474"/>
      <point x="354.36842105263156" y="287.13157894736844" type="curve" smooth="yes"/>
      <point x="365.4736842105263" y="339.9473684210526"/>
      <point x="396.10526315789474" y="376.65789473684214"/>
      <point x="443.6842105263158" y="379.3157894736842" type="curve"/>
      <point x="469.6842105263158" y="378.3421052631579"/>
      <point x="490.7105263157895" y="365.4736842105263"/>
      <point x="505.65789473684214" y="348.86842105263156" type="curve"/>
      <point x="478.7894736842105" y="223.60526315789474" type="line"/>
      <point x="458.10526315789474" y="193.1578947368421"/>
      <point x="433.7368421052632" y="180.6578947368421"/>
    </contour>
  </outline>
</glyph>
<glyph name="A" format="2">
  <advance width="723.921052631579"/>
  <unicode hex="0041"/>
  <anchor x="362.2894736842105" y="0.0" name="bottom"/>
  <anchor x="712.6315789473684" y="0.0" name="ogonek"/>
  <anchor x="362.2894736842105" y="713.0" name="top"/>
  <outline>
    <contour>
      <point x="7.973684210526314" y="0.0" type="curve"/>
      <point x="210.50000000000003" y="0.0" type="line"/>
      <point x="221.78947368421052" y="74.21052631578948"/>
      <point x="239.0526315789474" y="157.39473684210526"/>
      <point x="259.89473684210526" y="230.92105263157896" type="curve"/>
      <point x="355.3684210526316" y="567.1315789473684" type="line"/>
      <point x="367.94736842105266" y="567.1315789473684" type="line"/>
      <point x="462.42105263157896" y="227.26315789473682" type="line"/>
      <point x="481.92105263157896" y="157.07894736842104"/>
      <point x="501.4736842105263" y="75.18421052631578"/>
      <point x="511.1052631578947" y="0.0" type="curve"/>
      <point x="716.921052631579" y="0.0" type="line"/>
      <point x="683.921052631579" y="76.0"/>
      <point x="651.578947368421" y="162.0"/>
      <point x="626.1842105263157" y="241.0" type="curve"/>
      <point x="547.3157894736842" y="486.3421052631579" type="line"/>
      <point x="519.2368421052631" y="573.0263157894736"/>
      <point x="502.1315789473684" y="638.3684210526316"/>
      <point x="489.3157894736842" y="713.0" type="curve"/>
      <point x="237.94736842105263" y="713.0" type="line"/>
      <point x="225.4473684210526" y="641.0"/>
      <point x="207.68421052631578" y="575.0"/>
      <point x="178.94736842105263" y="486.3421052631579" type="curve"/>
      <point x="99.73684210526315" y="241.3421052631579" type="line"/>
      <point x="74.99999999999999" y="165.0"/>
      <point x="42.28947368421053" y="76.34210526315789"/>
    </contour>
    <contour>
      <point x="197.5263157894737" y="145.76315789473682" type="line"/>
      <point x="545.1578947368421" y="145.76315789473682" type="line"/>
      <point x="530.0263157894736" y="274.44736842105266" type="line"/>
      <point x="215.94736842105266" y="274.44736842105266" type="line"/>
    </contour>
  </outline>
</glyph>
<glyph name="D" format="2">
  <advance width="736.3684210526316"/>
  <unicode hex="0044"/>
  <anchor x="353.2894736842105" y="0.0" name="bottom"/>
  <anchor x="368.6842105263158" y="357.0" name="center"/>
  <anchor x="353.2894736842105" y="713.0" name="top"/>
  <outline>
    <contour>
      <point x="58.0" y="0.0" type="curve"/>
      <point x="138.28947368421052" y="0.0"/>
      <point x="218.89473684210526" y="-6.2631578947368425"/>
      <point x="320.92105263157896" y="-6.2631578947368425" type="curve"/>
      <point x="600.7105263157895" y="-6.2631578947368425"/>
      <point x="700.0526315789474" y="157.02631578947367"/>
      <point x="700.0526315789474" y="358.6842105263158" type="curve" smooth="yes"/>
      <point x="700.0526315789474" y="584.6052631578947"/>
      <point x="575.078947368421" y="717.9473684210526"/>
      <point x="358.3421052631579" y="717.9473684210526" type="curve"/>
      <point x="251.1315789473684" y="717.9473684210526"/>
      <point x="145.1052631578947" y="713.0"/>
      <point x="58.0" y="713.0" type="curve"/>
      <point x="66.57894736842105" y="634.6315789473684"/>
      <point x="71.18421052631578" y="566.6052631578947"/>
      <point x="71.18421052631578" y="474.3421052631579" type="curve"/>
      <point x="71.18421052631578" y="232.07894736842104" type="line"/>
      <point x="71.18421052631578" y="142.44736842105263"/>
      <point x="66.57894736842105" y="76.39473684210526"/>
    </contour>
    <contour>
      <point x="247.94736842105263" y="137.57894736842104" type="line"/>
      <point x="245.28947368421052" y="178.60526315789474"/>
      <point x="243.9736842105263" y="219.89473684210526"/>
      <point x="243.9736842105263" y="274.1842105263158" type="curve"/>
      <point x="243.9736842105263" y="433.55263157894734" type="line"/>
      <point x="243.9736842105263" y="490.4736842105263"/>
      <point x="245.28947368421052" y="532.421052631579"/>
      <point x="247.94736842105263" y="575.421052631579" type="curve"/>
      <point x="328.34210526315786" y="575.421052631579" type="line"/>
      <point x="470.7631578947368" y="570.4473684210526"/>
      <point x="520.3421052631579" y="489.5526315789474"/>
      <point x="520.3421052631579" y="361.0" type="curve" smooth="yes"/>
      <point x="520.3421052631579" y="232.8684210526316"/>
      <point x="476.84210526315786" y="143.21052631578945"/>
      <point x="320.60526315789474" y="137.57894736842104" type="curve"/>
    </contour>
  </outline>
</glyph>
<glyph name="G" format="2">
  <advance width="727.1315789473684"/>
  <unicode hex="0047"/>
  <anchor x="395.7368421052632" y="0.0" name="bottom"/>
  <anchor x="395.7368421052632" y="713.0" name="top"/>
  <outline>
    <contour>
      <point x="421.5263157894737" y="-12.947368421052632" type="curve" smooth="yes"/>
      <point x="516.7894736842105" y="-12.947368421052632"/>
      <point x="626.7894736842105" y="8.421052631578947"/>
      <point x="679.7368421052631" y="20.526315789473685" type="curve"/>
      <point x="651.3684210526316" y="177.28947368421052" type="line"/>
      <point x="583.078947368421" y="139.97368421052633"/>
      <point x="519.4736842105264" y="124.65789473684211"/>
      <point x="436.6578947368421" y="124.65789473684211" type="curve"/>
      <point x="285.1578947368421" y="128.31578947368422"/>
      <point x="214.71052631578948" y="229.21052631578948"/>
      <point x="214.71052631578948" y="355.7105263157895" type="curve" smooth="yes"/>
      <point x="214.71052631578948" y="503.4473684210526"/>
      <point x="306.1842105263158" y="578.4736842105262"/>
      <point x="401.42105263157896" y="581.4736842105262" type="curve"/>
      <point x="443.7368421052632" y="581.4736842105262"/>
      <point x="531.7368421052631" y="562.1578947368421"/>
      <point x="647.8947368421053" y="513.2105263157895" type="curve"/>
      <point x="660.7894736842105" y="675.5526315789474" type="line"/>
      <point x="596.5" y="696.921052631579"/>
      <point x="497.8421052631579" y="727.6315789473684"/>
      <point x="402.7368421052631" y="727.6315789473684" type="curve" smooth="yes"/>
      <point x="175.68421052631578" y="727.6315789473684"/>
      <point x="36.315789473684205" y="574.6315789473684"/>
      <point x="36.315789473684205" y="356.36842105263156" type="curve" smooth="yes"/>
      <point x="36.315789473684205" y="141.1578947368421"/>
      <point x="176.4736842105263" y="-12.947368421052632"/>
    </contour>
    <contour>
      <point x="503.60526315789474" y="20.526315789473685" type="curve"/>
      <point x="679.7368421052631" y="20.526315789473685" type="line"/>
      <point x="673.1315789473683" y="94.76315789473684"/>
      <point x="671.8157894736842" y="148.02631578947367"/>
      <point x="671.8157894736842" y="204.60526315789474" type="curve"/>
      <point x="671.8157894736842" y="270.5263157894737"/>
      <point x="675.7631578947368" y="317.13157894736844"/>
      <point x="685.0" y="370.0526315789474" type="curve"/>
      <point x="496.6842105263158" y="370.0526315789474" type="line"/>
      <point x="505.2631578947368" y="317.13157894736844"/>
      <point x="510.2105263157895" y="270.5263157894737"/>
      <point x="510.2105263157895" y="204.60526315789474" type="curve"/>
      <point x="510.2105263157895" y="148.02631578947367"/>
      <point x="508.2368421052632" y="94.76315789473684"/>
    </contour>
  </outline>
</glyph>
<glyph name="H" format="2">
  <advance width="757.2368421052631"/>
  <unicode hex="0048"/>
  <anchor x="378.9473684210526" y="0.0" name="bottom"/>
  <anchor x="378.9473684210526" y="357.0" name="center"/>
  <anchor x="378.9473684210526" y="713.0" name="top"/>
  <anchor x="40.60526315789474" y="713.0" name="topleft"/>
  <outline>
    <contour>
      <point x="499.7368421052632" y="0.0" type="curve"/>
      <point x="699.2368421052631" y="0.0" type="line"/>
      <point x="689.6578947368421" y="76.39473684210526"/>
      <point x="685.7105263157895" y="142.44736842105263"/>
      <point x="685.7105263157895" y="232.07894736842104" type="curve"/>
      <point x="685.7105263157895" y="474.3421052631579" type="line"/>
      <point x="685.7105263157895" y="566.6052631578947"/>
      <point x="689.6578947368421" y="634.6315789473684"/>
      <point x="699.2368421052631" y="713.0" type="curve"/>
      <point x="499.7368421052632" y="713.0" type="line"/>
      <point x="508.3157894736842" y="634.6315789473684"/>
      <point x="512.921052631579" y="566.6052631578947"/>
      <point x="512.921052631579" y="474.3421052631579" type="curve"/>
      <point x="512.921052631579" y="232.07894736842104" type="line"/>
      <point x="512.921052631579" y="142.44736842105263"/>
      <point x="508.3157894736842" y="76.39473684210526"/>
    </contour>
    <contour>
      <point x="58.0" y="0.0" type="curve"/>
      <point x="257.5" y="0.0" type="line"/>
      <point x="247.92105263157893" y="76.39473684210526"/>
      <point x="243.9736842105263" y="142.44736842105263"/>
      <point x="243.9736842105263" y="232.07894736842104" type="curve"/>
      <point x="243.9736842105263" y="474.3421052631579" type="line"/>
      <point x="243.9736842105263" y="566.6052631578947"/>
      <point x="247.92105263157893" y="634.6315789473684"/>
      <point x="257.5" y="713.0" type="curve"/>
      <point x="58.0" y="713.0" type="line"/>
      <point x="66.57894736842105" y="634.6315789473684"/>
      <point x="71.18421052631578" y="566.6052631578947"/>
      <point x="71.18421052631578" y="474.3421052631579" type="curve"/>
      <point x="71.18421052631578" y="232.07894736842104" type="line"/>
      <point x="71.18421052631578" y="142.44736842105263"/>
      <point x="66.57894736842105" y="76.39473684210526"/>
    </contour>
    <contour>
      <point x="196.6578947368421" y="287.13157894736844" type="line"/>
      <point x="561.921052631579" y="287.13157894736844" type="line"/>
      <point x="561.921052631579" y="430.63157894736844" type="line"/>
      <point x="196.6578947368421" y="430.63157894736844" type="line"/>
    </contour>
  </outline>
</glyph>
<glyph name="I" format="2">
  <advance width="325.36842105263156"/>
  <unicode hex="0049"/>
  <anchor x="159.55263157894737" y="0.0" name="bottom"/>
  <anchor x="260.7894736842105" y="0.0" name="ogonek"/>
  <anchor x="159.55263157894737" y="713.0" name="top"/>
  <anchor x="33.05263157894737" y="713.0" name="topleft"/>
  <outline>
    <contour>
      <point x="61.28947368421052" y="0.0" type="curve"/>
      <point x="264.07894736842104" y="0.0" type="line"/>
      <point x="254.5" y="76.39473684210526"/>
      <point x="250.55263157894737" y="142.44736842105263"/>
      <point x="250.55263157894737" y="232.07894736842104" type="curve"/>
      <point x="250.55263157894737" y="474.3421052631579" type="line"/>
      <point x="250.55263157894737" y="566.6052631578947"/>
      <point x="254.5" y="634.6315789473684"/>
      <point x="264.07894736842104" y="713.0" type="curve"/>
      <point x="61.28947368421052" y="713.0" type="line"/>
      <point x="69.86842105263158" y="634.6315789473684"/>
      <point x="74.4736842105263" y="566.6052631578947"/>
      <point x="74.4736842105263" y="474.3421052631579" type="curve"/>
      <point x="74.4736842105263" y="232.07894736842104" type="line"/>
      <point x="74.4736842105263" y="142.44736842105263"/>
      <point x="69.86842105263158" y="76.39473684210526"/>
    </contour>
  </outline>
</glyph>
<glyph name="J" format="2">
  <advance width="327.57894736842104"/>
  <unicode hex="004A"/>
  <anchor x="164.05263157894737" y="0.0" name="bottom"/>
  <anchor x="164.05263157894737" y="713.0" name="top"/>
  <outline>
    <contour>
      <point x="2.973684210526314" y="-154.73684210526315" type="curve"/>
      <point x="173.6842105263158" y="-154.73684210526315" type="line"/>
      <point x="211.0" y="-108.42105263157895"/>
      <point x="262.3157894736842" y="-35.73684210526316"/>
      <point x="262.3157894736842" y="71.13157894736842" type="curve" smooth="yes"/>
      <point x="262.3157894736842" y="153.23684210526315"/>
      <point x="252.76315789473685" y="241.3421052631579"/>
      <point x="252.76315789473685" y="333.4736842105263" type="curve"/>
      <point x="252.76315789473685" y="474.3421052631579" type="line"/>
      <point x="252.76315789473685" y="566.6052631578947"/>
      <point x="256.7105263157895" y="634.6315789473684"/>
      <point x="266.2894736842105" y="713.0" type="curve"/>
      <point x="66.78947368421052" y="713.0" type="line"/>
      <point x="75.36842105263158" y="634.6315789473684"/>
      <point x="79.97368421052632" y="566.6052631578947"/>
      <point x="79.97368421052632" y="474.3421052631579" type="curve"/>
      <point x="79.97368421052632" y="322.86842105263156" type="line"/>
      <point x="79.63157894736841" y="80.05263157894737" type="line"/>
      <point x="79.63157894736842" y="-8.71052631578947"/>
      <point x="53.39473684210526" y="-84.52631578947368"/>
    </contour>
  </outline>
</glyph>
<glyph name="K" format="2">
  <advance width="704.2368421052631"/>
  <unicode hex="004B"/>
  <anchor x="360.9473684210526" y="0.0" name="bottom"/>
  <anchor x="360.9473684210526" y="713.0" name="top"/>
  <outline>
    <contour>
      <point x="465.60526315789474" y="0.0" type="curve"/>
      <point x="700.2105263157895" y="0.0" type="line"/>
      <point x="644.0526315789474" y="63.60526315789473"/>
      <point x="563.3947368421052" y="172.39473684210526"/>
      <point x="505.7894736842105" y="252.92105263157896" type="curve"/>
      <point x="381.2105263157895" y="427.94736842105266" type="line"/>
      <point x="384.5" y="352.10526315789474" type="line"/>
      <point x="496.3421052631579" y="491.7105263157895" type="line"/>
      <point x="555.9473684210526" y="566.0"/>
      <point x="614.8947368421052" y="638.9736842105262"/>
      <point x="685.4473684210527" y="713.0" type="curve"/>
      <point x="459.7368421052631" y="713.0" type="line"/>
      <point x="422.07894736842104" y="645.5"/>
      <point x="390.6842105263158" y="598.3947368421053"/>
      <point x="351.9473684210526" y="546.921052631579" type="curve"/>
      <point x="270.07894736842104" y="438.2631578947369" type="line"/>
      <point x="230.05263157894737" y="438.2631578947369" type="line"/>
      <point x="230.05263157894737" y="303.3157894736842" type="line"/>
      <point x="272.36842105263156" y="303.3157894736842" type="line"/>
      <point x="363.4473684210526" y="169.68421052631578" type="line"/>
      <point x="398.8684210526316" y="118.23684210526316"/>
      <point x="433.2894736842105" y="65.44736842105263"/>
    </contour>
    <contour>
      <point x="58.0" y="0.0" type="curve"/>
      <point x="256.8421052631579" y="0.0" type="line"/>
      <point x="247.26315789473685" y="76.39473684210526"/>
      <point x="243.31578947368422" y="142.44736842105263"/>
      <point x="243.31578947368422" y="232.07894736842104" type="curve"/>
      <point x="243.31578947368422" y="474.3421052631579" type="line"/>
      <point x="243.31578947368422" y="566.6052631578947"/>
      <point x="247.26315789473685" y="634.6315789473684"/>
      <point x="256.8421052631579" y="713.0" type="curve"/>
      <point x="58.0" y="713.0" type="line"/>
      <point x="66.57894736842105" y="634.6315789473684"/>
      <point x="71.18421052631578" y="566.6052631578947"/>
      <point x="71.18421052631578" y="474.3421052631579" type="curve"/>
      <point x="71.18421052631578" y="232.07894736842104" type="line"/>
      <point x="71.18421052631578" y="142.44736842105263"/>
      <point x="66.57894736842105" y="76.39473684210526"/>
    </contour>
  </outline>
</glyph>
<glyph name="L" format="2">
  <advance width="574.5526315789474"/>
  <unicode hex="004C"/>
  <anchor x="305.1842105263158" y="0.0" name="bottom"/>
  <anchor x="440.2894736842105" y="358.9736842105263" name="center"/>
  <anchor x="231.3421052631579" y="713.0" name="top"/>
  <anchor x="306.1578947368421" y="499.2631578947368" name="topright"/>
  <outline>
    <contour>
      <point x="58.0" y="0.0" type="curve"/>
      <point x="257.5" y="0.0" type="line"/>
      <point x="257.5" y="27.68421052631579" type="line"/>
      <point x="247.92105263157893" y="104.07894736842105"/>
      <point x="243.9736842105263" y="170.1315789473684"/>
      <point x="243.9736842105263" y="259.7631578947368" type="curve"/>
      <point x="243.9736842105263" y="474.3421052631579" type="line"/>
      <point x="243.9736842105263" y="566.6052631578947"/>
      <point x="247.92105263157893" y="634.6315789473684"/>
      <point x="257.5" y="713.0" type="curve"/>
      <point x="58.0" y="713.0" type="line"/>
      <point x="66.57894736842105" y="634.6315789473684"/>
      <point x="71.18421052631578" y="566.6052631578947"/>
      <point x="71.18421052631578" y="474.3421052631579" type="curve"/>
      <point x="71.18421052631578" y="232.07894736842104" type="line"/>
      <point x="71.18421052631578" y="142.44736842105263"/>
      <point x="66.57894736842105" y="76.39473684210526"/>
    </contour>
    <contour>
      <point x="220.86842105263156" y="0.0" type="line"/>
      <point x="545.7631578947369" y="0.0" type="line"/>
      <point x="545.7631578947369" y="167.89473684210526" type="line"/>
      <point x="476.2368421052632" y="155.68421052631578"/>
      <point x="417.07894736842104" y="150.07894736842104"/>
      <point x="315.13157894736844" y="150.07894736842104" type="curve"/>
      <point x="220.86842105263156" y="150.07894736842104" type="line"/>
    </contour>
  </outline>
</glyph>
<glyph name="M" format="2">
  <advance width="963.8157894736843"/>
  <unicode hex="004D"/>
  <anchor x="481.57894736842104" y="0.0" name="bottom"/>
  <anchor x="481.57894736842104" y="713.0" name="top"/>
  <outline>
    <contour>
      <point x="35.868421052631575" y="0.0" type="curve"/>
      <point x="226.1842105263158" y="0.0" type="line"/>
      <point x="225.39473684210526" y="97.0"/>
      <point x="230.21052631578948" y="184.94736842105263"/>
      <point x="239.60526315789474" y="261.13157894736844" type="curve"/>
      <point x="259.7368421052632" y="425.57894736842104" type="line"/>
      <point x="271.2894736842105" y="425.57894736842104" type="line"/>
      <point x="337.57894736842104" y="248.3421052631579" type="line"/>
      <point x="368.5263157894737" y="166.10526315789474"/>
      <point x="395.9473684210526" y="73.73684210526315"/>
      <point x="415.2631578947368" y="0.0" type="curve"/>
      <point x="555.4736842105264" y="0.0" type="line"/>
      <point x="574.8157894736842" y="75.8157894736842"/>
      <point x="599.8947368421052" y="164.10526315789474"/>
      <point x="628.2368421052631" y="249.02631578947367" type="curve"/>
      <point x="687.2894736842105" y="425.57894736842104" type="line"/>
      <point x="698.8421052631578" y="425.57894736842104" type="line"/>
      <point x="718.9736842105262" y="261.13157894736844" type="line"/>
      <point x="728.3684210526316" y="184.94736842105263"/>
      <point x="732.8421052631579" y="96.34210526315789"/>
      <point x="732.7105263157895" y="0.0" type="curve"/>
      <point x="927.9473684210527" y="0.0" type="line"/>
      <point x="910.0263157894738" y="75.73684210526315"/>
      <point x="896.421052631579" y="145.42105263157896"/>
      <point x="885.7631578947368" y="232.07894736842104" type="curve"/>
      <point x="855.1315789473683" y="472.3421052631579" type="line"/>
      <point x="844.1315789473683" y="559.0263157894738"/>
      <point x="838.1052631578947" y="633.6315789473684"/>
      <point x="835.3684210526316" y="713.0" type="curve"/>
      <point x="637.8157894736842" y="713.0" type="line"/>
      <point x="618.4736842105262" y="630.8684210526316"/>
      <point x="596.5" y="562.0"/>
      <point x="569.578947368421" y="491.1578947368421" type="curve"/>
      <point x="490.5" y="280.0" type="line"/>
      <point x="479.2631578947369" y="280.0" type="line"/>
      <point x="396.89473684210526" y="491.1578947368421" type="line"/>
      <point x="369.3157894736842" y="562.0"/>
      <point x="345.3684210526316" y="631.5263157894738"/>
      <point x="326.0263157894737" y="713.0" type="curve"/>
      <point x="124.8421052631579" y="713.0" type="line"/>
      <point x="123.10526315789474" y="632.6315789473684"/>
      <point x="117.73684210526315" y="558.3421052631579"/>
      <point x="106.73684210526315" y="472.3421052631579" type="curve"/>
      <point x="77.07894736842105" y="232.07894736842104" type="line"/>
      <point x="66.07894736842105" y="145.73684210526315"/>
      <point x="52.473684210526315" y="73.76315789473685"/>
    </contour>
  </outline>
</glyph>
<glyph name="N" format="2">
  <advance width="756.6842105263158"/>
  <unicode hex="004E"/>
  <anchor x="379.0" y="0.0" name="bottom"/>
  <anchor x="379.0" y="713.0" name="top"/>
  <outline>
    <contour>
      <point x="58.0" y="0.0" type="curve"/>
      <point x="246.31578947368422" y="0.0" type="line"/>
      <point x="236.73684210526315" y="76.39473684210526"/>
      <point x="232.78947368421052" y="142.44736842105263"/>
      <point x="232.78947368421052" y="232.07894736842104" type="curve"/>
      <point x="232.78947368421052" y="424.07894736842104" type="line"/>
      <point x="244.68421052631578" y="424.07894736842104" type="line"/>
      <point x="358.63157894736844" y="259.1578947368421" type="line"/>
      <point x="425.5526315789474" y="162.05263157894737"/>
      <point x="478.3684210526316" y="81.78947368421052"/>
      <point x="521.5526315789474" y="0.0" type="curve"/>
      <point x="698.6842105263157" y="0.0" type="line"/>
      <point x="689.1052631578947" y="76.39473684210526"/>
      <point x="685.1578947368421" y="142.44736842105263"/>
      <point x="685.1578947368421" y="232.07894736842104" type="curve"/>
      <point x="685.1578947368421" y="474.3421052631579" type="line"/>
      <point x="685.1578947368421" y="566.6052631578947"/>
      <point x="689.1052631578947" y="634.6315789473684"/>
      <point x="698.6842105263157" y="713.0" type="curve"/>
      <point x="510.3684210526316" y="713.0" type="line"/>
      <point x="518.9473684210527" y="634.6315789473684"/>
      <point x="523.5526315789474" y="566.6052631578947"/>
      <point x="523.5526315789474" y="474.3421052631579" type="curve"/>
      <point x="523.5526315789474" y="290.2894736842105" type="line"/>
      <point x="511.0" y="290.2894736842105" type="line"/>
      <point x="399.0263157894737" y="453.86842105263156" type="line"/>
      <point x="344.2105263157895" y="533.1578947368422"/>
      <point x="293.0" y="617.1052631578948"/>
      <point x="240.73684210526315" y="713.0" type="curve"/>
      <point x="58.0" y="713.0" type="line"/>
      <point x="66.57894736842105" y="634.6315789473684"/>
      <point x="71.18421052631578" y="566.6052631578947"/>
      <point x="71.18421052631578" y="474.3421052631579" type="curve"/>
      <point x="71.18421052631578" y="232.07894736842104" type="line"/>
      <point x="71.18421052631578" y="142.44736842105263"/>
      <point x="66.57894736842105" y="76.39473684210526"/>
    </contour>
  </outline>
</glyph>
<glyph name="P" format="2">
  <advance width="654.6504854368932"/>
  <unicode hex="0050"/>
  <outline>
    <contour>
      <point x="370.873786407767" y="244.0776699029126" type="curve"/>
      <point x="554.2330097087379" y="244.0776699029126"/>
      <point x="624.5533980582524" y="343.92233009708735"/>
      <point x="624.5533980582524" y="486.1941747572816" type="curve" smooth="yes"/>
      <point x="624.5533980582524" y="655.5825242718446"/>
      <point x="534.6504854368932" y="718.1067961165049"/>
      <point x="360.37864077669906" y="718.1067961165049" type="curve"/>
      <point x="231.41747572815535" y="718.1067961165049"/>
      <point x="129.03883495145632" y="713.0"/>
      <point x="57.87378640776698" y="713.0" type="curve"/>
      <point x="227.14563106796118" y="578.4854368932038" type="line"/>
      <point x="348.42718446601947" y="578.4854368932038" type="line" smooth="yes"/>
      <point x="397.8349514563107" y="578.4854368932038"/>
      <point x="449.3883495145631" y="560.7961165048544"/>
      <point x="449.3883495145631" y="482.24271844660194" type="curve" smooth="yes"/>
      <point x="449.3883495145631" y="408.368932038835"/>
      <point x="414.0873786407767" y="376.16504854368935"/>
      <point x="331.0679611650486" y="376.16504854368935" type="curve" smooth="yes"/>
      <point x="219.45631067961168" y="376.16504854368935" type="line"/>
      <point x="219.45631067961168" y="246.44660194174756" type="line"/>
      <point x="257.0873786407767" y="246.44660194174756"/>
      <point x="322.61165048543694" y="244.0776699029126"/>
    </contour>
    <contour>
      <point x="57.87378640776698" y="0.0" type="curve"/>
      <point x="254.20388349514562" y="0.0" type="line"/>
      <point x="244.35922330097088" y="76.52427184466019"/>
      <point x="240.88349514563106" y="142.41747572815532"/>
      <point x="240.88349514563106" y="232.15533980582524" type="curve"/>
      <point x="240.88349514563106" y="447.252427184466" type="line"/>
      <point x="240.88349514563106" y="539.0970873786407"/>
      <point x="244.35922330097088" y="607.3592233009708"/>
      <point x="254.20388349514562" y="685.6213592233009" type="curve"/>
      <point x="57.87378640776698" y="713.0" type="line"/>
      <point x="66.71844660194175" y="634.7378640776699"/>
      <point x="71.19417475728156" y="566.4757281553399"/>
      <point x="71.19417475728156" y="474.63106796116506" type="curve"/>
      <point x="71.19417475728156" y="232.15533980582524" type="line"/>
      <point x="71.19417475728156" y="142.41747572815532"/>
      <point x="66.71844660194175" y="76.52427184466019"/>
    </contour>
  </outline>
</glyph>
<glyph name="S" format="2">
  <advance width="602.1165048543689"/>
  <unicode hex="0053"/>
  <anchor x="302.95145631067965" y="0.0" name="bottom"/>
  <anchor x="302.95145631067965" y="713.0" name="top"/>
  <outline>
    <contour>
      <point x="296.52427184466023" y="-13.475728155339805" type="curve" smooth="yes"/>
      <point x="489.9611650485437" y="-13.475728155339805"/>
      <point x="573.0194174757281" y="72.41747572815535"/>
      <point x="573.0194174757281" y="205.27184466019418" type="curve" smooth="yes"/>
      <point x="573.0194174757281" y="323.59223300970876"/>
      <point x="517.6504854368932" y="373.0679611650486"/>
      <point x="347.0194174757281" y="423.4854368932039" type="curve" smooth="yes"/>
      <point x="259.621359223301" y="449.58252427184465"/>
      <point x="220.89320388349518" y="469.41747572815535"/>
      <point x="220.89320388349518" y="516.4563106796116" type="curve" smooth="yes"/>
      <point x="220.89320388349518" y="564.0194174757281"/>
      <point x="262.6116504854369" y="585.009708737864"/>
      <point x="313.59223300970876" y="587.378640776699" type="curve"/>
      <point x="350.22330097087377" y="587.378640776699"/>
      <point x="430.43689320388347" y="568.6407766990292"/>
      <point x="519.2815533980582" y="530.3786407766991" type="curve"/>
      <point x="532.1262135922331" y="688.4271844660194" type="line"/>
      <point x="477.75728155339806" y="701.2135922330098"/>
      <point x="372.2718446601942" y="727.7378640776699"/>
      <point x="291.84466019417476" y="727.7378640776699" type="curve" smooth="yes"/>
      <point x="120.62135922330097" y="727.7378640776699"/>
      <point x="38.883495145631066" y="640.5242718446601"/>
      <point x="38.883495145631066" y="513.7766990291262" type="curve" smooth="yes"/>
      <point x="38.883495145631066" y="388.0873786407767"/>
      <point x="114.77669902912622" y="338.50485436893206"/>
      <point x="243.71844660194174" y="301.8252427184466" type="curve" smooth="yes"/>
      <point x="335.17475728155335" y="275.62135922330094"/>
      <point x="392.00970873786406" y="253.78640776699032"/>
      <point x="392.00970873786406" y="200.2233009708738" type="curve" smooth="yes"/>
      <point x="392.00970873786406" y="148.24271844660194"/>
      <point x="349.29126213592235" y="127.14563106796119"/>
      <point x="295.15533980582524" y="124.77669902912623" type="curve"/>
      <point x="231.89320388349518" y="124.77669902912623"/>
      <point x="138.72815533980582" y="149.25242718446603"/>
      <point x="62.83495145631067" y="182.51456310679612" type="curve"/>
      <point x="50.62135922330096" y="23.466019417475724" type="line"/>
      <point x="104.62135922330097" y="11.310679611650484"/>
      <point x="186.99029126213594" y="-13.475728155339805"/>
    </contour>
  </outline>
</glyph>
<glyph name="T" format="2">
  <advance width="646.2105263157895"/>
  <unicode hex="0054"/>
  <anchor x="323.60526315789474" y="0.0" name="bottom"/>
  <anchor x="323.60526315789474" y="318.8421052631579" name="center"/>
  <anchor x="323.60526315789474" y="713.0" name="top"/>
  <outline>
    <contour>
      <point x="224.0263157894737" y="0.0" type="curve"/>
      <point x="422.8684210526316" y="0.0" type="line"/>
      <point x="413.2894736842106" y="76.39473684210526"/>
      <point x="409.3421052631579" y="142.44736842105263"/>
      <point x="409.3421052631579" y="232.07894736842104" type="curve"/>
      <point x="409.3421052631579" y="447.0" type="line"/>
      <point x="409.3421052631579" y="539.2631578947369"/>
      <point x="413.63157894736844" y="607.2894736842105"/>
      <point x="422.8684210526316" y="685.6578947368421" type="curve"/>
      <point x="422.8684210526316" y="713.0" type="line"/>
      <point x="223.68421052631578" y="713.0" type="line"/>
      <point x="223.68421052631578" y="685.6578947368421" type="line"/>
      <point x="232.92105263157896" y="607.2894736842105"/>
      <point x="237.21052631578948" y="539.2631578947369"/>
      <point x="237.21052631578948" y="447.0" type="curve"/>
      <point x="237.21052631578948" y="232.07894736842104" type="line"/>
      <point x="237.21052631578948" y="142.44736842105263"/>
      <point x="233.26315789473685" y="76.39473684210526"/>
    </contour>
    <contour>
      <point x="25.13157894736842" y="545.1052631578948" type="line"/>
      <point x="76.89473684210526" y="556.9736842105264"/>
      <point x="131.6578947368421" y="562.921052631579"/>
      <point x="206.78947368421052" y="562.921052631579" type="curve"/>
      <point x="265.89473684210526" y="562.921052631579" type="line"/>
      <point x="265.89473684210526" y="713.0" type="line"/>
      <point x="25.13157894736842" y="713.0" type="line"/>
    </contour>
    <contour>
      <point x="380.3157894736842" y="562.921052631579" type="line"/>
      <point x="439.42105263157896" y="562.921052631579" type="line"/>
      <point x="514.5526315789474" y="562.921052631579"/>
      <point x="569.6578947368421" y="557.3157894736843"/>
      <point x="621.078947368421" y="545.1052631578948" type="curve"/>
      <point x="621.078947368421" y="713.0" type="line"/>
      <point x="380.3157894736842" y="713.0" type="line"/>
    </contour>
  </outline>
</glyph>
<glyph name="V" format="2">
  <advance width="715.3684210526316"/>
  <unicode hex="0056"/>
  <anchor x="358.02631578947364" y="0.0" name="bottom"/>
  <anchor x="358.02631578947364" y="713.0" name="top"/>
  <outline>
    <contour>
      <point x="229.73684210526315" y="0.0" type="curve"/>
      <point x="483.7105263157895" y="0.0" type="line"/>
      <point x="499.8421052631579" y="72.34210526315789"/>
      <point x="520.0" y="156.6578947368421"/>
      <point x="541.7368421052631" y="225.6578947368421" type="curve"/>
      <point x="610.9736842105262" y="450.0" type="line"/>
      <point x="635.0526315789473" y="527.6578947368421"/>
      <point x="672.421052631579" y="631.9473684210527"/>
      <point x="709.3947368421053" y="713.0" type="curve"/>
      <point x="491.42105263157896" y="713.0" type="line"/>
      <point x="476.7105263157895" y="622.6842105263158"/>
      <point x="454.36842105263156" y="518.3684210526316"/>
      <point x="431.10526315789474" y="430.0263157894737" type="curve"/>
      <point x="363.3421052631579" y="174.81578947368422" type="line"/>
      <point x="350.7631578947369" y="174.81578947368422" type="line"/>
      <point x="286.60526315789474" y="429.0263157894737" type="line"/>
      <point x="264.3157894736842" y="517.0"/>
      <point x="239.94736842105263" y="623.3684210526316"/>
      <point x="225.92105263157896" y="713.0" type="curve"/>
      <point x="4.973684210526315" y="713.0" type="line"/>
      <point x="43.28947368421052" y="630.9473684210526"/>
      <point x="79.99999999999999" y="527.3157894736842"/>
      <point x="103.42105263157895" y="450.0" type="curve"/>
      <point x="172.0263157894737" y="226.0" type="line"/>
      <point x="192.44736842105263" y="158.6578947368421"/>
      <point x="214.26315789473685" y="71.65789473684211"/>
    </contour>
  </outline>
</glyph>
<glyph name="W" format="2">
  <advance width="1049.657894736842"/>
  <unicode hex="0057"/>
  <anchor x="520.7105263157895" y="0.0" name="bottom"/>
  <anchor x="520.7105263157895" y="713.0" name="top"/>
  <outline>
    <contour>
      <point x="196.6578947368421" y="0.0" type="curve"/>
      <point x="418.47368421052636" y="0.0" type="line"/>
      <point x="428.39473684210526" y="77.10526315789473"/>
      <point x="444.0263157894737" y="169.31578947368422"/>
      <point x="460.89473684210526" y="244.44736842105263" type="curve"/>
      <point x="509.8157894736842" y="465.42105263157896" type="line"/>
      <point x="522.3947368421053" y="465.42105263157896" type="line"/>
      <point x="572.9736842105264" y="245.10526315789474" type="line"/>
      <point x="590.5" y="169.31578947368422"/>
      <point x="606.1315789473684" y="77.44736842105263"/>
      <point x="616.3947368421052" y="0.0" type="curve"/>
      <point x="850.0526315789474" y="0.0" type="line"/>
      <point x="859.8157894736842" y="69.31578947368422"/>
      <point x="879.8947368421052" y="155.6578947368421"/>
      <point x="898.6052631578948" y="225.3421052631579" type="curve"/>
      <point x="959.0526315789474" y="450.0" type="line"/>
      <point x="979.7631578947369" y="528.3421052631579"/>
      <point x="1010.421052631579" y="630.2894736842105"/>
      <point x="1047.0" y="713.0" type="curve"/>
      <point x="825.078947368421" y="713.0" type="line"/>
      <point x="814.4736842105262" y="628.6315789473684"/>
      <point x="798.1578947368421" y="528.2105263157895"/>
      <point x="781.921052631579" y="446.1578947368421" type="curve"/>
      <point x="734.578947368421" y="204.76315789473685" type="line"/>
      <point x="722.0" y="204.76315789473685" type="line"/>
      <point x="671.421052631579" y="445.1578947368421" type="line"/>
      <point x="653.2105263157895" y="528.8947368421052"/>
      <point x="637.9210526315788" y="627.9473684210526"/>
      <point x="627.3157894736843" y="713.0" type="curve"/>
      <point x="421.0" y="713.0" type="line"/>
      <point x="411.07894736842104" y="628.9736842105264"/>
      <point x="394.4473684210526" y="527.5263157894738"/>
      <point x="377.57894736842104" y="446.1578947368421" type="curve"/>
      <point x="328.6578947368421" y="204.76315789473685" type="line"/>
      <point x="316.07894736842104" y="204.76315789473685" type="line"/>
      <point x="269.07894736842104" y="444.4736842105263" type="line"/>
      <point x="252.50000000000003" y="528.2105263157895"/>
      <point x="236.52631578947367" y="627.9473684210526"/>
      <point x="225.57894736842107" y="713.0" type="curve"/>
      <point x="2.9999999999999964" y="713.0" type="line"/>
      <point x="39.55263157894736" y="630.3157894736842"/>
      <point x="69.26315789473685" y="527.6578947368421"/>
      <point x="89.97368421052632" y="449.3157894736842" type="curve"/>
      <point x="148.76315789473685" y="225.0" type="line"/>
      <point x="166.4736842105263" y="156.6578947368421"/>
      <point x="185.55263157894737" y="71.6578947368421"/>
    </contour>
  </outline>
</glyph>
<glyph name="X" format="2">
  <advance width="724.1315789473684"/>
  <unicode hex="0058"/>
  <outline>
    <contour>
      <point x="14.368421052631579" y="0.0" type="curve"/>
      <point x="234.71052631578948" y="0.0" type="line"/>
      <point x="251.44736842105266" y="52.89473684210526"/>
      <point x="270.3947368421053" y="99.39473684210527"/>
      <point x="292.0" y="142.6315789473684" type="curve"/>
      <point x="345.2894736842105" y="250.78947368421052" type="line"/>
      <point x="357.8684210526316" y="250.78947368421052" type="line"/>
      <point x="414.8684210526316" y="142.9736842105263" type="line"/>
      <point x="437.4736842105263" y="100.76315789473684"/>
      <point x="461.7631578947369" y="52.89473684210526"/>
      <point x="480.1842105263158" y="0.0" type="curve"/>
      <point x="711.7368421052631" y="0.0" type="line"/>
      <point x="654.3684210526316" y="71.71052631578948"/>
      <point x="609.9473684210526" y="140.0263157894737"/>
      <point x="562.8157894736843" y="219.6578947368421" type="curve"/>
      <point x="470.18421052631584" y="375.9736842105263" type="line"/>
      <point x="470.18421052631584" y="330.6842105263158" type="line"/>
      <point x="560.7894736842105" y="501.1842105263158" type="line"/>
      <point x="593.5526315789474" y="562.7894736842105"/>
      <point x="635.3157894736843" y="637.3684210526316"/>
      <point x="693.2631578947369" y="713.0" type="curve"/>
      <point x="472.57894736842104" y="713.0" type="line"/>
      <point x="453.2105263157895" y="657.5"/>
      <point x="431.2105263157895" y="603.2894736842105"/>
      <point x="408.60526315789474" y="557.078947368421" type="curve"/>
      <point x="363.7631578947369" y="465.0526315789474" type="line"/>
      <point x="351.18421052631584" y="465.0526315789474" type="line"/>
      <point x="304.3421052631579" y="556.7368421052631" type="line"/>
      <point x="280.7368421052632" y="602.6052631578947"/>
      <point x="257.07894736842104" y="657.1315789473684"/>
      <point x="236.71052631578948" y="713.0" type="curve"/>
      <point x="12.736842105263158" y="713.0" type="line"/>
      <point x="72.73684210526315" y="634.3157894736843"/>
      <point x="112.1842105263158" y="565.0263157894736"/>
      <point x="150.9736842105263" y="496.39473684210526" type="curve"/>
      <point x="234.26315789473682" y="348.42105263157896" type="line"/>
      <point x="234.26315789473682" y="388.44736842105266" type="line"/>
      <point x="139.92105263157893" y="208.8684210526316" type="line"/>
      <point x="99.78947368421052" y="132.26315789473682"/>
      <point x="61.68421052631579" y="66.28947368421052"/>
    </contour>
  </outline>
</glyph>
<glyph name="Y" format="2">
  <advance width="685.578947368421"/>
  <unicode hex="0059"/>
  <anchor x="345.2631578947369" y="0.0" name="bottom"/>
  <anchor x="345.2631578947369" y="713.0" name="top"/>
  <anchor x="20.0" y="713.0" name="topleft"/>
  <outline>
    <contour>
      <point x="262.5" y="248.68421052631578" type="line"/>
      <point x="427.3684210526316" y="248.68421052631578" type="line"/>
      <point x="572.6052631578947" y="530.6052631578947" type="line"/>
      <point x="603.3157894736843" y="590.5"/>
      <point x="637.3421052631579" y="651.421052631579"/>
      <point x="682.2368421052632" y="713.0" type="curve"/>
      <point x="459.94736842105266" y="713.0" type="line"/>
      <point x="438.05263157894734" y="631.6842105263158"/>
      <point x="422.47368421052636" y="589.2105263157895"/>
      <point x="395.42105263157896" y="526.8947368421053" type="curve"/>
      <point x="352.2105263157895" y="427.8157894736842" type="line"/>
      <point x="338.3157894736842" y="427.8157894736842" type="line"/>
      <point x="294.7368421052632" y="529.2631578947369" type="line"/>
      <point x="268.7105263157895" y="589.5526315789474"/>
      <point x="253.81578947368422" y="630.6842105263158"/>
      <point x="231.57894736842107" y="713.0" type="curve"/>
      <point x="3.368421052631577" y="713.0" type="line"/>
      <point x="55.263157894736835" y="641.7631578947369"/>
      <point x="84.92105263157895" y="590.8421052631579"/>
      <point x="116.28947368421052" y="530.6052631578947" type="curve"/>
    </contour>
    <contour>
      <point x="245.68421052631575" y="0.0" type="curve"/>
      <point x="445.18421052631584" y="0.0" type="line"/>
      <point x="435.60526315789474" y="76.39473684210526"/>
      <point x="431.65789473684214" y="142.44736842105263"/>
      <point x="431.65789473684214" y="232.07894736842104" type="curve"/>
      <point x="431.65789473684214" y="393.7631578947369" type="line"/>
      <point x="258.86842105263156" y="393.7631578947369" type="line"/>
      <point x="258.86842105263156" y="232.07894736842104" type="line"/>
      <point x="258.86842105263156" y="142.44736842105263"/>
      <point x="254.26315789473682" y="76.39473684210526"/>
    </contour>
  </outline>
</glyph>
<glyph name="Z" format="2">
  <advance width="688.6052631578948"/>
  <unicode hex="005A"/>
  <anchor x="344.4736842105263" y="0.0" name="bottom"/>
  <anchor x="344.4736842105263" y="357.0" name="center"/>
  <anchor x="344.4736842105263" y="713.0" name="top"/>
  <outline>
    <contour>
      <point x="38.55263157894737" y="0.0" type="line"/>
      <point x="648.3421052631579" y="0.0" type="line"/>
      <point x="648.3421052631579" y="161.65789473684214" type="line"/>
      <point x="578.7631578947369" y="147.44736842105266"/>
      <point x="466.6842105263158" y="142.84210526315792"/>
      <point x="389.7368421052632" y="142.84210526315792" type="curve"/>
      <point x="229.1578947368421" y="142.84210526315792" type="line"/>
      <point x="241.84210526315792" y="87.89473684210527" type="line"/>
      <point x="487.44736842105266" y="398.9473684210526" type="line"/>
      <point x="538.3157894736842" y="464.2368421052632"/>
      <point x="589.8421052631579" y="528.8684210526316"/>
      <point x="642.7105263157895" y="582.9736842105262" type="curve"/>
      <point x="642.7105263157895" y="713.0" type="line"/>
      <point x="49.1578947368421" y="713.0" type="line"/>
      <point x="49.1578947368421" y="549.0526315789473" type="line"/>
      <point x="137.1315789473684" y="565.2105263157895"/>
      <point x="220.07894736842104" y="570.1578947368421"/>
      <point x="293.0" y="570.1578947368421" type="curve"/>
      <point x="469.9473684210526" y="570.1578947368421" type="line"/>
      <point x="450.89473684210526" y="622.3684210526316" type="line"/>
      <point x="213.78947368421052" y="316.2631578947368" type="line"/>
      <point x="161.28947368421052" y="248.68421052631578"/>
      <point x="87.71052631578947" y="155.6578947368421"/>
      <point x="38.55263157894737" y="109.57894736842105" type="curve"/>
    </contour>
  </outline>
</glyph>
<glyph name="bracketleft" format="2">
  <advance width="410.7894736842105"/>
  <unicode hex="005B"/>
  <outline>
    <contour>
      <point x="62.94736842105264" y="-123.84210526315789" type="curve"/>
      <point x="229.86842105263162" y="-123.84210526315789" type="line"/>
      <point x="229.86842105263162" y="-96.15789473684211" type="line"/>
      <point x="220.28947368421055" y="-19.763157894736842"/>
      <point x="216.34210526315792" y="46.28947368421053"/>
      <point x="216.34210526315792" y="135.92105263157896" type="curve"/>
      <point x="216.34210526315792" y="509.13157894736844" type="line"/>
      <point x="216.34210526315792" y="601.3947368421053"/>
      <point x="220.28947368421055" y="669.421052631579"/>
      <point x="229.86842105263162" y="747.7894736842105" type="curve"/>
      <point x="229.86842105263162" y="775.1315789473684" type="line"/>
      <point x="62.94736842105264" y="775.1315789473684" type="line"/>
      <point x="69.55263157894737" y="696.7631578947369"/>
      <point x="74.15789473684211" y="628.7368421052631"/>
      <point x="74.15789473684211" y="536.4736842105264" type="curve"/>
      <point x="74.15789473684211" y="108.23684210526315" type="line"/>
      <point x="74.15789473684211" y="18.605263157894736"/>
      <point x="69.55263157894737" y="-47.44736842105263"/>
    </contour>
    <contour>
      <point x="197.18421052631578" y="-123.84210526315789" type="line"/>
      <point x="387.2894736842105" y="-123.84210526315789" type="line"/>
      <point x="387.2894736842105" y="9.131578947368428" type="line"/>
      <point x="342.89473684210526" y="2.2105263157894806"/>
      <point x="294.8421052631579" y="0.23684210526316463"/>
      <point x="241.1052631578947" y="0.23684210526316463" type="curve"/>
      <point x="197.18421052631578" y="0.23684210526316463" type="line"/>
    </contour>
    <contour>
      <point x="186.6578947368421" y="651.0526315789474" type="line"/>
      <point x="232.1842105263158" y="651.0526315789474" type="line"/>
      <point x="296.92105263157896" y="651.0526315789474"/>
      <point x="342.2894736842105" y="647.1052631578948"/>
      <point x="384.3421052631579" y="642.1578947368421" type="curve"/>
      <point x="384.3421052631579" y="775.1315789473684" type="line"/>
      <point x="186.6578947368421" y="775.1315789473684" type="line"/>
    </contour>
  </outline>
</glyph>
<glyph name="backslash" format="2">
  <advance width="468.92105263157896"/>
  <unicode hex="005C"/>
  <outline>
    <contour>
      <point x="285.36842105263156" y="0.0" type="curve"/>
      <point x="458.55263157894734" y="0.0" type="line"/>
      <point x="420.60526315789474" y="74.0"/>
      <point x="394.55263157894734" y="137.0"/>
      <point x="359.13157894736844" y="228.0" type="curve"/>
      <point x="263.2368421052631" y="476.0" type="line"/>
      <point x="226.81578947368422" y="570.3421052631579"/>
      <point x="203.07894736842107" y="636.0"/>
      <point x="182.89473684210526" y="713.0" type="curve"/>
      <point x="10.368421052631579" y="713.0" type="line"/>
      <point x="50.0" y="636.0"/>
      <point x="76.05263157894737" y="571.0"/>
      <point x="113.47368421052632" y="474.0" type="curve"/>
      <point x="208.36842105263156" y="228.0" type="line"/>
      <point x="243.78947368421052" y="137.0"/>
      <point x="266.52631578947364" y="74.0"/>
    </contour>
  </outline>
</glyph>
<glyph name="asciicircum" format="2">
  <advance width="634.7368421052631"/>
  <unicode hex="005E"/>
  <outline>
    <contour>
      <point x="452.10526315789474" y="357.8157894736842" type="curve"/>
      <point x="588.4473684210527" y="359.4736842105263" type="line"/>
      <point x="528.6578947368421" y="468.63157894736844"/>
      <point x="470.5263157894737" y="578.7894736842105"/>
      <point x="423.63157894736844" y="687.9473684210526" type="curve"/>
      <point x="211.10526315789474" y="687.9473684210526" type="line"/>
      <point x="164.21052631578945" y="578.7894736842105"/>
      <point x="106.07894736842105" y="470.63157894736844"/>
      <point x="46.28947368421053" y="361.4736842105263" type="curve"/>
      <point x="183.28947368421052" y="361.4736842105263" type="line"/>
      <point x="228.8684210526316" y="425.7631578947368"/>
      <point x="270.1315789473684" y="491.0526315789474"/>
      <point x="311.07894736842104" y="555.3421052631579" type="curve"/>
      <point x="323.6578947368421" y="555.3421052631579" type="line"/>
      <point x="364.60526315789474" y="489.39473684210526"/>
      <point x="406.5263157894737" y="423.7631578947368"/>
    </contour>
  </outline>
</glyph>
<glyph name="underscore" format="2">
  <advance width="566.1842105263158"/>
  <unicode hex="005F"/>
  <outline>
    <contour>
      <point x="-10.0" y="-172.89473684210526" type="line"/>
      <point x="59.184210526315795" y="-170.23684210526315"/>
      <point x="128.0" y="-168.26315789473685"/>
      <point x="181.57894736842104" y="-166.94736842105263" type="curve"/>
      <point x="251.05263157894737" y="-166.94736842105263" type="line"/>
      <point x="304.63157894736844" y="-168.26315789473685"/>
      <point x="373.44736842105266" y="-170.23684210526315"/>
      <point x="442.63157894736844" y="-172.89473684210526" type="curve"/>
      <point x="442.63157894736844" y="-34.31578947368421" type="line"/>
      <point x="373.44736842105266" y="-36.973684210526315"/>
      <point x="304.63157894736844" y="-38.94736842105263"/>
      <point x="251.05263157894737" y="-40.26315789473684" type="curve"/>
      <point x="181.57894736842104" y="-40.26315789473684" type="line"/>
      <point x="128.0" y="-38.94736842105263"/>
      <point x="59.184210526315795" y="-36.973684210526315"/>
      <point x="-10.0" y="-34.31578947368421" type="curve"/>
    </contour>
  </outline>
</glyph>
<glyph name="a" format="2">
  <advance width="533.0000000000001"/>
  <unicode hex="0061"/>
  <anchor x="264.368932038835" y="0.0" name="bottom"/>
  <anchor x="476.06796116504853" y="0.0" name="ogonek"/>
  <anchor x="264.368932038835" y="499.47572815533977" name="top"/>
  <outline>
    <contour>
      <point x="174.76699029126215" y="-12.106796116504855" type="curve" smooth="yes"/>
      <point x="235.76699029126212" y="-12.106796116504855"/>
      <point x="295.8640776699029" y="30.7378640776699"/>
      <point x="325.38834951456306" y="65.42718446601941" type="curve"/>
      <point x="336.8640776699029" y="65.42718446601941" type="line"/>
      <point x="354.757281553398" y="0.0" type="line"/>
      <point x="507.33009708737865" y="0.0" type="line"/>
      <point x="483.4854368932039" y="63.320388349514566"/>
      <point x="475.33009708737865" y="120.37864077669903"/>
      <point x="475.33009708737865" y="171.6990291262136" type="curve"/>
      <point x="475.33009708737865" y="211.36893203883494" type="line" smooth="yes"/>
      <point x="475.33009708737865" y="248.41747572815532"/>
      <point x="478.6990291262136" y="300.52427184466023"/>
      <point x="478.6990291262136" y="333.63106796116506" type="curve" smooth="yes"/>
      <point x="478.6990291262136" y="460.2135922330097"/>
      <point x="402.009708737864" y="512.9514563106796"/>
      <point x="275.3203883495146" y="512.9514563106796" type="curve" smooth="yes"/>
      <point x="193.83495145631065" y="512.9514563106796"/>
      <point x="103.88349514563106" y="489.84466019417476"/>
      <point x="55.40776699029126" y="477.2135922330097" type="curve"/>
      <point x="61.514563106796125" y="337.3300970873786" type="line"/>
      <point x="125.45631067961168" y="363.9611650485437"/>
      <point x="208.51456310679612" y="385.0679611650485"/>
      <point x="233.03883495145632" y="385.0679611650485" type="curve" smooth="yes"/>
      <point x="290.7766990291262" y="385.0679611650485"/>
      <point x="333.3398058252427" y="366.65048543689323"/>
      <point x="331.07766990291265" y="314.94174757281553" type="curve"/>
      <point x="192.98058252427185" y="292.83495145631065" type="line" smooth="yes"/>
      <point x="123.31067961165049" y="281.5728155339806"/>
      <point x="33.03883495145631" y="247.15533980582526"/>
      <point x="33.03883495145631" y="133.5728155339806" type="curve" smooth="yes"/>
      <point x="33.03883495145631" y="45.689320388349515"/>
      <point x="88.55339805825241" y="-12.106796116504855"/>
    </contour>
    <contour>
      <point x="238.37864077669906" y="108.19417475728156" type="curve" smooth="yes"/>
      <point x="210.495145631068" y="108.19417475728156"/>
      <point x="184.39805825242718" y="121.98058252427185"/>
      <point x="184.39805825242718" y="158.86407766990294" type="curve" smooth="yes"/>
      <point x="184.39805825242718" y="193.59223300970874"/>
      <point x="206.4466019417476" y="214.32038834951456"/>
      <point x="240.37864077669906" y="221.58252427184465" type="curve" smooth="yes"/>
      <point x="299.6116504854369" y="233.7378640776699"/>
      <point x="315.1844660194175" y="239.10679611650485"/>
      <point x="326.97087378640776" y="248.10679611650482" type="curve"/>
      <point x="326.97087378640776" y="172.05825242718444" type="line"/>
      <point x="304.6116504854369" y="133.70873786407765"/>
      <point x="264.36893203883494" y="108.19417475728156"/>
    </contour>
  </outline>
</glyph>
<glyph name="c" format="2">
  <advance width="483.57894736842104"/>
  <unicode hex="0063"/>
  <anchor x="279.4736842105263" y="0.0" name="bottom"/>
  <anchor x="276.39473684210526" y="499.2631578947368" name="top"/>
  <outline>
    <contour>
      <point x="296.7631578947368" y="-10.973684210526315" type="curve" smooth="yes"/>
      <point x="353.44736842105266" y="-10.973684210526315"/>
      <point x="411.36842105263156" y="4.447368421052631"/>
      <point x="450.3157894736842" y="13.842105263157894" type="curve"/>
      <point x="442.6578947368421" y="149.1842105263158" type="line"/>
      <point x="405.5" y="128.44736842105263"/>
      <point x="364.42105263157896" y="117.07894736842105"/>
      <point x="336.2368421052631" y="117.07894736842105" type="curve" smooth="yes"/>
      <point x="244.8947368421053" y="118.76315789473685"/>
      <point x="192.34210526315792" y="172.0"/>
      <point x="192.34210526315792" y="253.26315789473685" type="curve" smooth="yes"/>
      <point x="192.34210526315792" y="331.05263157894734"/>
      <point x="238.1315789473684" y="377.55263157894734"/>
      <point x="303.89473684210526" y="380.55263157894734" type="curve"/>
      <point x="327.2631578947369" y="380.55263157894734"/>
      <point x="376.3421052631579" y="368.5526315789474"/>
      <point x="439.6842105263158" y="338.89473684210526" type="curve"/>
      <point x="450.57894736842104" y="477.5263157894737" type="line"/>
      <point x="409.2894736842105" y="492.5263157894737"/>
      <point x="346.6315789473684" y="512.5526315789474"/>
      <point x="285.7894736842105" y="512.5526315789474" type="curve" smooth="yes"/>
      <point x="119.73684210526316" y="512.5526315789474"/>
      <point x="33.05263157894737" y="400.2368421052632"/>
      <point x="33.05263157894737" y="248.6578947368421" type="curve" smooth="yes"/>
      <point x="33.05263157894737" y="98.07894736842105"/>
      <point x="129.92105263157896" y="-10.973684210526315"/>
    </contour>
  </outline>
</glyph>
<glyph name="d" format="2">
  <advance width="586.4736842105262"/>
  <unicode hex="0064"/>
  <anchor x="316.5263157894737" y="0.0" name="bottom"/>
  <anchor x="293.60526315789474" y="249.6315789473684" name="center"/>
  <anchor x="316.5263157894737" y="729.578947368421" name="top"/>
  <anchor x="566.0526315789474" y="499.2631578947368" name="topright"/>
  <outline>
    <contour>
      <point x="233.6578947368421" y="-13.605263157894736" type="curve" smooth="yes"/>
      <point x="283.7631578947369" y="-13.605263157894736"/>
      <point x="335.8684210526316" y="13.736842105263158"/>
      <point x="380.60526315789474" y="65.73684210526315" type="curve"/>
      <point x="391.2105263157895" y="65.73684210526315" type="line"/>
      <point x="401.7631578947368" y="0.0" type="line"/>
      <point x="546.2368421052631" y="0.0" type="line"/>
      <point x="537.3157894736842" y="71.05263157894737"/>
      <point x="533.3684210526316" y="132.76315789473685"/>
      <point x="533.3684210526316" y="215.73684210526315" type="curve"/>
      <point x="533.3684210526316" y="493.3421052631579" type="line"/>
      <point x="533.3684210526316" y="585.578947368421"/>
      <point x="540.6052631578947" y="669.1842105263157"/>
      <point x="550.1842105263157" y="747.8947368421052" type="curve"/>
      <point x="351.97368421052636" y="730.9736842105264" type="line"/>
      <point x="370.44736842105266" y="651.7368421052631"/>
      <point x="377.0526315789474" y="574.3947368421053"/>
      <point x="377.0526315789474" y="493.3421052631579" type="curve"/>
      <point x="377.0526315789474" y="448.13157894736844" type="line"/>
      <point x="364.4736842105263" y="448.13157894736844" type="line"/>
      <point x="331.07894736842104" y="486.7368421052632"/>
      <point x="286.2631578947369" y="513.2105263157895"/>
      <point x="235.0" y="513.2105263157895" type="curve" smooth="yes"/>
      <point x="103.23684210526315" y="513.2105263157895"/>
      <point x="34.368421052631575" y="398.63157894736844"/>
      <point x="34.368421052631575" y="250.31578947368422" type="curve" smooth="yes"/>
      <point x="34.368421052631575" y="111.3157894736842"/>
      <point x="97.52631578947368" y="-13.605263157894736"/>
    </contour>
    <contour>
      <point x="293.5263157894737" y="119.05263157894737" type="curve"/>
      <point x="225.9736842105263" y="122.05263157894737"/>
      <point x="194.31578947368422" y="182.31578947368422"/>
      <point x="194.31578947368422" y="249.0" type="curve" smooth="yes"/>
      <point x="194.31578947368422" y="319.36842105263156"/>
      <point x="227.0263157894737" y="375.57894736842104"/>
      <point x="294.2105263157895" y="378.57894736842104" type="curve"/>
      <point x="323.2368421052632" y="377.57894736842104"/>
      <point x="354.36842105263156" y="363.39473684210526"/>
      <point x="377.0526315789474" y="336.63157894736844" type="curve"/>
      <point x="377.0526315789474" y="172.0263157894737" type="line"/>
      <point x="356.0263157894737" y="139.57894736842107"/>
      <point x="328.2631578947369" y="121.02631578947368"/>
    </contour>
  </outline>
</glyph>
<glyph name="e" format="2">
  <advance width="526.6310679611651"/>
  <unicode hex="0065"/>
  <anchor x="279.04854368932035" y="0.0" name="bottom"/>
  <anchor x="415.6504854368932" y="0.0" name="ogonek"/>
  <anchor x="275.8932038834951" y="499.47572815533977" name="top"/>
  <outline>
    <contour>
      <point x="311.73786407766994" y="-13.475728155339805" type="curve" smooth="yes"/>
      <point x="387.90291262135923" y="-13.475728155339805"/>
      <point x="444.9029126213592" y="5.7864077669902905"/>
      <point x="486.378640776699" y="17.048543689320386" type="curve"/>
      <point x="481.2718446601942" y="150.5631067961165" type="line"/>
      <point x="430.74757281553394" y="131.7766990291262"/>
      <point x="366.0582524271844" y="115.03883495145632"/>
      <point x="330.6407766990291" y="115.03883495145632" type="curve" smooth="yes"/>
      <point x="229.97087378640776" y="115.03883495145632"/>
      <point x="184.98058252427185" y="163.8640776699029"/>
      <point x="184.98058252427185" y="248.63106796116506" type="curve"/>
      <point x="184.98058252427185" y="268.1650485436893" type="line"/>
      <point x="184.98058252427185" y="348.31067961165047"/>
      <point x="224.126213592233" y="399.504854368932"/>
      <point x="277.52427184466023" y="403.504854368932" type="curve"/>
      <point x="322.24271844660194" y="400.87378640776694"/>
      <point x="356.0194174757281" y="363.66990291262135"/>
      <point x="356.0194174757281" y="299.1067961165048" type="curve" smooth="yes"/>
      <point x="356.0194174757281" y="290.84466019417476"/>
      <point x="356.0194174757281" y="282.58252427184465"/>
      <point x="355.0194174757281" y="273.95145631067965" type="curve"/>
      <point x="490.2718446601942" y="224.31067961165047" type="line"/>
      <point x="493.2718446601942" y="244.67961165048544"/>
      <point x="494.6407766990291" y="264.04854368932035"/>
      <point x="494.6407766990291" y="291.15533980582524" type="curve" smooth="yes"/>
      <point x="494.6407766990291" y="441.4271844660194"/>
      <point x="413.4271844660194" y="512.9514563106796"/>
      <point x="276.15533980582524" y="512.9514563106796" type="curve" smooth="yes"/>
      <point x="114.93203883495146" y="512.9514563106796"/>
      <point x="33.14563106796116" y="404.84466019417476"/>
      <point x="33.14563106796116" y="251.0" type="curve" smooth="yes"/>
      <point x="33.14563106796116" y="96.52427184466019"/>
      <point x="116.88349514563106" y="-13.475728155339805"/>
    </contour>
    <contour>
      <point x="93.42718446601941" y="224.31067961165047" type="line"/>
      <point x="490.2718446601942" y="224.31067961165047" type="line"/>
      <point x="490.2718446601942" y="287.90291262135923" type="line"/>
      <point x="399.24271844660194" y="312.52427184466023" type="line"/>
      <point x="93.42718446601941" y="305.67961165048547" type="line"/>
    </contour>
  </outline>
</glyph>
<glyph name="f" format="2">
  <advance width="410.6315789473684"/>
  <unicode hex="0066"/>
  <outline>
    <contour>
      <point x="86.57894736842105" y="0.0" type="curve"/>
      <point x="268.2894736842105" y="0.0" type="line"/>
      <point x="259.3684210526316" y="71.05263157894737"/>
      <point x="255.42105263157896" y="132.76315789473685"/>
      <point x="255.42105263157896" y="215.73684210526315" type="curve"/>
      <point x="255.42105263157896" y="473.42105263157896" type="line"/>
      <point x="260.0263157894737" y="499.2631578947368" type="line"/>
      <point x="246.2105263157895" y="507.0"/>
      <point x="238.31578947368422" y="529.5263157894738"/>
      <point x="238.31578947368422" y="547.3157894736842" type="curve" smooth="yes"/>
      <point x="238.31578947368422" y="599.5263157894736"/>
      <point x="268.7631578947369" y="618.578947368421"/>
      <point x="320.3684210526316" y="618.578947368421" type="curve" smooth="yes"/>
      <point x="338.4473684210526" y="618.578947368421"/>
      <point x="376.9736842105263" y="610.9473684210526"/>
      <point x="400.2631578947368" y="603.6315789473684" type="curve"/>
      <point x="412.1578947368421" y="738.6315789473683" type="line"/>
      <point x="390.5263157894737" y="741.6315789473684"/>
      <point x="339.10526315789474" y="747.2894736842105"/>
      <point x="301.94736842105266" y="747.2894736842105" type="curve" smooth="yes"/>
      <point x="195.78947368421052" y="747.2894736842105"/>
      <point x="90.86842105263158" y="706.2368421052631"/>
      <point x="90.86842105263158" y="546.6578947368421" type="curve" smooth="yes"/>
      <point x="90.86842105263158" y="460.39473684210526"/>
      <point x="99.10526315789474" y="344.1315789473684"/>
      <point x="99.10526315789474" y="265.39473684210526" type="curve"/>
      <point x="99.10526315789474" y="215.73684210526315" type="line"/>
      <point x="99.10526315789474" y="132.76315789473685"/>
      <point x="94.5" y="71.05263157894737"/>
    </contour>
    <contour>
      <point x="17.81578947368421" y="369.57894736842104" type="line"/>
      <point x="143.6315789473684" y="385.7631578947368" type="line"/>
      <point x="213.4736842105263" y="385.7631578947368" type="line"/>
      <point x="271.60526315789474" y="384.4473684210526"/>
      <point x="327.10526315789474" y="379.49999999999994"/>
      <point x="389.2105263157895" y="369.57894736842104" type="curve"/>
      <point x="389.2105263157895" y="499.2631578947368" type="line"/>
      <point x="17.81578947368421" y="499.2631578947368" type="line"/>
    </contour>
  </outline>
</glyph>
<glyph name="g" format="2">
  <advance width="553.1650485436893"/>
  <unicode hex="0067"/>
  <anchor x="276.32038834951453" y="-192.0" name="bottom"/>
  <anchor x="276.32038834951453" y="499.47572815533977" name="top"/>
  <outline>
    <contour>
      <point x="238.41747572815535" y="-204.73786407766988" type="curve" smooth="yes"/>
      <point x="370.1650485436893" y="-204.73786407766988"/>
      <point x="522.6504854368932" y="-153.58252427184468"/>
      <point x="522.6504854368932" y="-14.407766990291258" type="curve" smooth="yes"/>
      <point x="522.6504854368932" y="87.18446601941748"/>
      <point x="445.1650485436893" y="115.07766990291262"/>
      <point x="319.43689320388347" y="115.07766990291262" type="curve" smooth="yes"/>
      <point x="299.54368932038835" y="115.07766990291262" type="line" smooth="yes"/>
      <point x="244.1359223300971" y="115.07766990291262"/>
      <point x="220.45631067961168" y="119.97087378640778"/>
      <point x="220.45631067961168" y="139.38834951456312" type="curve" smooth="yes"/>
      <point x="220.45631067961168" y="158.6504854368932"/>
      <point x="246.02912621359226" y="165.54368932038835"/>
      <point x="300.28155339805824" y="177.33009708737865" type="curve" smooth="yes"/>
      <point x="389.4854368932039" y="196.4854368932039"/>
      <point x="461.9126213592233" y="243.16504854368932"/>
      <point x="461.9126213592233" y="339.368932038835" type="curve" smooth="yes"/>
      <point x="461.9126213592233" y="393.0485436893204"/>
      <point x="442.49514563106794" y="435.4660194174757"/>
      <point x="401.34951456310677" y="463.4660194174757" type="curve"/>
      <point x="360.49514563106794" y="406.81553398058253" type="line"/>
      <point x="418.54368932038835" y="404.4466019417476"/>
      <point x="472.8543689320388" y="396.9708737864078"/>
      <point x="534.6407766990292" y="378.54368932038835" type="curve"/>
      <point x="534.6407766990292" y="501.58252427184465" type="line"/>
      <point x="399.2330097087379" y="501.58252427184465" type="line" smooth="yes"/>
      <point x="330.22330097087377" y="501.58252427184465"/>
      <point x="304.74757281553394" y="512.9514563106796"/>
      <point x="247.95145631067962" y="512.9514563106796" type="curve" smooth="yes"/>
      <point x="100.82524271844659" y="512.9514563106796"/>
      <point x="32.51456310679611" y="439.52427184466023"/>
      <point x="32.51456310679611" y="346.36893203883494" type="curve" smooth="yes"/>
      <point x="32.51456310679611" y="257.3203883495146"/>
      <point x="95.76699029126213" y="212.3203883495146"/>
      <point x="140.09708737864074" y="191.10679611650488" type="curve"/>
      <point x="140.09708737864074" y="181.2621359223301" type="line"/>
      <point x="96.252427184466" y="163.36893203883497"/>
      <point x="77.51456310679612" y="131.7864077669903"/>
      <point x="77.51456310679612" y="98.7864077669903" type="curve" smooth="yes"/>
      <point x="77.51456310679612" y="53.63106796116505"/>
      <point x="111.7766990291262" y="29.679611650485434"/>
      <point x="134.0485436893204" y="24.31067961165048" type="curve"/>
      <point x="134.0485436893204" y="13.834951456310678" type="line"/>
      <point x="102.25242718446601" y="3.834951456310679"/>
      <point x="41.09708737864077" y="-30.42718446601942"/>
      <point x="41.09708737864077" y="-89.84466019417475" type="curve" smooth="yes"/>
      <point x="41.09708737864077" y="-149.3203883495146"/>
      <point x="87.57281553398057" y="-204.73786407766988"/>
    </contour>
    <contour>
      <point x="266.2718446601941" y="-98.61165048543688" type="curve"/>
      <point x="199.6019417475728" y="-97.24271844660193"/>
      <point x="173.18446601941747" y="-75.93203883495144"/>
      <point x="173.18446601941747" y="-53.35922330097087" type="curve" smooth="yes"/>
      <point x="173.18446601941747" y="-26.368932038834952"/>
      <point x="223.96116504854368" y="-9.68932038834952"/>
      <point x="255.21359223300968" y="-3.902912621359226" type="curve"/>
      <point x="271.6796116504854" y="-3.902912621359226" type="line" smooth="yes"/>
      <point x="349.7087378640777" y="-3.902912621359226"/>
      <point x="376.6019417475728" y="-18.427184466019423"/>
      <point x="376.6019417475728" y="-42.5242718446602" type="curve" smooth="yes"/>
      <point x="376.6019417475728" y="-67.62135922330096"/>
      <point x="329.9805825242718" y="-94.24271844660193"/>
    </contour>
    <contour>
      <point x="242.6893203883495" y="258.4368932038835" type="curve"/>
      <point x="213.33009708737868" y="269.22330097087377"/>
      <point x="175.45631067961168" y="291.42718446601936"/>
      <point x="175.45631067961168" y="327.88349514563106" type="curve" smooth="yes"/>
      <point x="175.45631067961168" y="365.3398058252427"/>
      <point x="208.6504854368932" y="385.9126213592233"/>
      <point x="245.95145631067962" y="388.9126213592233" type="curve"/>
      <point x="288.31067961165047" y="386.28155339805824"/>
      <point x="326.71844660194176" y="367.3398058252427"/>
      <point x="326.71844660194176" y="324.4660194174757" type="curve" smooth="yes"/>
      <point x="326.71844660194176" y="281.747572815534"/>
      <point x="275.94174757281553" y="263.9611650485437"/>
    </contour>
  </outline>
</glyph>
<glyph name="h" format="2">
  <advance width="587.7368421052631"/>
  <unicode hex="0068"/>
  <guideline x="114.36842105263159" y="733.0789473684212" angle="4.470799999999997"/>
  <anchor x="297.55263157894734" y="0.0" name="bottom"/>
  <anchor x="297.55263157894734" y="409.0" name="center"/>
  <anchor x="272.6578947368421" y="729.578947368421" name="top"/>
  <outline>
    <contour>
      <point x="49.368421052631575" y="0.0" type="curve"/>
      <point x="231.07894736842107" y="0.0" type="line"/>
      <point x="222.1578947368421" y="71.05263157894737"/>
      <point x="218.21052631578948" y="132.76315789473685"/>
      <point x="218.21052631578948" y="207.18421052631578" type="curve"/>
      <point x="218.21052631578948" y="309.8157894736842" type="line"/>
      <point x="242.55263157894737" y="342.34210526315786"/>
      <point x="286.42105263157896" y="370.6842105263158"/>
      <point x="311.8421052631579" y="370.6842105263158" type="curve" smooth="yes"/>
      <point x="359.44736842105266" y="370.6842105263158"/>
      <point x="374.97368421052636" y="337.1315789473684"/>
      <point x="374.97368421052636" y="268.10526315789474" type="curve"/>
      <point x="374.97368421052636" y="207.18421052631578" type="line"/>
      <point x="374.97368421052636" y="132.76315789473682"/>
      <point x="371.0263157894737" y="71.05263157894737"/>
      <point x="364.42105263157896" y="0.0" type="curve"/>
      <point x="544.8157894736843" y="0.0" type="line"/>
      <point x="533.921052631579" y="71.05263157894737"/>
      <point x="531.2894736842105" y="132.76315789473682"/>
      <point x="531.2894736842105" y="215.73684210526315" type="curve"/>
      <point x="531.2894736842105" y="250.28947368421052"/>
      <point x="534.921052631579" y="292.2105263157895"/>
      <point x="534.921052631579" y="335.8684210526316" type="curve" smooth="yes"/>
      <point x="534.921052631579" y="453.8157894736842"/>
      <point x="480.42105263157896" y="513.2105263157895"/>
      <point x="379.2894736842106" y="513.2105263157895" type="curve" smooth="yes"/>
      <point x="325.0263157894737" y="513.2105263157895"/>
      <point x="266.7894736842105" y="474.2368421052632"/>
      <point x="231.44736842105263" y="430.9210526315789" type="curve"/>
      <point x="218.21052631578948" y="430.9210526315789" type="line"/>
      <point x="218.21052631578948" y="493.3421052631579" type="line"/>
      <point x="218.21052631578948" y="585.578947368421"/>
      <point x="225.44736842105263" y="669.1842105263157"/>
      <point x="236.34210526315792" y="747.8947368421052" type="curve"/>
      <point x="36.815789473684205" y="730.9736842105264" type="line"/>
      <point x="55.28947368421053" y="651.7368421052632"/>
      <point x="61.89473684210526" y="574.3947368421053"/>
      <point x="61.89473684210526" y="493.3421052631579" type="curve"/>
      <point x="61.89473684210526" y="215.73684210526315" type="line"/>
      <point x="61.89473684210526" y="132.76315789473685"/>
      <point x="57.28947368421053" y="71.05263157894737"/>
    </contour>
  </outline>
</glyph>
<glyph name="k" format="2">
  <advance width="582.4473684210526"/>
  <unicode hex="006B"/>
  <anchor x="291.6842105263158" y="0.0" name="bottom"/>
  <anchor x="291.6842105263158" y="729.578947368421" name="top"/>
  <outline>
    <contour>
      <point x="368.57894736842104" y="0.0" type="curve"/>
      <point x="582.1315789473684" y="0.0" type="line"/>
      <point x="526.578947368421" y="60.94736842105263"/>
      <point x="475.65789473684214" y="122.21052631578948"/>
      <point x="428.3684210526316" y="183.1578947368421" type="curve"/>
      <point x="340.7368421052632" y="299.7894736842105" type="line"/>
      <point x="347.97368421052636" y="230.78947368421052" type="line"/>
      <point x="417.3421052631579" y="319.05263157894734" type="line"/>
      <point x="465.2631578947369" y="379.3421052631579"/>
      <point x="513.5" y="438.6315789473684"/>
      <point x="568.7105263157895" y="499.2631578947368" type="curve"/>
      <point x="367.0263157894737" y="499.2631578947368" type="line"/>
      <point x="345.9210526315789" y="456.1842105263158"/>
      <point x="319.50000000000006" y="413.42105263157896"/>
      <point x="290.13157894736844" y="370.3421052631579" type="curve"/>
      <point x="241.8684210526316" y="300.2105263157895" type="line"/>
      <point x="205.28947368421055" y="300.2105263157895" type="line"/>
      <point x="205.28947368421055" y="197.21052631578948" type="line"/>
      <point x="239.47368421052633" y="197.21052631578948" type="line"/>
      <point x="293.92105263157896" y="121.34210526315789" type="line"/>
      <point x="322.65789473684214" y="80.89473684210526"/>
      <point x="348.4210526315789" y="40.44736842105263"/>
    </contour>
    <contour>
      <point x="49.368421052631575" y="0.0" type="curve"/>
      <point x="231.07894736842107" y="0.0" type="line"/>
      <point x="222.1578947368421" y="63.1578947368421"/>
      <point x="218.21052631578948" y="118.28947368421052"/>
      <point x="218.21052631578948" y="184.81578947368422" type="curve"/>
      <point x="218.21052631578948" y="493.3421052631579" type="line"/>
      <point x="218.21052631578948" y="585.578947368421"/>
      <point x="225.44736842105263" y="669.1842105263157"/>
      <point x="236.34210526315792" y="747.8947368421052" type="curve"/>
      <point x="36.815789473684205" y="730.9736842105264" type="line"/>
      <point x="55.28947368421053" y="651.7368421052632"/>
      <point x="61.89473684210526" y="574.3947368421053"/>
      <point x="61.89473684210526" y="493.3421052631579" type="curve"/>
      <point x="61.89473684210526" y="215.73684210526315" type="line"/>
      <point x="61.89473684210526" y="132.76315789473685"/>
      <point x="57.28947368421053" y="71.05263157894737"/>
    </contour>
  </outline>
</glyph>
<glyph name="l" format="2">
  <advance width="280.10526315789474"/>
  <unicode hex="006C"/>
  <anchor x="140.05263157894737" y="0.0" name="bottom"/>
  <anchor x="143.3421052631579" y="409.0" name="center"/>
  <anchor x="140.05263157894737" y="729.578947368421" name="top"/>
  <anchor x="247.94736842105263" y="499.2631578947368" name="topright"/>
  <outline>
    <contour>
      <point x="49.368421052631575" y="0.0" type="curve"/>
      <point x="231.07894736842107" y="0.0" type="line"/>
      <point x="222.1578947368421" y="71.05263157894737"/>
      <point x="218.21052631578948" y="132.76315789473685"/>
      <point x="218.21052631578948" y="215.73684210526315" type="curve"/>
      <point x="218.21052631578948" y="493.3421052631579" type="line"/>
      <point x="218.21052631578948" y="585.578947368421"/>
      <point x="225.44736842105263" y="669.1842105263157"/>
      <point x="235.0263157894737" y="747.8947368421052" type="curve"/>
      <point x="36.815789473684205" y="730.9736842105264" type="line"/>
      <point x="55.28947368421053" y="651.7368421052631"/>
      <point x="61.89473684210526" y="574.3947368421053"/>
      <point x="61.89473684210526" y="493.3421052631579" type="curve"/>
      <point x="61.89473684210526" y="215.73684210526315" type="line"/>
      <point x="61.89473684210526" y="132.76315789473685"/>
      <point x="57.28947368421053" y="71.05263157894737"/>
    </contour>
  </outline>
</glyph>
<glyph name="m" format="2">
  <advance width="886.2105263157895"/>
  <unicode hex="006D"/>
  <anchor x="449.0263157894737" y="0.0" name="bottom"/>
  <anchor x="449.0263157894737" y="499.2631578947368" name="top"/>
  <outline>
    <contour>
      <point x="54.05263157894737" y="0.0" type="curve"/>
      <point x="235.76315789473685" y="0.0" type="line"/>
      <point x="226.8421052631579" y="71.05263157894737"/>
      <point x="222.89473684210526" y="132.76315789473685"/>
      <point x="222.89473684210526" y="207.18421052631578" type="curve"/>
      <point x="222.89473684210526" y="309.8157894736842" type="line"/>
      <point x="247.23684210526315" y="342.3421052631579"/>
      <point x="287.34210526315786" y="370.6842105263158"/>
      <point x="312.10526315789474" y="370.6842105263158" type="curve" smooth="yes"/>
      <point x="356.0263157894737" y="370.6842105263158"/>
      <point x="370.86842105263156" y="337.1315789473684"/>
      <point x="370.86842105263156" y="268.10526315789474" type="curve"/>
      <point x="370.86842105263156" y="207.18421052631578" type="line"/>
      <point x="370.86842105263156" y="132.76315789473682"/>
      <point x="366.9210526315789" y="71.05263157894737"/>
      <point x="360.31578947368416" y="0.0" type="curve"/>
      <point x="540.7105263157895" y="0.0" type="line"/>
      <point x="529.8157894736843" y="71.05263157894737"/>
      <point x="527.1842105263158" y="132.76315789473682"/>
      <point x="527.1842105263158" y="215.73684210526315" type="curve"/>
      <point x="527.1842105263158" y="250.28947368421052"/>
      <point x="530.8157894736843" y="293.5263157894737"/>
      <point x="530.8157894736843" y="335.8684210526316" type="curve" smooth="yes"/>
      <point x="530.8157894736843" y="359.47368421052636"/>
      <point x="528.5" y="381.42105263157896"/>
      <point x="524.1842105263158" y="400.0526315789474" type="curve"/>
      <point x="512.0" y="401.42105263157896" type="line"/>
      <point x="495.39473684210526" y="476.4736842105263"/>
      <point x="449.42105263157896" y="513.2105263157895"/>
      <point x="379.2368421052632" y="513.2105263157895" type="curve" smooth="yes"/>
      <point x="319.7105263157895" y="513.2105263157895"/>
      <point x="258.3157894736842" y="470.2894736842105"/>
      <point x="217.71052631578945" y="420.39473684210526" type="curve"/>
      <point x="204.4736842105263" y="420.39473684210526" type="line"/>
      <point x="194.81578947368422" y="506.86842105263156" type="line"/>
      <point x="41.13157894736842" y="499.2631578947368" type="line"/>
      <point x="60.63157894736842" y="419.3421052631579"/>
      <point x="66.57894736842105" y="342.0"/>
      <point x="66.57894736842105" y="265.7368421052632" type="curve"/>
      <point x="66.57894736842105" y="215.73684210526315" type="line"/>
      <point x="66.57894736842105" y="132.76315789473685"/>
      <point x="61.973684210526315" y="71.05263157894737"/>
    </contour>
    <contour>
      <point x="662.8947368421052" y="0.0" type="curve"/>
      <point x="843.2894736842105" y="0.0" type="line"/>
      <point x="832.3947368421053" y="71.05263157894737"/>
      <point x="829.7631578947369" y="132.76315789473682"/>
      <point x="829.7631578947369" y="215.73684210526315" type="curve"/>
      <point x="829.7631578947369" y="250.28947368421052"/>
      <point x="833.3947368421053" y="292.2105263157895"/>
      <point x="833.3947368421053" y="335.8684210526316" type="curve" smooth="yes"/>
      <point x="833.3947368421053" y="453.8157894736842"/>
      <point x="778.8947368421052" y="513.2105263157895"/>
      <point x="681.8157894736843" y="513.2105263157895" type="curve" smooth="yes"/>
      <point x="622.2894736842105" y="513.2105263157895"/>
      <point x="559.6052631578948" y="470.9736842105263"/>
      <point x="517.2894736842105" y="419.3684210526316" type="curve"/>
      <point x="502.07894736842104" y="419.3684210526316" type="line"/>
      <point x="524.8157894736843" y="309.8157894736842" type="line"/>
      <point x="549.1578947368421" y="342.34210526315786"/>
      <point x="589.921052631579" y="370.6842105263158"/>
      <point x="614.6842105263157" y="370.6842105263158" type="curve" smooth="yes"/>
      <point x="658.2631578947369" y="370.6842105263158"/>
      <point x="673.4473684210526" y="337.1315789473684"/>
      <point x="673.4473684210526" y="268.10526315789474" type="curve"/>
      <point x="673.4473684210526" y="207.18421052631578" type="line"/>
      <point x="673.4473684210526" y="132.76315789473682"/>
      <point x="669.5" y="71.05263157894737"/>
    </contour>
  </outline>
</glyph>
<glyph name="n" format="2">
  <advance width="592.421052631579"/>
  <unicode hex="006E"/>
  <anchor x="297.2894736842105" y="0.0" name="bottom"/>
  <anchor x="297.2894736842105" y="499.2631578947368" name="top"/>
  <outline>
    <contour>
      <point x="54.05263157894737" y="0.0" type="curve"/>
      <point x="235.76315789473685" y="0.0" type="line"/>
      <point x="226.8421052631579" y="71.05263157894737"/>
      <point x="222.89473684210526" y="132.76315789473685"/>
      <point x="222.89473684210526" y="207.18421052631578" type="curve"/>
      <point x="222.89473684210526" y="309.8157894736842" type="line"/>
      <point x="247.23684210526315" y="342.34210526315786"/>
      <point x="291.10526315789474" y="370.6842105263158"/>
      <point x="316.5263157894737" y="370.6842105263158" type="curve" smooth="yes"/>
      <point x="364.13157894736844" y="370.6842105263158"/>
      <point x="379.65789473684214" y="337.1315789473684"/>
      <point x="379.65789473684214" y="268.10526315789474" type="curve"/>
      <point x="379.65789473684214" y="207.18421052631578" type="line"/>
      <point x="379.65789473684214" y="132.76315789473682"/>
      <point x="375.7105263157895" y="71.05263157894737"/>
      <point x="369.10526315789474" y="0.0" type="curve"/>
      <point x="549.5" y="0.0" type="line"/>
      <point x="538.6052631578948" y="71.05263157894737"/>
      <point x="535.9736842105264" y="132.76315789473682"/>
      <point x="535.9736842105264" y="215.73684210526315" type="curve"/>
      <point x="535.9736842105264" y="250.28947368421052"/>
      <point x="539.6052631578948" y="292.2105263157895"/>
      <point x="539.6052631578948" y="335.8684210526316" type="curve" smooth="yes"/>
      <point x="539.6052631578948" y="453.8157894736842"/>
      <point x="485.10526315789474" y="513.2105263157895"/>
      <point x="383.97368421052636" y="513.2105263157895" type="curve" smooth="yes"/>
      <point x="323.1315789473684" y="513.2105263157895"/>
      <point x="258.3157894736842" y="470.2894736842105"/>
      <point x="217.71052631578945" y="420.39473684210526" type="curve"/>
      <point x="204.4736842105263" y="420.39473684210526" type="line"/>
      <point x="194.81578947368422" y="506.86842105263156" type="line"/>
      <point x="41.13157894736842" y="499.2631578947368" type="line"/>
      <point x="60.63157894736842" y="419.3421052631579"/>
      <point x="66.57894736842105" y="342.0"/>
      <point x="66.57894736842105" y="265.7368421052632" type="curve"/>
      <point x="66.57894736842105" y="215.73684210526315" type="line"/>
      <point x="66.57894736842105" y="132.76315789473685"/>
      <point x="61.973684210526315" y="71.05263157894737"/>
    </contour>
  </outline>
</glyph>
<glyph name="p" format="2">
  <advance width="599.9473684210526"/>
  <unicode hex="0070"/>
  <outline>
    <contour>
      <point x="53.71052631578947" y="-196.6315789473684" type="curve"/>
      <point x="239.05263157894737" y="-192.0" type="line"/>
      <point x="227.5" y="-120.94736842105263"/>
      <point x="222.89473684210526" y="-59.23684210526316"/>
      <point x="222.89473684210526" y="15.184210526315788" type="curve"/>
      <point x="222.89473684210526" y="53.89473684210526" type="line"/>
      <point x="233.5" y="53.89473684210526" type="line"/>
      <point x="273.2894736842106" y="7.815789473684211"/>
      <point x="321.44736842105266" y="-13.605263157894736"/>
      <point x="366.2894736842105" y="-13.605263157894736" type="curve" smooth="yes"/>
      <point x="502.42105263157896" y="-13.605263157894736"/>
      <point x="565.578947368421" y="111.3157894736842"/>
      <point x="565.578947368421" y="250.31578947368422" type="curve" smooth="yes"/>
      <point x="565.578947368421" y="398.63157894736844"/>
      <point x="496.7105263157895" y="513.2105263157895"/>
      <point x="364.94736842105266" y="513.2105263157895" type="curve" smooth="yes"/>
      <point x="308.0789473684211" y="513.2105263157895"/>
      <point x="258.3157894736842" y="483.10526315789474"/>
      <point x="220.6315789473684" y="436.92105263157896" type="curve"/>
      <point x="208.05263157894737" y="436.92105263157896" type="line"/>
      <point x="200.73684210526315" y="506.86842105263156" type="line"/>
      <point x="41.13157894736842" y="499.2631578947368" type="line"/>
      <point x="60.63157894736842" y="419.3421052631579"/>
      <point x="66.57894736842105" y="342.0"/>
      <point x="66.57894736842105" y="265.7368421052632" type="curve"/>
      <point x="66.57894736842105" y="23.736842105263158" type="line"/>
      <point x="66.57894736842105" y="-59.23684210526316"/>
      <point x="61.973684210526315" y="-125.57894736842105"/>
    </contour>
    <contour>
      <point x="306.42105263157896" y="119.05263157894737" type="curve"/>
      <point x="271.6842105263158" y="121.02631578947368"/>
      <point x="243.92105263157896" y="139.57894736842107"/>
      <point x="222.89473684210526" y="172.0263157894737" type="curve"/>
      <point x="222.89473684210526" y="336.63157894736844" type="line"/>
      <point x="245.57894736842107" y="363.39473684210526"/>
      <point x="276.7105263157895" y="377.57894736842104"/>
      <point x="305.7368421052632" y="378.57894736842104" type="curve"/>
      <point x="372.92105263157896" y="375.57894736842104"/>
      <point x="405.63157894736844" y="319.36842105263156"/>
      <point x="405.63157894736844" y="249.0" type="curve" smooth="yes"/>
      <point x="405.63157894736844" y="182.31578947368422"/>
      <point x="373.97368421052636" y="122.05263157894737"/>
    </contour>
  </outline>
</glyph>
<glyph name="q" format="2">
  <advance width="588.2894736842105"/>
  <unicode hex="0071"/>
  <outline>
    <contour>
      <point x="364.18421052631584" y="-196.6315789473684" type="curve"/>
      <point x="546.2368421052631" y="-192.0" type="line"/>
      <point x="537.3157894736842" y="-120.94736842105263"/>
      <point x="533.3684210526316" y="-59.23684210526316"/>
      <point x="533.3684210526316" y="23.736842105263158" type="curve"/>
      <point x="533.3684210526316" y="265.7368421052632" type="line"/>
      <point x="533.3684210526316" y="344.3157894736842"/>
      <point x="539.3157894736842" y="424.63157894736844"/>
      <point x="552.2368421052631" y="506.86842105263156" type="curve"/>
      <point x="399.2105263157895" y="499.2631578947368" type="line"/>
      <point x="391.89473684210526" y="436.92105263157896" type="line"/>
      <point x="379.3157894736842" y="436.92105263157896" type="line"/>
      <point x="341.63157894736844" y="483.10526315789474"/>
      <point x="291.86842105263156" y="513.2105263157895"/>
      <point x="235.0" y="513.2105263157895" type="curve" smooth="yes"/>
      <point x="103.23684210526315" y="513.2105263157895"/>
      <point x="34.368421052631575" y="398.63157894736844"/>
      <point x="34.368421052631575" y="250.31578947368422" type="curve" smooth="yes"/>
      <point x="34.368421052631575" y="111.3157894736842"/>
      <point x="97.52631578947368" y="-13.605263157894736"/>
      <point x="233.6578947368421" y="-13.605263157894736" type="curve" smooth="yes"/>
      <point x="278.5" y="-13.605263157894736"/>
      <point x="326.65789473684214" y="7.815789473684211"/>
      <point x="366.4473684210526" y="53.89473684210527" type="curve"/>
      <point x="377.0526315789474" y="53.89473684210527" type="line"/>
      <point x="377.0526315789474" y="15.184210526315788" type="line"/>
      <point x="377.0526315789474" y="-59.23684210526316"/>
      <point x="372.44736842105266" y="-125.57894736842105"/>
    </contour>
    <contour>
      <point x="293.5263157894737" y="119.05263157894737" type="curve"/>
      <point x="225.9736842105263" y="122.05263157894737"/>
      <point x="194.31578947368422" y="182.31578947368422"/>
      <point x="194.31578947368422" y="249.0" type="curve" smooth="yes"/>
      <point x="194.31578947368422" y="319.36842105263156"/>
      <point x="227.0263157894737" y="375.57894736842104"/>
      <point x="294.2105263157895" y="378.57894736842104" type="curve"/>
      <point x="323.2368421052632" y="377.57894736842104"/>
      <point x="354.36842105263156" y="363.39473684210526"/>
      <point x="377.0526315789474" y="336.63157894736844" type="curve"/>
      <point x="377.0526315789474" y="172.0263157894737" type="line"/>
      <point x="356.0263157894737" y="139.57894736842107"/>
      <point x="328.2631578947369" y="121.02631578947368"/>
    </contour>
  </outline>
</glyph>
<glyph name="r" format="2">
  <advance width="422.94736842105266"/>
  <unicode hex="0072"/>
  <anchor x="137.10526315789474" y="0.0" name="bottom"/>
  <anchor x="235.28947368421052" y="499.2631578947368" name="top"/>
  <outline>
    <contour>
      <point x="54.05263157894737" y="0.0" type="curve"/>
      <point x="235.76315789473685" y="0.0" type="line"/>
      <point x="226.8421052631579" y="71.05263157894737"/>
      <point x="222.89473684210526" y="132.76315789473685"/>
      <point x="222.89473684210526" y="207.18421052631578" type="curve"/>
      <point x="222.89473684210526" y="284.7894736842105" type="line"/>
      <point x="250.65789473684214" y="341.55263157894734"/>
      <point x="293.6578947368421" y="355.55263157894734"/>
      <point x="323.7631578947369" y="355.55263157894734" type="curve" smooth="yes"/>
      <point x="340.7631578947368" y="355.55263157894734"/>
      <point x="368.65789473684214" y="347.92105263157896"/>
      <point x="392.5789473684211" y="340.2631578947369" type="curve"/>
      <point x="406.10526315789474" y="503.89473684210526" type="line"/>
      <point x="389.10526315789474" y="511.52631578947364"/>
      <point x="368.47368421052636" y="513.2105263157895"/>
      <point x="354.0526315789474" y="513.2105263157895" type="curve" smooth="yes"/>
      <point x="311.0526315789474" y="513.2105263157895"/>
      <point x="261.4473684210526" y="487.63157894736844"/>
      <point x="216.6842105263158" y="415.60526315789474" type="curve"/>
      <point x="203.78947368421052" y="415.60526315789474" type="line"/>
      <point x="194.81578947368422" y="506.86842105263156" type="line"/>
      <point x="41.13157894736842" y="499.2631578947368" type="line"/>
      <point x="60.63157894736842" y="419.3421052631579"/>
      <point x="66.57894736842105" y="342.0"/>
      <point x="66.57894736842105" y="265.7368421052632" type="curve"/>
      <point x="66.57894736842105" y="215.73684210526315" type="line"/>
      <point x="66.57894736842105" y="132.76315789473685"/>
      <point x="61.973684210526315" y="71.05263157894737"/>
    </contour>
  </outline>
</glyph>
<glyph name="s" format="2">
  <advance width="467.2718446601942"/>
  <unicode hex="0073"/>
  <anchor x="236.05825242718444" y="0.0" name="bottom"/>
  <anchor x="236.05825242718444" y="499.47572815533977" name="top"/>
  <outline>
    <contour>
      <point x="227.26213592233012" y="-13.475728155339805" type="curve" smooth="yes"/>
      <point x="376.69902912621365" y="-13.475728155339805"/>
      <point x="439.126213592233" y="52.262135922330096"/>
      <point x="439.126213592233" y="149.47572815533982" type="curve" smooth="yes"/>
      <point x="439.126213592233" y="234.09708737864077"/>
      <point x="391.7669902912622" y="262.52427184466023"/>
      <point x="282.86407766990294" y="291.8932038834952" type="curve" smooth="yes"/>
      <point x="216.03883495145632" y="309.83495145631065"/>
      <point x="202.25242718446603" y="323.3592233009709"/>
      <point x="202.25242718446603" y="348.5631067961165" type="curve" smooth="yes"/>
      <point x="202.25242718446603" y="377.3398058252427"/>
      <point x="230.92233009708738" y="387.12621359223294"/>
      <point x="257.4368932038835" y="389.12621359223294" type="curve"/>
      <point x="282.4368932038835" y="389.12621359223294"/>
      <point x="337.9126213592233" y="375.3883495145631"/>
      <point x="399.65048543689323" y="345.75728155339806" type="curve"/>
      <point x="409.495145631068" y="483.1650485436893" type="line"/>
      <point x="369.0194174757281" y="493.32038834951453"/>
      <point x="287.2718446601942" y="512.5825242718447"/>
      <point x="225.84466019417476" y="512.5825242718447" type="curve" smooth="yes"/>
      <point x="111.88349514563106" y="512.5825242718447"/>
      <point x="41.776699029126206" y="453.368932038835"/>
      <point x="41.776699029126206" y="352.52427184466023" type="curve" smooth="yes"/>
      <point x="41.776699029126206" y="267.4271844660194"/>
      <point x="88.13592233009707" y="229.2621359223301"/>
      <point x="178.40776699029126" y="206.15533980582524" type="curve" smooth="yes"/>
      <point x="255.07766990291262" y="186.4757281553398"/>
      <point x="280.3883495145631" y="177.68932038834953"/>
      <point x="280.3883495145631" y="150.48543689320388" type="curve" smooth="yes"/>
      <point x="280.3883495145631" y="114.29126213592234"/>
      <point x="250.61165048543688" y="108.29126213592234"/>
      <point x="216.3106796116505" y="106.29126213592234" type="curve"/>
      <point x="171.04854368932038" y="106.29126213592234"/>
      <point x="104.99029126213591" y="126.76699029126216"/>
      <point x="50.728155339805824" y="153.76699029126215" type="curve"/>
      <point x="41.252427184466015" y="17.310679611650485" type="line"/>
      <point x="82.62135922330097" y="7.417475728155339"/>
      <point x="144.09708737864077" y="-13.475728155339805"/>
    </contour>
  </outline>
</glyph>
<glyph name="t" format="2">
  <advance width="423.6842105263158"/>
  <unicode hex="0074"/>
  <anchor x="233.71052631578948" y="0.0" name="bottom"/>
  <anchor x="217.5" y="249.6315789473684" name="center"/>
  <anchor x="208.1578947368421" y="660.8421052631579" name="top"/>
  <anchor x="275.5263157894737" y="499.2631578947368" name="topright"/>
  <outline>
    <contour>
      <point x="274.9736842105263" y="-13.605263157894736" type="curve" smooth="yes"/>
      <point x="319.86842105263156" y="-13.605263157894736"/>
      <point x="373.6842105263158" y="-0.2631578947368425"/>
      <point x="399.89473684210526" y="9.078947368421051" type="curve"/>
      <point x="391.2631578947368" y="137.18421052631578" type="line"/>
      <point x="366.92105263157896" y="123.15789473684211"/>
      <point x="338.4473684210526" y="113.78947368421053"/>
      <point x="319.7368421052632" y="113.78947368421053" type="curve" smooth="yes"/>
      <point x="272.39473684210526" y="113.78947368421053"/>
      <point x="251.5263157894737" y="144.89473684210526"/>
      <point x="251.5263157894737" y="204.8421052631579" type="curve" smooth="yes"/>
      <point x="251.5263157894737" y="460.2631578947368" type="line"/>
      <point x="251.5263157894737" y="550.0"/>
      <point x="255.47368421052633" y="611.7631578947368"/>
      <point x="264.0526315789474" y="690.0" type="curve"/>
      <point x="84.3157894736842" y="659.921052631579" type="line"/>
      <point x="92.57894736842104" y="594.0"/>
      <point x="97.18421052631578" y="536.7368421052631"/>
      <point x="97.18421052631578" y="460.2631578947368" type="curve"/>
      <point x="97.18421052631578" y="329.13157894736844"/>
      <point x="93.55263157894736" y="239.26315789473682"/>
      <point x="93.55263157894736" y="154.8684210526316" type="curve" smooth="yes"/>
      <point x="93.55263157894736" y="32.815789473684205"/>
      <point x="156.6842105263158" y="-13.605263157894736"/>
    </contour>
    <contour>
      <point x="17.81578947368421" y="369.57894736842104" type="line"/>
      <point x="143.6315789473684" y="385.7631578947368" type="line"/>
      <point x="213.4736842105263" y="385.7631578947368" type="line"/>
      <point x="271.60526315789474" y="384.4473684210526"/>
      <point x="335.39473684210526" y="379.49999999999994"/>
      <point x="397.5" y="369.57894736842104" type="curve"/>
      <point x="397.5" y="499.2631578947368" type="line"/>
      <point x="17.81578947368421" y="499.2631578947368" type="line"/>
    </contour>
  </outline>
</glyph>
<glyph name="u" format="2">
  <advance width="579.2631578947368"/>
  <unicode hex="0075"/>
  <anchor x="287.5" y="0.0" name="bottom"/>
  <anchor x="528.4473684210526" y="0.0" name="ogonek"/>
  <anchor x="287.5" y="499.2631578947368" name="top"/>
  <anchor x="555.5" y="499.2631578947368" name="topright"/>
  <outline>
    <contour>
      <point x="203.84210526315792" y="-13.605263157894736" type="curve" smooth="yes"/>
      <point x="259.6842105263158" y="-13.605263157894736"/>
      <point x="324.5" y="29.315789473684205"/>
      <point x="365.10526315789474" y="79.21052631578947" type="curve"/>
      <point x="378.3421052631579" y="79.21052631578947" type="line"/>
      <point x="385.9473684210526" y="0.0" type="line"/>
      <point x="532.3947368421053" y="0.0" type="line"/>
      <point x="523.4736842105264" y="71.05263157894737"/>
      <point x="519.5263157894736" y="132.76315789473685"/>
      <point x="519.5263157894736" y="215.73684210526315" type="curve"/>
      <point x="519.5263157894736" y="272.3157894736842" type="line"/>
      <point x="519.5263157894736" y="365.8157894736842"/>
      <point x="524.7894736842105" y="428.2105263157895"/>
      <point x="533.7105263157895" y="499.2631578947368" type="curve"/>
      <point x="351.6578947368421" y="499.2631578947368" type="line"/>
      <point x="358.60526315789474" y="428.2105263157895"/>
      <point x="363.2105263157895" y="365.8157894736842"/>
      <point x="363.2105263157895" y="292.0526315789474" type="curve"/>
      <point x="363.2105263157895" y="186.5" type="line"/>
      <point x="338.86842105263156" y="153.97368421052633"/>
      <point x="295.0" y="125.63157894736842"/>
      <point x="271.2894736842105" y="125.63157894736842" type="curve" smooth="yes"/>
      <point x="223.6842105263158" y="125.63157894736842"/>
      <point x="208.15789473684214" y="159.18421052631578"/>
      <point x="208.15789473684214" y="228.21052631578948" type="curve"/>
      <point x="208.15789473684214" y="292.0526315789474" type="line"/>
      <point x="208.15789473684214" y="365.8157894736842"/>
      <point x="212.10526315789477" y="432.8421052631579"/>
      <point x="219.7105263157895" y="503.89473684210526" type="curve"/>
      <point x="37.65789473684211" y="499.2631578947368" type="line"/>
      <point x="45.921052631578945" y="428.2105263157895"/>
      <point x="51.8421052631579" y="365.8157894736842"/>
      <point x="51.8421052631579" y="272.3157894736842" type="curve"/>
      <point x="51.8421052631579" y="236.73684210526315"/>
      <point x="49.526315789473685" y="207.39473684210526"/>
      <point x="49.526315789473685" y="163.73684210526315" type="curve" smooth="yes"/>
      <point x="49.526315789473685" y="45.78947368421053"/>
      <point x="102.71052631578948" y="-13.605263157894736"/>
    </contour>
  </outline>
</glyph>
<glyph name="w" format="2">
  <advance width="837.6315789473684"/>
  <unicode hex="0077"/>
  <anchor x="418.34210526315786" y="0.0" name="bottom"/>
  <anchor x="418.34210526315786" y="499.2631578947368" name="top"/>
  <outline>
    <contour>
      <point x="164.18421052631578" y="0.0" type="curve"/>
      <point x="344.3684210526316" y="0.0" type="line"/>
      <point x="353.60526315789474" y="58.421052631578945"/>
      <point x="367.1842105263158" y="122.21052631578947"/>
      <point x="380.7105263157895" y="178.94736842105263" type="curve"/>
      <point x="407.42105263157896" y="290.07894736842104" type="line"/>
      <point x="418.6842105263158" y="290.07894736842104" type="line"/>
      <point x="446.05263157894734" y="180.28947368421052" type="line"/>
      <point x="460.57894736842104" y="123.55263157894737"/>
      <point x="476.47368421052636" y="58.421052631578945"/>
      <point x="486.7105263157894" y="0.0" type="curve"/>
      <point x="674.4736842105262" y="0.0" type="line"/>
      <point x="688.2105263157895" y="61.0"/>
      <point x="705.921052631579" y="126.3157894736842"/>
      <point x="726.2631578947369" y="190.97368421052633" type="curve"/>
      <point x="753.9473684210526" y="278.63157894736844" type="line"/>
      <point x="777.2894736842105" y="351.94736842105266"/>
      <point x="800.9736842105264" y="424.94736842105266"/>
      <point x="832.2631578947368" y="499.2631578947368" type="curve"/>
      <point x="646.8947368421052" y="499.2631578947368" type="line"/>
      <point x="638.0" y="438.3157894736842"/>
      <point x="624.3947368421052" y="361.60526315789474"/>
      <point x="609.5263157894736" y="294.2894736842105" type="curve"/>
      <point x="580.1315789473684" y="161.6578947368421" type="line"/>
      <point x="568.5526315789474" y="161.6578947368421" type="line"/>
      <point x="539.1578947368421" y="292.63157894736844" type="line"/>
      <point x="524.2894736842105" y="360.94736842105266"/>
      <point x="509.39473684210526" y="432.94736842105266"/>
      <point x="498.5" y="499.2631578947368" type="curve"/>
      <point x="342.7368421052632" y="499.2631578947368" type="line"/>
      <point x="331.5" y="429.92105263157896"/>
      <point x="317.2894736842105" y="360.92105263157896"/>
      <point x="302.42105263157896" y="291.9473684210526" type="curve"/>
      <point x="273.7105263157895" y="161.6578947368421" type="line"/>
      <point x="262.13157894736844" y="161.6578947368421" type="line"/>
      <point x="232.42105263157896" y="290.2368421052632" type="line"/>
      <point x="216.55263157894737" y="358.5526315789474"/>
      <point x="200.97368421052633" y="435.92105263157896"/>
      <point x="190.39473684210526" y="503.89473684210526" type="curve"/>
      <point x="5.368421052631579" y="499.2631578947368" type="line"/>
      <point x="37.315789473684205" y="424.60526315789474"/>
      <point x="61.315789473684205" y="352.94736842105266"/>
      <point x="84.34210526315789" y="278.63157894736844" type="curve"/>
      <point x="111.71052631578948" y="189.97368421052633" type="line"/>
      <point x="131.73684210526315" y="125.97368421052632"/>
      <point x="150.10526315789474" y="62.6578947368421"/>
    </contour>
  </outline>
</glyph>
<glyph name="x" format="2">
  <advance width="577.7631578947369"/>
  <unicode hex="0078"/>
  <outline>
    <contour>
      <point x="11.973684210526311" y="0.0" type="curve"/>
      <point x="201.3684210526316" y="0.0" type="line"/>
      <point x="214.3157894736842" y="38.473684210526315"/>
      <point x="225.5263157894737" y="65.26315789473685"/>
      <point x="242.13157894736844" y="103.07894736842105" type="curve"/>
      <point x="275.2894736842105" y="174.36842105263156" type="line"/>
      <point x="285.5526315789474" y="174.36842105263156" type="line"/>
      <point x="323.07894736842104" y="99.07894736842105" type="line"/>
      <point x="340.68421052631584" y="63.57894736842105"/>
      <point x="352.89473684210526" y="35.473684210526315"/>
      <point x="366.84210526315786" y="0.0" type="curve"/>
      <point x="569.078947368421" y="0.0" type="line"/>
      <point x="517.3947368421052" y="66.94736842105263"/>
      <point x="489.3421052631579" y="107.92105263157895"/>
      <point x="457.60526315789474" y="156.55263157894737" type="curve"/>
      <point x="380.44736842105266" y="275.7894736842105" type="line"/>
      <point x="388.6842105263158" y="242.71052631578948" type="line"/>
      <point x="457.8157894736842" y="351.0" type="line"/>
      <point x="490.2105263157895" y="401.9736842105263"/>
      <point x="510.5789473684211" y="433.2894736842105"/>
      <point x="558.6315789473683" y="499.2631578947368" type="curve"/>
      <point x="368.2368421052632" y="499.2631578947368" type="line"/>
      <point x="355.2894736842105" y="460.13157894736844"/>
      <point x="342.7631578947369" y="432.0263157894737"/>
      <point x="325.86842105263156" y="394.92105263157896" type="curve"/>
      <point x="292.7631578947368" y="326.6578947368421" type="line"/>
      <point x="281.5263157894737" y="326.6578947368421" type="line"/>
      <point x="247.10526315789474" y="395.89473684210526" type="line"/>
      <point x="229.55263157894737" y="432.3421052631579"/>
      <point x="215.0526315789474" y="464.39473684210526"/>
      <point x="201.07894736842107" y="503.89473684210526" type="curve"/>
      <point x="10.052631578947366" y="499.2631578947368" type="line"/>
      <point x="56.44736842105263" y="436.60526315789474"/>
      <point x="80.8157894736842" y="398.9736842105263"/>
      <point x="111.57894736842104" y="348.9736842105263" type="curve"/>
      <point x="177.42105263157896" y="241.3421052631579" type="line"/>
      <point x="177.07894736842104" y="275.10526315789474" type="line"/>
      <point x="111.52631578947368" y="158.8684210526316" type="line"/>
      <point x="81.76315789473685" y="106.57894736842105"/>
      <point x="59.36842105263158" y="69.60526315789474"/>
    </contour>
  </outline>
</glyph>
<glyph name="y" format="2">
  <advance width="554.6052631578948"/>
  <unicode hex="0079"/>
  <anchor x="444.7368421052632" y="0.0" name="bottom"/>
  <anchor x="278.94736842105266" y="499.2631578947368" name="top"/>
  <outline>
    <contour>
      <point x="98.68421052631578" y="-196.6315789473684" type="curve"/>
      <point x="284.39473684210526" y="-192.0" type="line"/>
      <point x="304.5" y="-120.0"/>
      <point x="335.8421052631579" y="-36.368421052631575"/>
      <point x="384.86842105263156" y="90.63157894736842" type="curve"/>
      <point x="438.89473684210526" y="230.94736842105263" type="line"/>
      <point x="486.92105263157896" y="356.60526315789474"/>
      <point x="511.2631578947369" y="418.2631578947368"/>
      <point x="546.6052631578947" y="499.2631578947368" type="curve"/>
      <point x="366.1578947368421" y="499.2631578947368" type="line"/>
      <point x="354.5263157894737" y="430.60526315789474"/>
      <point x="337.60526315789474" y="364.60526315789474"/>
      <point x="318.6842105263158" y="295.2631578947369" type="curve"/>
      <point x="282.5263157894737" y="163.28947368421055" type="line"/>
      <point x="269.94736842105266" y="163.28947368421055" type="line"/>
      <point x="237.1578947368421" y="295.57894736842104" type="line"/>
      <point x="219.57894736842104" y="366.57894736842104"/>
      <point x="203.68421052631578" y="432.89473684210526"/>
      <point x="191.71052631578948" y="503.89473684210526" type="curve"/>
      <point x="8.0" y="499.2631578947368" type="line"/>
      <point x="39.97368421052631" y="428.2631578947368"/>
      <point x="67.6578947368421" y="352.2631578947368"/>
      <point x="93.34210526315789" y="279.94736842105266" type="curve"/>
      <point x="124.71052631578948" y="189.94736842105263" type="line"/>
      <point x="148.39473684210526" y="123.28947368421052"/>
      <point x="173.42105263157896" y="52.28947368421053"/>
      <point x="190.52631578947367" y="-16.36842105263158" type="curve"/>
      <point x="197.44736842105263" y="12.447368421052634" type="line"/>
      <point x="171.1315789473684" y="-55.815789473684205"/>
      <point x="139.18421052631578" y="-128.3684210526316"/>
    </contour>
  </outline>
</glyph>
<glyph name="z" format="2">
  <advance width="517.5263157894736"/>
  <unicode hex="007A"/>
  <anchor x="257.42105263157896" y="0.0" name="bottom"/>
  <anchor x="257.42105263157896" y="249.6315789473684" name="center"/>
  <anchor x="257.42105263157896" y="499.2631578947368" name="top"/>
  <outline>
    <contour>
      <point x="30.842105263157894" y="0.0" type="line"/>
      <point x="488.0526315789474" y="0.0" type="line"/>
      <point x="488.0526315789474" y="132.31578947368422" type="line"/>
      <point x="430.5" y="120.44736842105264"/>
      <point x="352.86842105263156" y="114.8421052631579"/>
      <point x="306.0263157894737" y="114.8421052631579" type="curve"/>
      <point x="202.63157894736844" y="114.8421052631579" type="line"/>
      <point x="218.81578947368422" y="80.84210526315789" type="line"/>
      <point x="344.86842105263156" y="245.1315789473684" type="line"/>
      <point x="384.39473684210526" y="296.39473684210526"/>
      <point x="436.94736842105266" y="357.10526315789474"/>
      <point x="473.6842105263158" y="394.6578947368421" type="curve"/>
      <point x="473.6842105263158" y="499.2631578947368" type="line"/>
      <point x="35.44736842105263" y="499.2631578947368" type="line"/>
      <point x="35.44736842105263" y="363.6578947368421" type="line"/>
      <point x="98.34210526315789" y="377.84210526315786"/>
      <point x="178.28947368421052" y="383.7631578947368"/>
      <point x="224.78947368421052" y="383.7631578947368" type="curve"/>
      <point x="319.7894736842105" y="383.7631578947368" type="line"/>
      <point x="299.63157894736844" y="426.10526315789474" type="line"/>
      <point x="167.3421052631579" y="252.28947368421052" type="line"/>
      <point x="130.1578947368421" y="203.05263157894737"/>
      <point x="82.97368421052632" y="147.42105263157896"/>
      <point x="30.842105263157894" y="92.07894736842107" type="curve"/>
    </contour>
  </outline>
</glyph>
<glyph name="braceleft" format="2">
  <advance width="449.63157894736844"/>
  <unicode hex="007B"/>
  <outline>
    <contour>
      <point x="324.4736842105263" y="-123.84210526315789" type="curve" smooth="yes"/>
      <point x="426.4736842105263" y="-123.84210526315789" type="line"/>
      <point x="426.4736842105263" y="3.868421052631586" type="line"/>
      <point x="392.4736842105263" y="0.8947368421052699"/>
      <point x="365.8157894736842" y="0.23684210526316463"/>
      <point x="348.8157894736842" y="0.23684210526316463" type="curve"/>
      <point x="301.7894736842105" y="2.5526315789473752"/>
      <point x="280.57894736842104" y="24.684210526315795"/>
      <point x="279.2631578947368" y="70.23684210526316" type="curve" smooth="yes"/>
      <point x="276.2894736842105" y="176.68421052631578" type="line" smooth="yes"/>
      <point x="273.0" y="254.02631578947367"/>
      <point x="245.28947368421052" y="293.4473684210526"/>
      <point x="182.57894736842104" y="319.6842105263158" type="curve"/>
      <point x="182.57894736842104" y="331.60526315789474" type="line"/>
      <point x="245.28947368421052" y="358.1578947368421"/>
      <point x="273.0" y="395.2894736842105"/>
      <point x="276.2894736842105" y="474.2631578947368" type="curve" smooth="yes"/>
      <point x="279.2631578947368" y="581.0526315789474" type="line" smooth="yes"/>
      <point x="280.57894736842104" y="626.6052631578947"/>
      <point x="301.7894736842105" y="648.7368421052632"/>
      <point x="348.8157894736842" y="651.0526315789474" type="curve"/>
      <point x="366.1578947368421" y="651.0526315789474"/>
      <point x="392.5" y="650.3947368421053"/>
      <point x="423.1842105263158" y="647.421052631579" type="curve"/>
      <point x="423.1842105263158" y="775.1315789473684" type="line"/>
      <point x="324.4736842105263" y="775.1315789473684" type="line" smooth="yes"/>
      <point x="205.8684210526316" y="775.1315789473684"/>
      <point x="129.81578947368422" y="715.6578947368421"/>
      <point x="129.81578947368422" y="609.3421052631579" type="curve"/>
      <point x="129.81578947368422" y="562.1315789473684"/>
      <point x="134.10526315789474" y="515.578947368421"/>
      <point x="134.10526315789474" y="468.36842105263156" type="curve"/>
      <point x="134.10526315789474" y="408.10526315789474"/>
      <point x="100.84210526315789" y="380.7631578947368"/>
      <point x="56.421052631578945" y="380.7631578947368" type="curve" smooth="yes"/>
      <point x="16.578947368421055" y="380.7631578947368" type="line"/>
      <point x="16.578947368421055" y="270.1842105263158" type="line"/>
      <point x="56.421052631578945" y="270.1842105263158" type="line" smooth="yes"/>
      <point x="100.84210526315789" y="270.1842105263158"/>
      <point x="134.10526315789474" y="242.8421052631579"/>
      <point x="134.10526315789474" y="182.57894736842104" type="curve"/>
      <point x="134.10526315789474" y="135.3684210526316"/>
      <point x="129.81578947368422" y="89.15789473684211"/>
      <point x="129.81578947368422" y="41.94736842105263" type="curve"/>
      <point x="129.81578947368422" y="-64.36842105263158"/>
      <point x="205.8684210526316" y="-123.84210526315789"/>
    </contour>
  </outline>
</glyph>
<glyph name="bar" format="2">
  <advance width="284.2105263157895"/>
  <unicode hex="007C"/>
  <outline>
    <contour>
      <point x="65.89473684210526" y="-160.57894736842104" type="curve"/>
      <point x="218.31578947368422" y="-160.57894736842104" type="line"/>
      <point x="210.3947368421053" y="-42.578947368421055"/>
      <point x="209.73684210526318" y="60.421052631578945"/>
      <point x="209.73684210526318" y="168.42105263157896" type="curve"/>
      <point x="209.73684210526318" y="450.42105263157896" type="line"/>
      <point x="209.73684210526318" y="558.421052631579"/>
      <point x="210.3947368421053" y="661.421052631579"/>
      <point x="218.31578947368422" y="779.421052631579" type="curve"/>
      <point x="65.89473684210526" y="779.421052631579" type="line"/>
      <point x="73.8157894736842" y="661.421052631579"/>
      <point x="74.47368421052632" y="558.421052631579"/>
      <point x="74.47368421052632" y="450.42105263157896" type="curve"/>
      <point x="74.47368421052632" y="168.42105263157896" type="line"/>
      <point x="74.47368421052632" y="60.421052631578945"/>
      <point x="73.8157894736842" y="-42.578947368421055"/>
    </contour>
  </outline>
</glyph>
<glyph name="cent" format="2">
  <advance width="483.57894736842104"/>
  <unicode hex="00A2"/>
  <outline>
    <contour>
      <point x="323.5" y="18.26315789473685" type="curve"/>
      <point x="236.10526315789474" y="18.26315789473685" type="line"/>
      <point x="235.76315789473682" y="-14.289473684210527"/>
      <point x="232.78947368421052" y="-47.86842105263158"/>
      <point x="227.5263157894737" y="-87.05263157894737" type="curve"/>
      <point x="332.07894736842104" y="-87.05263157894737" type="line"/>
      <point x="326.8157894736842" y="-47.868421052631575"/>
      <point x="323.8421052631579" y="-14.28947368421052"/>
    </contour>
    <contour>
      <point x="225.5" y="436.60526315789474" type="curve"/>
      <point x="334.10526315789474" y="436.60526315789474" type="line"/>
      <point x="334.10526315789474" y="497.7368421052632"/>
      <point x="337.07894736842104" y="559.5263157894736"/>
      <point x="342.0263157894737" y="626.2894736842105" type="curve"/>
      <point x="217.57894736842104" y="626.2894736842105" type="line"/>
      <point x="222.52631578947367" y="559.5263157894736"/>
      <point x="225.5" y="497.7368421052632"/>
    </contour>
    <contour>
      <point x="296.7631578947368" y="-10.973684210526315" type="curve" smooth="yes"/>
      <point x="353.44736842105266" y="-10.973684210526315"/>
      <point x="411.36842105263156" y="4.447368421052631"/>
      <point x="450.3157894736842" y="13.842105263157894" type="curve"/>
      <point x="442.6578947368421" y="149.1842105263158" type="line"/>
      <point x="405.5" y="128.44736842105263"/>
      <point x="364.42105263157896" y="117.07894736842105"/>
      <point x="336.2368421052631" y="117.07894736842105" type="curve" smooth="yes"/>
      <point x="244.8947368421053" y="118.76315789473685"/>
      <point x="192.34210526315792" y="172.0"/>
      <point x="192.34210526315792" y="253.26315789473685" type="curve" smooth="yes"/>
      <point x="192.34210526315792" y="331.05263157894734"/>
      <point x="238.1315789473684" y="377.55263157894734"/>
      <point x="303.89473684210526" y="380.55263157894734" type="curve"/>
      <point x="327.2631578947369" y="380.55263157894734"/>
      <point x="376.3421052631579" y="368.5526315789474"/>
      <point x="439.6842105263158" y="338.89473684210526" type="curve"/>
      <point x="450.57894736842104" y="477.5263157894737" type="line"/>
      <point x="409.2894736842105" y="492.5263157894737"/>
      <point x="346.6315789473684" y="512.5526315789474"/>
      <point x="285.7894736842105" y="512.5526315789474" type="curve" smooth="yes"/>
      <point x="119.73684210526316" y="512.5526315789474"/>
      <point x="33.05263157894737" y="400.2368421052632"/>
      <point x="33.05263157894737" y="248.6578947368421" type="curve" smooth="yes"/>
      <point x="33.05263157894737" y="98.07894736842105"/>
      <point x="129.92105263157896" y="-10.973684210526315"/>
    </contour>
  </outline>
</glyph>
<glyph name="sterling" format="2">
  <advance width="607.9473684210526"/>
  <unicode hex="00A3"/>
  <outline>
    <contour>
      <point x="48.68421052631579" y="0.0" type="line"/>
      <point x="576.2368421052631" y="0.0" type="line"/>
      <point x="576.2368421052631" y="156.6842105263158" type="line"/>
      <point x="495.13157894736844" y="143.15789473684214"/>
      <point x="424.36842105263156" y="141.84210526315792"/>
      <point x="302.5526315789474" y="141.84210526315792" type="curve"/>
      <point x="168.3684210526316" y="141.84210526315792" type="line"/>
      <point x="179.94736842105263" y="115.60526315789474" type="line"/>
      <point x="279.3421052631579" y="184.10526315789477"/>
      <point x="286.6578947368421" y="241.23684210526315"/>
      <point x="286.6578947368421" y="292.0263157894737" type="curve" smooth="yes"/>
      <point x="286.6578947368421" y="432.3421052631579" type="line" smooth="yes"/>
      <point x="286.6578947368421" y="522.3684210526316"/>
      <point x="327.5526315789474" y="561.6842105263157"/>
      <point x="402.4736842105263" y="564.6578947368421" type="curve"/>
      <point x="425.8421052631579" y="564.6578947368421"/>
      <point x="474.2631578947369" y="553.3157894736842"/>
      <point x="536.9473684210527" y="525.6315789473684" type="curve"/>
      <point x="552.4736842105262" y="667.8684210526316" type="line"/>
      <point x="511.5" y="682.8684210526316"/>
      <point x="449.5" y="702.578947368421"/>
      <point x="388.9736842105263" y="702.578947368421" type="curve" smooth="yes"/>
      <point x="208.05263157894737" y="702.578947368421"/>
      <point x="118.47368421052632" y="610.1578947368421"/>
      <point x="118.47368421052632" y="438.3157894736842" type="curve" smooth="yes"/>
      <point x="118.47368421052632" y="372.4473684210526"/>
      <point x="121.44736842105263" y="307.57894736842104"/>
      <point x="121.44736842105263" y="242.3684210526316" type="curve"/>
      <point x="121.44736842105263" y="202.23684210526318"/>
      <point x="117.10526315789474" y="146.71052631578948"/>
      <point x="48.68421052631579" y="88.1842105263158" type="curve"/>
    </contour>
    <contour>
      <point x="50.868421052631575" y="305.81578947368416" type="line"/>
      <point x="120.05263157894737" y="311.10526315789474"/>
      <point x="185.57894736842104" y="311.7631578947368"/>
      <point x="242.44736842105263" y="311.7631578947368" type="curve"/>
      <point x="281.6578947368421" y="311.7631578947368" type="line"/>
      <point x="338.5263157894737" y="311.7631578947368"/>
      <point x="404.0526315789474" y="311.10526315789474"/>
      <point x="473.2368421052632" y="305.81578947368416" type="curve"/>
      <point x="473.2368421052632" y="425.97368421052636" type="line"/>
      <point x="404.0526315789474" y="420.6842105263158"/>
      <point x="338.5263157894737" y="420.0263157894737"/>
      <point x="281.6578947368421" y="420.0263157894737" type="curve"/>
      <point x="242.44736842105263" y="420.0263157894737" type="line"/>
      <point x="185.57894736842104" y="420.0263157894737"/>
      <point x="120.05263157894737" y="420.6842105263158"/>
      <point x="50.868421052631575" y="425.97368421052636" type="curve"/>
    </contour>
  </outline>
</glyph>
<glyph name="currency" format="2">
  <advance width="655.2631578947369"/>
  <unicode hex="00A4"/>
  <outline>
    <contour>
      <point x="326.2894736842105" y="95.13157894736841" type="curve" smooth="yes"/>
      <point x="465.2105263157895" y="95.13157894736841"/>
      <point x="563.3157894736842" y="174.39473684210526"/>
      <point x="563.3157894736842" y="321.3157894736842" type="curve" smooth="yes"/>
      <point x="563.3157894736842" y="452.7368421052632"/>
      <point x="465.5526315789474" y="545.2105263157895"/>
      <point x="328.2894736842105" y="545.2105263157895" type="curve" smooth="yes"/>
      <point x="189.02631578947367" y="545.2105263157895"/>
      <point x="91.26315789473685" y="455.6842105263158"/>
      <point x="91.26315789473685" y="321.3157894736842" type="curve" smooth="yes"/>
      <point x="91.26315789473685" y="175.05263157894737"/>
      <point x="189.02631578947367" y="95.13157894736841"/>
    </contour>
    <contour>
      <point x="131.6315789473684" y="17.447368421052623" type="line"/>
      <point x="176.55263157894737" y="69.9736842105263"/>
      <point x="222.13157894736844" y="116.86842105263158"/>
      <point x="262.36842105263156" y="157.10526315789474" type="curve"/>
      <point x="164.39473684210526" y="255.07894736842104" type="line"/>
      <point x="124.15789473684211" y="214.8421052631579"/>
      <point x="77.26315789473684" y="169.26315789473685"/>
      <point x="24.736842105263154" y="124.3421052631579" type="curve"/>
    </contour>
    <contour>
      <point x="326.94736842105266" y="221.8684210526316" type="curve"/>
      <point x="271.86842105263156" y="226.5"/>
      <point x="229.84210526315792" y="257.39473684210526"/>
      <point x="229.84210526315792" y="320.6578947368421" type="curve" smooth="yes"/>
      <point x="229.84210526315792" y="377.9210526315789"/>
      <point x="272.2105263157895" y="414.5"/>
      <point x="327.63157894736844" y="419.13157894736844" type="curve"/>
      <point x="383.3684210526316" y="414.5"/>
      <point x="424.7368421052632" y="376.60526315789474"/>
      <point x="424.7368421052632" y="320.6578947368421" type="curve" smooth="yes"/>
      <point x="424.7368421052632" y="257.39473684210526"/>
      <point x="382.7105263157895" y="226.5"/>
    </contour>
    <contour>
      <point x="165.71052631578948" y="386.92105263157896" type="curve"/>
      <point x="261.0526315789474" y="482.2631578947368" type="line"/>
      <point x="220.81578947368422" y="522.5"/>
      <point x="175.23684210526315" y="569.3947368421052"/>
      <point x="130.31578947368422" y="621.921052631579" type="curve"/>
      <point x="26.052631578947366" y="517.6578947368421" type="line"/>
      <point x="78.57894736842104" y="472.7368421052632"/>
      <point x="125.47368421052632" y="427.1578947368421"/>
    </contour>
    <contour>
      <point x="524.9473684210526" y="18.763157894736835" type="curve"/>
      <point x="629.2105263157895" y="123.02631578947368" type="line"/>
      <point x="576.6842105263157" y="167.94736842105263"/>
      <point x="529.7894736842105" y="213.5263157894737"/>
      <point x="489.5526315789474" y="253.76315789473685" type="curve"/>
      <point x="394.2105263157895" y="158.42105263157896" type="line"/>
      <point x="434.4473684210526" y="118.18421052631578"/>
      <point x="480.0263157894737" y="71.28947368421052"/>
    </contour>
    <contour>
      <point x="490.86842105263156" y="385.60526315789474" type="line"/>
      <point x="531.1052631578948" y="425.8421052631579"/>
      <point x="578.0" y="471.42105263157896"/>
      <point x="630.5263157894736" y="516.3421052631579" type="curve"/>
      <point x="523.6315789473684" y="623.2368421052631" type="line"/>
      <point x="478.7105263157895" y="570.7105263157895"/>
      <point x="433.13157894736844" y="523.8157894736842"/>
      <point x="392.89473684210526" y="483.57894736842104" type="curve"/>
    </contour>
  </outline>
</glyph>
<glyph name="yen" format="2">
  <advance width="655.6315789473684"/>
  <unicode hex="00A5"/>
  <outline>
    <contour>
      <point x="250.1578947368421" y="243.26315789473682" type="line"/>
      <point x="408.10526315789474" y="243.26315789473682" type="line"/>
      <point x="545.6578947368421" y="513.5263157894736" type="line"/>
      <point x="574.3684210526316" y="570.1052631578947"/>
      <point x="606.421052631579" y="631.3684210526316"/>
      <point x="648.6578947368421" y="687.9473684210526" type="curve"/>
      <point x="442.84210526315786" y="687.9473684210526" type="line"/>
      <point x="420.31578947368416" y="611.6315789473684"/>
      <point x="404.7631578947368" y="574.7894736842105"/>
      <point x="379.10526315789474" y="514.5526315789474" type="curve"/>
      <point x="336.2368421052632" y="414.1578947368421" type="line"/>
      <point x="322.3421052631579" y="414.1578947368421" type="line"/>
      <point x="281.13157894736844" y="513.5526315789474" type="line"/>
      <point x="255.78947368421055" y="573.8157894736842"/>
      <point x="241.23684210526315" y="610.3157894736843"/>
      <point x="219.36842105263162" y="687.9473684210526" type="curve"/>
      <point x="5.657894736842103" y="687.9473684210526" type="line"/>
      <point x="63.263157894736835" y="601.3947368421053"/>
      <point x="84.92105263157895" y="563.7894736842105"/>
      <point x="111.28947368421052" y="512.8684210526316" type="curve"/>
    </contour>
    <contour>
      <point x="234.65789473684208" y="0.0" type="curve"/>
      <point x="424.60526315789474" y="0.0" type="line"/>
      <point x="412.39473684210526" y="73.39473684210526"/>
      <point x="411.7368421052632" y="137.10526315789474"/>
      <point x="411.7368421052632" y="222.73684210526315" type="curve"/>
      <point x="411.7368421052632" y="377.4736842105263" type="line"/>
      <point x="247.18421052631578" y="377.4736842105263" type="line"/>
      <point x="247.18421052631578" y="222.73684210526315" type="line"/>
      <point x="247.18421052631578" y="137.10526315789474"/>
      <point x="246.52631578947367" y="73.39473684210526"/>
    </contour>
    <contour>
      <point x="71.21052631578947" y="111.92105263157895" type="line"/>
      <point x="140.39473684210526" y="117.21052631578947"/>
      <point x="205.92105263157896" y="117.86842105263158"/>
      <point x="262.7894736842105" y="117.86842105263158" type="curve"/>
      <point x="395.15789473684214" y="117.86842105263158" type="line"/>
      <point x="452.0263157894737" y="117.86842105263158"/>
      <point x="517.5526315789473" y="117.21052631578947"/>
      <point x="586.7368421052631" y="111.92105263157895" type="curve"/>
      <point x="586.7368421052631" y="215.63157894736844" type="line"/>
      <point x="517.5526315789473" y="213.63157894736844"/>
      <point x="452.0263157894737" y="212.97368421052633"/>
      <point x="395.15789473684214" y="212.97368421052633" type="curve"/>
      <point x="262.7894736842105" y="212.97368421052633" type="line"/>
      <point x="205.92105263157896" y="212.97368421052633"/>
      <point x="140.39473684210526" y="213.63157894736844"/>
      <point x="71.21052631578947" y="215.63157894736844" type="curve"/>
    </contour>
    <contour>
      <point x="71.21052631578947" y="277.44736842105266" type="line"/>
      <point x="140.39473684210526" y="279.44736842105266"/>
      <point x="205.92105263157896" y="280.10526315789474"/>
      <point x="262.7894736842105" y="280.10526315789474" type="curve"/>
      <point x="395.15789473684214" y="280.10526315789474" type="line"/>
      <point x="452.0263157894737" y="280.10526315789474"/>
      <point x="517.5526315789473" y="279.44736842105266"/>
      <point x="586.7368421052631" y="277.44736842105266" type="curve"/>
      <point x="586.7368421052631" y="381.15789473684214" type="line"/>
      <point x="517.5526315789473" y="375.86842105263156"/>
      <point x="452.0263157894737" y="375.2105263157895"/>
      <point x="395.15789473684214" y="375.2105263157895" type="curve"/>
      <point x="262.7894736842105" y="375.2105263157895" type="line"/>
      <point x="205.92105263157896" y="375.2105263157895"/>
      <point x="140.39473684210526" y="375.86842105263156"/>
      <point x="71.21052631578947" y="381.15789473684214" type="curve"/>
    </contour>
  </outline>
</glyph>
<glyph name="copyright" format="2">
  <advance width="801.3684210526316"/>
  <unicode hex="00A9"/>
  <outline>
    <contour>
      <point x="404.1842105263158" y="-13.605263157894736" type="curve" smooth="yes"/>
      <point x="636.2894736842105" y="-13.605263157894736"/>
      <point x="765.0526315789474" y="138.71052631578948"/>
      <point x="765.0526315789474" y="344.6578947368421" type="curve" smooth="yes"/>
      <point x="765.0526315789474" y="542.6315789473684"/>
      <point x="642.9473684210526" y="702.578947368421"/>
      <point x="399.55263157894734" y="702.578947368421" type="curve" smooth="yes"/>
      <point x="159.5" y="702.578947368421"/>
      <point x="36.315789473684205" y="544.3157894736842"/>
      <point x="36.315789473684205" y="344.0" type="curve" smooth="yes"/>
      <point x="36.315789473684205" y="154.28947368421052"/>
      <point x="150.78947368421052" y="-13.605263157894736"/>
    </contour>
    <contour>
      <point x="413.1578947368421" y="155.3421052631579" type="curve" smooth="yes"/>
      <point x="454.1842105263158" y="155.3421052631579"/>
      <point x="496.13157894736844" y="166.73684210526315"/>
      <point x="524.1052631578948" y="173.44736842105263" type="curve"/>
      <point x="518.1052631578948" y="272.92105263157896" type="line"/>
      <point x="491.31578947368416" y="257.86842105263156"/>
      <point x="461.92105263157896" y="249.5"/>
      <point x="441.44736842105266" y="249.5" type="curve"/>
      <point x="377.6842105263158" y="250.8421052631579"/>
      <point x="339.8421052631579" y="285.8421052631579"/>
      <point x="339.8421052631579" y="346.3157894736842" type="curve" smooth="yes"/>
      <point x="339.8421052631579" y="403.2631578947369"/>
      <point x="373.1842105263158" y="433.5526315789474"/>
      <point x="418.34210526315786" y="436.2105263157895" type="curve"/>
      <point x="434.7105263157894" y="436.2105263157895"/>
      <point x="470.4473684210526" y="427.2105263157895"/>
      <point x="516.1315789473684" y="405.5263157894737" type="curve"/>
      <point x="524.7368421052632" y="507.63157894736844" type="line"/>
      <point x="494.7631578947368" y="517.9736842105264"/>
      <point x="449.4210526315789" y="533.0"/>
      <point x="405.1842105263158" y="533.0" type="curve" smooth="yes"/>
      <point x="285.6842105263158" y="533.0"/>
      <point x="223.31578947368422" y="451.6578947368421"/>
      <point x="223.31578947368422" y="343.0263157894737" type="curve" smooth="yes"/>
      <point x="223.31578947368422" y="234.39473684210526"/>
      <point x="292.57894736842104" y="155.3421052631579"/>
    </contour>
    <contour>
      <point x="403.5263157894737" y="71.6842105263158" type="curve"/>
      <point x="215.39473684210526" y="78.31578947368422"/>
      <point x="126.86842105263159" y="186.73684210526315"/>
      <point x="126.86842105263159" y="344.0" type="curve" smooth="yes"/>
      <point x="126.86842105263159" y="506.13157894736844"/>
      <point x="220.05263157894737" y="610.6578947368421"/>
      <point x="400.2105263157895" y="617.2894736842105" type="curve"/>
      <point x="582.0263157894736" y="610.6578947368421"/>
      <point x="674.5" y="506.15789473684214"/>
      <point x="674.5" y="344.6578947368421" type="curve" smooth="yes"/>
      <point x="674.5" y="179.52631578947367"/>
      <point x="578.3947368421052" y="78.31578947368422"/>
    </contour>
  </outline>
</glyph>
<glyph name="ordfeminine" format="2">
  <advance width="405.16504854368935"/>
  <unicode hex="00AA"/>
  <outline>
    <contour>
      <point x="137.35922330097085" y="329.15533980582524" type="curve" smooth="yes"/>
      <point x="183.62135922330097" y="329.15533980582524"/>
      <point x="228.3009708737864" y="360.52427184466023"/>
      <point x="253.82524271844665" y="395.7864077669903" type="curve"/>
      <point x="261.9320388349514" y="395.7864077669903" type="line"/>
      <point x="275.8252427184466" y="337.8932038834952" type="line"/>
      <point x="387.1747572815534" y="337.8932038834952" type="line"/>
      <point x="369.69902912621365" y="386.1067961165049"/>
      <point x="363.1747572815534" y="430.4271844660194"/>
      <point x="363.1747572815534" y="467.90291262135923" type="curve"/>
      <point x="363.1747572815534" y="498.8932038834951" type="line" smooth="yes"/>
      <point x="363.1747572815534" y="527.0485436893204"/>
      <point x="365.54368932038835" y="566.7864077669904"/>
      <point x="365.54368932038835" y="591.5242718446601" type="curve" smooth="yes"/>
      <point x="365.54368932038835" y="687.3689320388349"/>
      <point x="307.9611650485437" y="727.7378640776699"/>
      <point x="216.16504854368932" y="727.7378640776699" type="curve" smooth="yes"/>
      <point x="153.89320388349515" y="727.7378640776699"/>
      <point x="87.67961165048544" y="709.3689320388349"/>
      <point x="49.310679611650485" y="699.7378640776699" type="curve"/>
      <point x="54.04854368932038" y="593.5533980582524" type="line"/>
      <point x="103.4660194174757" y="616.0776699029126"/>
      <point x="167.04854368932038" y="631.8155339805826"/>
      <point x="184.31067961165047" y="631.8155339805826" type="curve" smooth="yes"/>
      <point x="235.20388349514565" y="631.8155339805826"/>
      <point x="261.56310679611653" y="618.1844660194175"/>
      <point x="259.30097087378635" y="580.7281553398059" type="curve"/>
      <point x="149.5728155339806" y="559.2038834951456" type="line" smooth="yes"/>
      <point x="105.2135922330097" y="550.6796116504854"/>
      <point x="32.310679611650485" y="523.1067961165048"/>
      <point x="32.310679611650485" y="433.8932038834952" type="curve" smooth="yes"/>
      <point x="32.310679611650485" y="375.63106796116506"/>
      <point x="68.09708737864077" y="329.15533980582524"/>
    </contour>
    <contour>
      <point x="187.74757281553397" y="419.2330097087379" type="curve" smooth="yes"/>
      <point x="162.49514563106797" y="419.2330097087379"/>
      <point x="140.92233009708738" y="432.0194174757281"/>
      <point x="140.92233009708738" y="461.747572815534" type="curve" smooth="yes"/>
      <point x="140.92233009708738" y="493.1067961165048"/>
      <point x="167.91262135922332" y="505.8932038834951"/>
      <point x="194.5339805825243" y="512.1553398058252" type="curve" smooth="yes"/>
      <point x="235.99029126213594" y="522.3106796116505"/>
      <point x="246.66990291262135" y="527.2038834951456"/>
      <point x="256.56310679611653" y="534.5728155339806" type="curve"/>
      <point x="256.56310679611653" y="461.16504854368935" type="line"/>
      <point x="240.25242718446603" y="433.91262135922335"/>
      <point x="209.21359223300973" y="419.2330097087379"/>
    </contour>
  </outline>
</glyph>
<glyph name="logicalnot" format="2">
  <advance width="579.7368421052631"/>
  <unicode hex="00AC"/>
  <outline>
    <contour>
      <point x="384.31578947368416" y="51.18421052631579" type="curve"/>
      <point x="535.421052631579" y="51.18421052631579" type="line"/>
      <point x="530.1315789473684" y="120.36842105263158"/>
      <point x="529.4736842105264" y="185.89473684210526"/>
      <point x="529.4736842105264" y="242.76315789473685" type="curve"/>
      <point x="529.4736842105264" y="377.7894736842106" type="line"/>
      <point x="460.2894736842105" y="372.5"/>
      <point x="394.7631578947368" y="371.8421052631579"/>
      <point x="337.89473684210526" y="371.8421052631579" type="curve"/>
      <point x="241.8421052631579" y="371.8421052631579" type="line"/>
      <point x="184.97368421052633" y="371.8421052631579"/>
      <point x="119.44736842105263" y="372.5"/>
      <point x="50.26315789473684" y="377.7894736842106" type="curve"/>
      <point x="50.26315789473684" y="230.6315789473684" type="line"/>
      <point x="119.44736842105263" y="235.92105263157893"/>
      <point x="184.97368421052633" y="236.57894736842104"/>
      <point x="241.8421052631579" y="236.57894736842104" type="curve"/>
      <point x="337.89473684210526" y="236.57894736842104" type="line"/>
      <point x="387.8157894736842" y="236.57894736842104"/>
      <point x="445.7368421052632" y="235.92105263157893"/>
      <point x="506.3157894736842" y="230.6315789473684" type="curve"/>
      <point x="390.2631578947368" y="332.89473684210526" type="line"/>
      <point x="390.2631578947368" y="242.76315789473685" type="line"/>
      <point x="390.2631578947368" y="185.89473684210526"/>
      <point x="389.60526315789474" y="120.36842105263158"/>
    </contour>
  </outline>
</glyph>
